<svg width="640" height="1058" viewBox="0 0 640 1058" fill="none" xmlns="http://www.w3.org/2000/svg">
<path d="M222.359 913.944C258.996 696.89 233.961 585.186 216.864 556.465H72.1468C3.26888 568.198 -2.95944 489.247 2.53614 448.304C12.9167 410.418 50.8972 345.277 119.775 387.808C188.653 430.34 225.412 416.529 235.182 404.307C153.115 270.849 137.483 172.71 139.926 140.323C145.717 81.7084 224.557 -24.3001 350.589 6.49807C508.129 44.9958 520.952 147.656 519.12 202.653C517.655 246.65 465.996 355.422 440.35 404.307L561.253 387.808C647.717 395.141 644.908 467.859 632.696 503.302C616.575 564.898 531.943 564.409 491.642 556.465C430.092 524.2 400.05 543.022 392.722 556.465C392.722 717.789 401.881 785.618 453.173 913.944C504.465 1042.27 398.218 1053.27 304.793 1056.93C230.053 1059.87 218.695 962.83 222.359 913.944Z" fill="#F6AF67" stroke="black" stroke-width="2"/>
<path d="M223.338 897.904C258.482 689.895 234.467 582.845 218.067 555.321H79.2474C13.1764 566.565 7.20192 490.903 12.4735 451.667C22.431 415.359 58.8638 352.932 124.935 393.691C191.006 434.451 226.267 421.215 235.639 409.503C156.916 281.606 141.921 187.556 144.264 156.518C149.819 100.346 225.447 -1.2459 346.343 28.269C497.462 65.1626 509.763 163.546 508.006 216.251C506.6 258.415 457.047 362.654 432.446 409.503L548.422 393.691C631.362 400.719 628.667 470.407 616.953 504.372C601.489 563.402 520.306 562.934 481.648 555.321C422.605 524.4 393.787 542.437 386.758 555.321C386.758 709.923 395.545 774.926 444.746 897.904C493.948 1020.88 392.03 1031.42 302.413 1034.94C230.719 1037.75 219.824 944.753 223.338 897.904Z" fill="#FFDCB0" stroke="black" stroke-width="2"/>
<path d="M247.681 200.237C250.391 205.611 296.919 270.099 320.861 301L371 235.168C361.062 225.316 338.573 199.73 306.049 190.057C273.524 180.383 258.973 143.809 258.522 125C234.671 150.795 239.547 186.802 247.681 200.237Z" fill="#FDE9D5" stroke="black" stroke-width="4" stroke-linejoin="round"/>
<path d="M381.364 219C402.336 190.95 399.182 174.357 398.309 161C392.275 165.099 384.641 170.681 374.715 175.693C363.079 181.569 349.275 186.743 345.879 189.05C339.588 193.324 368.693 212.767 381.364 219Z" fill="#B7F7EE" stroke="black" stroke-width="4" stroke-linejoin="round"/>
<path d="M371.294 113.256C327.881 77.6034 271.098 102.245 271 119.229C271 144.888 295.593 185.642 334.664 178.079C360.227 173.131 390.602 162.914 393 145.668C393 138.215 378.077 118.826 371.294 113.256Z" fill="#FFE4DF" stroke="black" stroke-width="4" stroke-linejoin="round"/>
</svg>
