<svg width="426" height="426" viewBox="0 0 426 426" fill="none" xmlns="http://www.w3.org/2000/svg">
<rect width="426" height="426" rx="40" fill="#FEE3BE"/>
<path d="M213 123H224" stroke="black" stroke-width="2"/>
<path d="M162.003 266.705C155.769 261.42 155.537 254.678 156.533 250.203C156.749 249.231 157.871 249.363 157.973 250.353C158.236 252.925 158.499 255.854 158.697 256.991C158.983 258.638 163.306 264.157 165.842 267.01C166.03 267.221 166.298 267.339 166.58 267.339H167.886C168.191 267.339 168.48 267.199 168.67 266.96L174.942 259.044C175.232 258.678 175.824 258.566 176.161 258.243C176.759 257.67 177.28 256.173 177.989 255.219C178.339 254.749 178.971 254.971 178.996 255.556C179.136 258.775 175.49 263.35 172.97 266.231C172.381 266.905 172.89 267.938 173.777 267.828C174.842 267.697 175.732 267.539 176.457 267.377C177.332 267.182 178.363 268.125 178.12 268.988L176.822 273.587C176.674 274.114 176.129 274.424 175.6 274.281L169.687 272.689C169.034 272.513 168.399 273.022 168.427 273.697L169.08 289.026C169.1 289.49 168.795 289.908 168.345 290.026C159.814 292.262 158.587 290.135 159.069 288.748C163.212 278.813 163.525 274.281 163.046 272.801C162.943 272.481 162.592 272.379 162.264 272.454L153.116 274.538C152.234 274.618 152 274.078 152 273.762V265.555C152 264.5 152.847 264.379 153.367 264.46C153.448 264.473 153.527 264.505 153.6 264.543C158.096 266.884 160.604 267.55 161.839 267.579C162.395 267.592 162.427 267.064 162.003 266.705Z" fill="black"/>
<path d="M153.488 274.475C153.353 274.508 153.229 274.528 153.116 274.538M153.116 274.538C152.234 274.618 152 274.078 152 273.762C152 271.502 152 266.697 152 265.555C152 264.5 152.847 264.379 153.367 264.46C153.448 264.473 153.527 264.505 153.6 264.543C158.096 266.884 160.604 267.55 161.839 267.579C162.395 267.592 162.427 267.064 162.003 266.705C155.769 261.42 155.537 254.678 156.533 250.203C156.749 249.231 157.871 249.363 157.973 250.353C158.236 252.925 158.499 255.854 158.697 256.991C158.983 258.638 163.306 264.157 165.842 267.01C166.03 267.221 166.298 267.339 166.58 267.339H167.886C168.191 267.339 168.48 267.199 168.67 266.96L174.942 259.044C175.232 258.678 175.824 258.566 176.161 258.243C176.759 257.67 177.28 256.173 177.989 255.219C178.339 254.749 178.971 254.971 178.996 255.556C179.136 258.775 175.49 263.35 172.97 266.231C172.381 266.905 172.89 267.938 173.777 267.828C174.842 267.697 175.732 267.539 176.457 267.377C177.332 267.182 178.363 268.125 178.12 268.988L176.822 273.587C176.674 274.114 176.129 274.424 175.6 274.281L169.687 272.689C169.034 272.513 168.399 273.022 168.427 273.697L169.08 289.026C169.1 289.49 168.795 289.908 168.345 290.026C159.814 292.262 158.587 290.135 159.069 288.748C163.212 278.813 163.525 274.281 163.046 272.801C162.943 272.481 162.592 272.379 162.264 272.454L153.116 274.538Z" stroke="black" stroke-width="0.1"/>
<path d="M243.401 306.072L240.271 301.534C238.973 299.652 235.644 299.302 234.141 299.362H216.389C215.837 299.362 215.389 299.81 215.389 300.362V301.256C215.389 301.438 215.439 301.616 215.533 301.772L222.457 313.242C222.551 313.398 222.601 313.576 222.601 313.758V326.43C222.601 326.484 222.597 326.531 222.591 326.586C222.168 330.162 231.077 349.931 235.864 360.309C236.104 360.829 235.819 361.428 235.463 361.876C234.886 362.601 234.954 363.621 235.223 364.16L244.133 382.049C244.202 382.188 244.238 382.34 244.238 382.495V387.86C244.238 387.987 244.212 388.117 244.166 388.235C239.668 399.661 244.012 402.048 246.762 401.808H254.872C255.212 401.808 255.524 401.631 255.731 401.362C258.946 397.181 265.379 399.679 268.51 401.647C268.675 401.751 268.864 401.808 269.059 401.808H288.11C288.192 401.808 288.277 401.797 288.357 401.776C294.824 400.11 293.203 397.028 291.38 395.499C291.213 395.36 291.001 395.292 290.784 395.292H282.419C282.213 395.292 282.013 395.229 281.845 395.111L259.69 379.578C259.493 379.44 259.352 379.235 259.294 379.001L254.335 359.092L243.558 306.44C243.531 306.308 243.478 306.183 243.401 306.072Z" fill="#A7482C"/>
<path d="M202.407 317.462C203.577 314.231 205.117 309.545 205.626 307.436C205.644 307.362 205.653 307.287 205.653 307.21V300.346C205.653 299.8 205.215 299.355 204.669 299.346L183.294 299H181.409C180.857 299 180.409 299.448 180.409 300V301.299C180.409 301.453 180.373 301.606 180.304 301.745L178.246 305.878C175.361 313.842 175.361 317.1 175 321.806V377.916C175.361 380.571 176.082 387.69 176.082 394.93C176.082 401.926 182.592 402.5 186.176 401.877C186.412 401.836 186.622 401.698 186.773 401.512C191.336 395.9 195.993 399.245 197.792 401.435C197.982 401.666 198.253 401.819 198.551 401.838L215.029 402.894C224.044 403.98 226.568 396.378 223.323 396.378H218.621C218.396 396.378 218.178 396.302 218.002 396.163L195.215 378.216C194.974 378.027 194.834 377.737 194.834 377.431V359.092C196.637 335.924 200.964 321.444 202.407 317.462Z" fill="#A7482C"/>
<path d="M243.401 306.072L240.271 301.534C238.973 299.652 235.644 299.302 234.141 299.362H216.389C215.837 299.362 215.389 299.81 215.389 300.362V301.256C215.389 301.438 215.439 301.616 215.533 301.772L222.457 313.242C222.551 313.398 222.601 313.576 222.601 313.758V326.43C222.601 326.484 222.597 326.531 222.591 326.586C222.168 330.162 231.077 349.931 235.864 360.309C236.104 360.829 235.819 361.428 235.463 361.876C234.886 362.601 234.954 363.621 235.223 364.16L244.133 382.049C244.202 382.188 244.238 382.34 244.238 382.495V387.86C244.238 387.987 244.212 388.117 244.166 388.235C239.668 399.661 244.012 402.048 246.762 401.808H254.872C255.212 401.808 255.524 401.631 255.731 401.362C258.946 397.181 265.379 399.679 268.51 401.647C268.675 401.751 268.864 401.808 269.059 401.808H288.11C288.192 401.808 288.277 401.797 288.357 401.776C294.824 400.11 293.203 397.028 291.38 395.499C291.213 395.36 291.001 395.292 290.784 395.292H282.419C282.213 395.292 282.013 395.229 281.845 395.111L259.69 379.578C259.493 379.44 259.352 379.235 259.294 379.001L254.335 359.092L243.558 306.44C243.531 306.308 243.478 306.183 243.401 306.072Z" stroke="black" stroke-width="3"/>
<path d="M202.407 317.462C203.577 314.231 205.117 309.545 205.626 307.436C205.644 307.362 205.653 307.287 205.653 307.21V300.346C205.653 299.8 205.215 299.355 204.669 299.346L183.294 299H181.409C180.857 299 180.409 299.448 180.409 300V301.299C180.409 301.453 180.373 301.606 180.304 301.745L178.246 305.878C175.361 313.842 175.361 317.1 175 321.806V377.916C175.361 380.571 176.082 387.69 176.082 394.93C176.082 401.926 182.592 402.5 186.176 401.877C186.412 401.836 186.622 401.698 186.773 401.512C191.336 395.9 195.993 399.245 197.792 401.435C197.982 401.666 198.253 401.819 198.551 401.838L215.029 402.894C224.044 403.98 226.568 396.378 223.323 396.378H218.621C218.396 396.378 218.178 396.302 218.002 396.163L195.215 378.216C194.974 378.027 194.834 377.737 194.834 377.431V359.092C196.637 335.924 200.964 321.444 202.407 317.462Z" stroke="black" stroke-width="3"/>
<path d="M173.682 291.404C172.237 298.912 174.398 299.627 179.821 299.27L242.748 299.985C245.977 299.985 245.89 300.167 246.724 299.27C248.506 297.354 248.055 293.238 247.809 291.047L240.324 229.719C240.263 229.217 240.583 228.729 241.025 228.483C241.753 228.079 242.852 227.307 244.194 225.98C246.219 223.977 245.038 220.378 244.194 218.829L238.528 208.326C238.45 208.18 238.409 208.017 238.409 207.851V196.472C238.409 196.362 238.427 196.253 238.462 196.149L246.725 171.995C248.051 177.834 250.703 190.514 250.703 194.518C250.703 198.523 255.283 202.145 257.573 203.456L296.626 227.052L312.271 238.653C312.444 238.781 312.652 238.85 312.867 238.85H320.492H325.193C330.255 238.85 328.809 222.047 328.809 218.829C328.809 216.318 323.76 215.871 321.052 215.961C320.92 215.966 320.79 215.946 320.666 215.901L314.149 213.527C314.039 213.487 313.923 213.467 313.807 213.467H308.198C307.964 213.467 307.737 213.384 307.558 213.234L273.44 184.773C273.237 184.603 273.109 184.36 273.085 184.095L271.325 164.61C271.318 164.528 271.32 164.449 271.332 164.369C271.999 159.841 271.34 150.206 268.411 147.279C268.2 147.068 268.054 146.791 268.039 146.494C267.062 127.176 250.33 119.283 248.895 118.726C241.213 115.742 238.562 116.381 238.103 117.166C238.055 117.247 238.049 117.344 238.042 117.438C237.93 119.082 235.877 119.034 235.877 117.295V111.15C235.877 110.756 236.102 110.4 236.474 110.272C240.657 108.84 254.944 106.759 261.913 105.855C264.277 105.548 266.159 99.487 266.612 97.2747C267.247 94.1752 266.996 91.9717 265.167 91.5545L226.114 83.3317C221.196 82.4736 220.328 66.5285 220.328 59.0208V41.1304C220.328 40.2833 219.354 39.8365 218.755 40.436C211.245 47.9601 210.927 58.6853 210.927 59.0208C210.927 60.4508 207.672 60.4508 207.672 59.0208L207.672 41.2756C207.672 40.4051 206.655 39.9655 206.063 40.6035C195.335 52.1586 190.727 75.0219 189.661 86.4677C189.618 86.937 189.254 87.3067 188.788 87.3774C175.525 89.39 167.385 97.8638 159.218 109.43C145.987 128.167 146.65 157.315 147.265 173.94C147.278 174.291 147.472 174.603 147.791 174.75C150.508 175.998 156.438 177.288 159.842 177.923C160.319 178.012 160.665 178.426 160.665 178.912V192.731L158.504 215.878C158.498 215.939 158.498 216 158.503 216.06L160.644 240.043C160.658 240.199 160.633 240.359 160.576 240.505C157.009 249.557 157.623 254.23 158.432 255.556C158.472 255.623 158.524 255.679 158.584 255.728C159.775 256.703 163.504 258.513 169.705 258.513C176.069 258.513 176.696 256.607 176.214 255.653L176.093 255.43C175.618 254.548 176.761 253.692 177.474 254.396C177.595 254.516 177.749 254.601 177.919 254.623C179.691 254.846 181.796 253.785 177.66 247.788C173.363 241.557 175.804 229.669 177.607 224.347C177.643 224.242 177.66 224.135 177.66 224.024V215.969L177.666 211.406C177.941 198.261 177.324 179.503 180.915 179.503H186.685C187.124 179.503 187.512 179.789 187.641 180.209L189.955 187.726C190.664 189.831 189.981 190.903 189.613 192.632C189.6 192.697 189.593 192.764 189.593 192.831V203.5C189.593 203.704 189.529 203.905 189.415 204.074C186.768 207.983 186.403 210.919 186.595 212.284C186.638 212.585 186.603 212.9 186.445 213.16C184.632 216.149 184.169 218.876 184.169 219.902C183.88 236.776 181.879 249.575 180.915 253.866L173.682 291.404Z" fill="#A7482C"/>
<path d="M177.66 211.679C177.662 211.588 177.664 211.497 177.666 211.406M177.666 211.406C177.941 198.261 177.324 179.503 180.915 179.503H186.685C187.124 179.503 187.512 179.789 187.641 180.209L189.955 187.726C190.664 189.831 189.981 190.903 189.613 192.632C189.6 192.697 189.593 192.764 189.593 192.831V203.5C189.593 203.704 189.529 203.905 189.415 204.074C186.768 207.983 186.403 210.919 186.595 212.284C186.638 212.585 186.603 212.9 186.445 213.16C184.632 216.149 184.169 218.876 184.169 219.902C183.88 236.776 181.879 249.575 180.915 253.866L173.682 291.404C172.237 298.912 174.398 299.627 179.821 299.27L242.748 299.985C245.977 299.985 245.89 300.167 246.724 299.27C248.506 297.354 248.055 293.238 247.809 291.047L240.324 229.719C240.263 229.217 240.583 228.729 241.025 228.483C241.753 228.079 242.852 227.307 244.194 225.98C246.219 223.977 245.038 220.378 244.194 218.829L238.528 208.326C238.45 208.18 238.409 208.017 238.409 207.851V196.472C238.409 196.362 238.427 196.253 238.462 196.149L246.725 171.995M177.666 211.406L177.66 215.969V224.024C177.66 224.135 177.643 224.242 177.607 224.347C175.804 229.669 173.363 241.557 177.66 247.788C181.796 253.785 179.691 254.846 177.919 254.623C177.749 254.601 177.595 254.516 177.474 254.396V254.396C176.761 253.692 175.618 254.548 176.093 255.43L176.214 255.653C176.696 256.607 176.069 258.513 169.705 258.513C163.504 258.513 159.775 256.703 158.584 255.728C158.524 255.679 158.472 255.623 158.432 255.556C157.623 254.23 157.009 249.557 160.576 240.505C160.633 240.359 160.658 240.199 160.644 240.043L158.503 216.06C158.498 216 158.498 215.939 158.504 215.878L160.665 192.731V178.912C160.665 178.426 160.319 178.012 159.842 177.923C156.438 177.288 150.508 175.998 147.791 174.75C147.472 174.603 147.278 174.291 147.265 173.94C146.65 157.315 145.987 128.167 159.218 109.43C167.385 97.8638 175.525 89.39 188.788 87.3774C189.254 87.3067 189.618 86.937 189.661 86.4677C190.727 75.0219 195.335 52.1586 206.063 40.6035C206.655 39.9655 207.672 40.4051 207.672 41.2756L207.672 59.0208C207.672 60.4508 210.927 60.4508 210.927 59.0208C210.927 58.6853 211.245 47.9601 218.755 40.436C219.354 39.8365 220.328 40.2833 220.328 41.1304V59.0208C220.328 66.5285 221.196 82.4736 226.114 83.3317L265.167 91.5545C266.996 91.9717 267.247 94.1752 266.612 97.2747C266.159 99.487 264.277 105.548 261.913 105.855C254.944 106.759 240.657 108.84 236.474 110.272C236.102 110.4 235.877 110.756 235.877 111.15V117.295C235.877 119.034 237.93 119.082 238.042 117.438C238.049 117.344 238.055 117.247 238.103 117.166C238.562 116.381 241.213 115.742 248.895 118.726C250.33 119.283 267.062 127.176 268.039 146.494C268.054 146.791 268.2 147.068 268.411 147.279C271.34 150.206 271.999 159.841 271.332 164.369C271.32 164.449 271.318 164.528 271.325 164.61L273.085 184.095C273.109 184.36 273.237 184.603 273.44 184.773L307.558 213.234C307.737 213.384 307.964 213.467 308.198 213.467H313.807C313.923 213.467 314.039 213.487 314.149 213.527L320.666 215.901C320.79 215.946 320.92 215.966 321.052 215.961C323.76 215.871 328.809 216.318 328.809 218.829C328.809 222.047 330.255 238.85 325.193 238.85C321.143 238.85 320.371 238.85 320.492 238.85H312.867C312.652 238.85 312.444 238.781 312.271 238.653L296.626 227.052L257.573 203.456C255.283 202.145 250.703 198.523 250.703 194.518C250.703 190.514 248.051 177.834 246.725 171.995M246.725 171.995C247.595 167.467 248.971 157.98 247.525 156.264" stroke="black" stroke-width="3"/>
<path d="M181 168.3L184.077 168L185 171H181V168.3Z" fill="white"/>
<path d="M180 171.781V178.431C180 178.733 180.265 178.966 180.564 178.927L187.41 178.045C187.718 178.005 187.916 177.697 187.824 177.401L186.189 172.133C186.124 171.924 185.931 171.781 185.712 171.781H180Z" fill="black"/>
<path d="M180 171.781V178.431C180 178.733 180.265 178.966 180.564 178.927L187.41 178.045C187.718 178.005 187.916 177.697 187.824 177.401L186.189 172.133C186.124 171.924 185.931 171.781 185.712 171.781H180ZM180 171.781V168" stroke="black" stroke-width="2" stroke-linecap="round"/>
<path d="M194.068 191C189.456 180.694 179.169 156.529 184.49 148M186.619 151.198C186.264 156.055 189.244 165.698 204 165.413" stroke="black" stroke-width="2" stroke-linecap="round"/>
<path d="M190 182L192 190" stroke="black" stroke-width="2" stroke-linecap="round"/>
<path d="M225.568 111.776L224.131 123H218.921H213.712V105.259C211.7 100.624 204.012 100.431 200.419 100.914L190 87.1552V84.9828C195.173 52.2517 203.892 40.6897 207.604 39L207.963 57.8276C207.963 59.2759 211.197 59.2759 211.197 57.8276C211.484 48.5586 216.825 41.4138 219.46 39L220.538 40.0862C219.676 73.9759 223.292 82.4483 225.208 82.4483C235.627 84.7414 257.974 89.6172 264.01 90.7759C270.045 91.9345 265.566 100.914 262.573 105.259C254.669 106.707 238.43 109.676 236.705 109.966C234.981 110.255 234.31 109.845 234.19 109.603C228.442 109.893 226.047 111.172 225.568 111.776Z" fill="#182067" stroke="black" stroke-width="0.5"/>
<path d="M196.693 115.514C190.603 116.958 183.834 117.679 178.323 122.731C173.779 124.578 169.001 125.048 166.198 128.865C158.247 139.692 159.217 164.948 160.319 170C155.535 169.639 151.861 168.918 149.655 168.918C145.615 162.784 150.168 150.726 150.766 136.804C155.175 107.216 166.198 96.7515 187.14 89.5348C191.549 87.7307 193.387 90.2562 200 100.72C198.898 105.411 198.18 110.647 196.693 115.514Z" fill="white"/>
<path d="M148 169.277C148.525 169.296 149.148 169.32 149.831 169.348M160.451 170C159.157 169.817 155.852 169.625 152.761 169.478M152.761 169.478C151.733 169.429 150.729 169.385 149.831 169.348M152.761 169.478C152.516 162.42 151.296 143.964 153.859 130.946M149.831 169.348C149.343 162.454 149.465 143.964 152.761 133.478M156.423 169.672C156.789 157.727 154.225 120.46 169.972 101.295M161.915 141.433C160.82 130.852 163.659 105.829 186.648 90.1995C186.758 90.1245 186.884 90.0715 187.015 90.0457L192.31 89M167.042 128.777C168.995 117.808 176.563 94.858 192.676 90.808M171.437 125.161C172.535 117.085 178.394 99.1973 194.507 92.2545M176.197 123.353C177.662 116 183.521 99.7759 195.239 93.7009M180.225 121.183C180.469 116.121 184.034 103.754 196.338 94.7857M194.507 117.205C194.751 114.433 196.192 107.731 200 103.103M191.211 117.205C191.577 114.312 193.848 106.646 200 99.125M187.183 117.929C188.16 113.228 191.797 102.669 198.535 98.0402M197.437 95.8705C193.653 98.8839 185.792 107.659 184.62 118.652" stroke="black" stroke-width="1.5" stroke-linecap="round"/>
<path d="M188 88C179.738 89.2 161.417 98.44 152.078 129.4L151 133" stroke="black" stroke-width="6" stroke-linecap="round"/>
<path d="M151 131C148.778 139.183 147.223 161.454 148.408 168" stroke="black" stroke-width="5"/>
<path d="M234 110V158.112C234 162.144 223 161.777 223 158.112C223 129.982 224.266 115.571 224.975 111.318C225.027 111.008 225.228 110.75 225.52 110.631C225.936 110.461 226.483 110.267 227.125 110.074C227.735 109.89 228.433 109.707 229.188 109.545C229.628 109.451 230.088 109.363 230.562 109.288C231.01 109.217 231.814 109.155 232.281 109.108C232.562 109.08 232.786 109.056 233.001 109.039C233.552 108.993 234 109.448 234 110Z" fill="white"/>
<path d="M234 158.112V110C234 109.448 233.552 108.993 233.001 109.039C232.786 109.056 232.562 109.08 232.281 109.108M234 158.112C234 162.144 223 161.777 223 158.112M234 158.112H231.938M223 158.112C223 129.982 224.266 115.571 224.975 111.318C225.027 111.008 225.228 110.75 225.52 110.631C225.936 110.461 226.483 110.267 227.125 110.074M223 158.112H225.062M231.938 158.112L232.281 109.108M231.938 158.112H229.188M232.281 109.108C231.814 109.155 231.01 109.217 230.562 109.288M229.188 158.112L230.562 109.288M229.188 158.112H227.125M230.562 109.288C230.088 109.363 229.628 109.451 229.188 109.545M227.125 158.112C227.354 142.105 228.087 109.981 229.188 109.545M227.125 158.112H225.062M229.188 109.545C228.433 109.707 227.735 109.89 227.125 110.074M225.062 158.112C225.292 142.223 226.025 110.371 227.125 110.074" stroke="black" stroke-width="1.5" stroke-linecap="round"/>
<path d="M213 106.827L212.3 156.747C212.3 163.929 196.199 163.57 196.199 156.747C196.199 147.107 195.569 130.865 196.551 117.96C197.238 114.262 197.601 111.137 198.301 107.905C198.9 105.138 198.345 107.367 199.865 101.762C199.975 101.356 200.329 101.056 200.749 101.034C201.592 100.991 202.55 100.985 203.551 101.039C204.125 101.07 204.713 101.121 205.301 101.195C206.009 101.285 206.717 101.409 207.402 101.574C208.413 101.818 209.372 102.153 210.202 102.6C211.86 103.496 213 104.844 213 106.827Z" fill="white"/>
<path d="M212.3 156.747L213 106.827C213 104.844 211.86 103.496 210.202 102.6M212.3 156.747C212.3 163.929 196.199 163.57 196.199 156.747M212.3 156.747H209.152M196.199 156.747C196.199 147.107 195.569 130.865 196.551 117.96C197.238 114.262 197.601 111.137 198.301 107.905C198.9 105.138 198.345 107.367 199.865 101.762C199.975 101.356 200.329 101.056 200.749 101.034C201.592 100.991 202.55 100.985 203.551 101.039M196.199 156.747H199.001M210.202 102.6L209.152 156.747M210.202 102.6C209.372 102.153 208.413 101.818 207.402 101.574M209.152 156.747H205.651M207.402 101.574L205.651 156.747M207.402 101.574C206.149 101.271 204.816 101.108 203.551 101.039M205.651 156.747H202.501M205.301 101.195C204.368 106.343 202.501 124.568 202.501 156.747M202.501 156.747H199.001M203.551 101.039C202.385 102.849 199.001 114.01 199.001 156.747" stroke="black" stroke-width="1.5" stroke-linecap="round"/>
<path d="M173.223 294.927C174.744 282.684 179.447 258.994 182.49 243.063C183.22 238.075 184.607 226.533 184.315 220.263C184.023 213.993 190.155 212.188 192.345 212.069L237.185 211.043C238.241 211.019 239.134 211.82 239.224 212.872L240.524 228.1C243.77 250.771 249.778 289.758 247.494 298.003C247.313 298.66 246.673 299.008 245.991 298.995C228.29 298.654 223.69 281.709 221.544 273.151C211.48 288.348 194.879 298.901 174.939 297.073C173.858 296.974 173.089 296.004 173.223 294.927Z" fill="#E8CEAA"/>
<path d="M240.524 228.1L239.224 212.872C239.134 211.82 238.241 211.019 237.185 211.043L192.345 212.069C190.155 212.188 184.023 213.993 184.315 220.263C184.607 226.533 183.22 238.075 182.49 243.063C179.447 258.994 174.744 282.684 173.223 294.927C173.089 296.004 173.858 296.974 174.939 297.073C194.879 298.901 211.48 288.348 221.544 273.151M240.524 228.1C238.612 239.59 231.571 258.011 221.544 273.151M240.524 228.1C243.77 250.771 249.778 289.758 247.494 298.003C247.313 298.66 246.673 299.008 245.991 298.995C228.29 298.654 223.69 281.709 221.544 273.151" stroke="black" stroke-width="3"/>
<path d="M319 323.043C319 326.986 313 326.986 313 323.043V116C313 114.343 314.343 113 316 113C317.657 113 319 114.343 319 116V323.043Z" fill="#8EE6DA" stroke="black" stroke-width="3"/>
<path d="M306.84 80.0424C315.763 80.0424 315.412 88.2635 313.294 91.1093C311.198 93.9264 311.416 93.2375 309.765 93.955H333.186C333.352 93.955 333.52 93.9117 333.665 93.83C341.265 89.5356 337.301 82.0338 333.635 80.1385C333.506 80.0718 333.363 80.0424 333.218 80.0424H306.84Z" fill="#FDE9D5" fill-opacity="0.4"/>
<path d="M295.685 66.9994C291.435 64.1283 285.502 56.1948 295.398 47.2558C295.578 47.093 295.819 47 296.062 47H332.439C332.991 47 333.439 47.4477 333.439 48V74.8252M295.685 56.5649H298.117C298.67 56.5649 299.117 57.0126 299.117 57.5649V91.1093C299.117 94.5874 304.877 93.955 309.765 93.955M306.84 80.0424C315.763 80.0424 315.412 88.2635 313.294 91.1093C311.198 93.9264 311.416 93.2375 309.765 93.955M306.84 80.0424C303.728 80.0424 304.78 83.3467 306.84 86.1292M306.84 80.0424H333.218C333.363 80.0424 333.506 80.0718 333.635 80.1385C337.301 82.0338 341.265 89.5356 333.665 93.83C333.52 93.9117 333.352 93.955 333.186 93.955H309.765M306.84 56.5649H324.858M306.84 63.5212H328.29M306.84 71.3471H324.858" stroke="#F4C699" stroke-width="2" stroke-linecap="round" stroke-linejoin="round"/>
<circle cx="316" cy="69" r="43.5" fill="white" fill-opacity="0.3" stroke="#8EE6D8"/>
<circle cx="316" cy="69" r="43.5" fill="#8EE6D8" fill-opacity="0.2" stroke="#8EE6D8"/>
<path d="M282 51C287.618 40.713 291.75 36.1717 300 33" stroke="#8EE6D8" stroke-linecap="round"/>
<path d="M235.278 196.856C211.731 195.135 198.893 192.838 193.221 190.656C191.994 190.184 190.198 191.159 190.198 192.473L190.198 202.299C190.198 202.98 189.784 203.711 189.448 204.305L189.442 204.316C188.002 206.86 186.2 214.079 187.384 212.863C188.475 211.742 219.048 210.418 235.46 210.336C236.304 210.332 236.982 209.636 236.96 208.793L236.684 198.315C236.664 197.543 236.048 196.912 235.278 196.856Z" fill="#FCEBD8" stroke="black" stroke-width="3"/>
<path d="M238 210C239.487 213 251.753 224.667 239.859 228L238 210Z" fill="#FCEBD8" stroke="black" stroke-width="3"/>
<path d="M197.07 86H203.777C204.409 86 204.882 85.4206 204.757 84.801L203.5 78.6119L202.5 68.7612V59.0751C202.5 57.9433 200.916 57.6824 200.553 58.7545L200 60.3881L198.5 65.3134L197.5 69.7463L196.5 78.6119L196.072 84.9325C196.033 85.51 196.491 86 197.07 86Z" fill="#2F388E"/>
<path d="M197.07 86H203.777C204.409 86 204.882 85.4206 204.757 84.801L203.5 78.6119L202.5 68.7612V59.0751C202.5 57.9433 200.916 57.6824 200.553 58.7545L200 60.3881L198.5 65.3134L197.5 69.7463L196.5 78.6119L196.072 84.9325C196.033 85.51 196.491 86 197.07 86Z" stroke="black"/>
<path d="M161.108 177C161.108 151.232 158.526 125.464 178.636 123.57C179.017 123.534 179.357 123.29 179.532 122.95C180.528 121.009 183.588 117.515 195.479 116.875C195.983 116.848 196.4 116.455 196.457 115.953C196.98 111.352 198.865 103.109 201 101" stroke="black" stroke-width="3"/>
<path d="M201 102L189 86" stroke="black" stroke-width="3"/>
<path d="M226.297 88C222.559 88 219.828 90.949 220.906 92.0549C225.794 95.004 228.453 94.2667 231.688 92.0549C232.406 90.949 230.034 88 226.297 88Z" fill="black"/>
<path d="M213 92.0549H220.906M220.906 92.0549C219.828 90.949 222.559 88 226.297 88C230.034 88 232.406 90.949 231.688 92.0549M220.906 92.0549C225.794 95.004 228.453 94.2667 231.688 92.0549M231.688 92.0549H236" stroke="white" stroke-width="3" stroke-linecap="round"/>
<path d="M196.16 141.81C188.51 138.117 185.376 126.799 184.373 119.897C184.313 119.481 183.798 119.313 183.506 119.616L181.166 122.041C181.061 122.15 181.01 122.295 181.029 122.444C181.916 129.214 186.041 142.882 195.818 146.215C196.133 146.323 196.453 146.083 196.453 145.751V142.27C196.453 142.073 196.337 141.895 196.16 141.81Z" fill="url(#paint0_linear_588482_219)"/>
<path d="M222.547 147.904H214.203C213.927 147.904 213.703 148.128 213.703 148.404V151.5C213.703 151.776 213.927 152 214.203 152H222.547C222.823 152 223.047 151.776 223.047 151.5V148.404C223.047 148.128 222.823 147.904 222.547 147.904Z" fill="url(#paint1_linear_588482_219)"/>
<path d="M249.962 119.131C247.973 132.968 239.957 145.272 235.507 147.313C235.21 147.45 234.906 147.213 234.906 146.886V142.166C234.906 142.026 234.961 141.897 235.063 141.801C238.291 138.747 244.99 130.008 247.667 117.839C247.749 117.465 248.202 117.309 248.491 117.559L249.794 118.684C249.923 118.795 249.986 118.963 249.962 119.131Z" fill="url(#paint2_linear_588482_219)"/>
<path d="M196.16 141.81C188.51 138.117 185.376 126.799 184.373 119.897C184.313 119.481 183.798 119.313 183.506 119.616L181.166 122.041C181.061 122.15 181.01 122.295 181.029 122.444C181.916 129.214 186.041 142.882 195.818 146.215C196.133 146.323 196.453 146.083 196.453 145.751V142.27C196.453 142.073 196.337 141.895 196.16 141.81Z" stroke="black"/>
<path d="M222.547 147.904H214.203C213.927 147.904 213.703 148.128 213.703 148.404V151.5C213.703 151.776 213.927 152 214.203 152H222.547C222.823 152 223.047 151.776 223.047 151.5V148.404C223.047 148.128 222.823 147.904 222.547 147.904Z" stroke="black"/>
<path d="M249.962 119.131C247.973 132.968 239.957 145.272 235.507 147.313C235.21 147.45 234.906 147.213 234.906 146.886V142.166C234.906 142.026 234.961 141.897 235.063 141.801C238.291 138.747 244.99 130.008 247.667 117.839C247.749 117.465 248.202 117.309 248.491 117.559L249.794 118.684C249.923 118.795 249.986 118.963 249.962 119.131Z" stroke="black"/>
<rect x="247" y="123" width="1" height="1" fill="#343434"/>
<rect x="245" y="129" width="1" height="2" fill="#343434"/>
<rect x="240" y="136" width="1" height="1" fill="#343434"/>
<rect x="236" y="143" width="1" height="1" fill="#343434"/>
<rect x="217" y="149" width="2" height="1" fill="#343434"/>
<rect x="215" y="149" width="2" height="1" fill="#343434"/>
<rect x="190" y="140" width="1" height="2" fill="#343434"/>
<rect x="187" y="134" width="1" height="2" fill="#343434"/>
<rect x="184" y="129" width="1" height="2" fill="#343434"/>
<rect x="182" y="124" width="2" height="1" fill="#343434"/>
<rect x="182" y="124" width="2" height="1" fill="#343434"/>
<ellipse cx="183" cy="124.5" rx="1" ry="0.5" fill="white"/>
<ellipse cx="184.5" cy="130" rx="0.5" ry="1" fill="white"/>
<ellipse cx="187.5" cy="135" rx="0.5" ry="1" fill="white"/>
<ellipse cx="190.5" cy="141" rx="0.5" ry="1" fill="white"/>
<ellipse cx="216" cy="149.5" rx="1" ry="0.5" fill="white"/>
<ellipse cx="218" cy="149.5" rx="1" ry="0.5" fill="white"/>
<circle cx="236.5" cy="143.5" r="0.5" fill="white"/>
<circle cx="240.5" cy="136.5" r="0.5" fill="white"/>
<ellipse cx="245.5" cy="130" rx="0.5" ry="1" fill="white"/>
<circle cx="247.5" cy="123.5" r="0.5" fill="white"/>
<path d="M182.714 154.578C170.638 153.782 164.293 152.743 162.019 152.18C161.693 152.1 161.366 152.337 161.356 152.672L161.007 165.151C161.003 165.305 161.069 165.453 161.207 165.522C162.627 166.239 169.666 167.955 184.419 167.999C184.723 168 184.962 167.731 184.92 167.431L183.181 155.008C183.149 154.773 182.951 154.593 182.714 154.578Z" fill="#E68768" stroke="black" stroke-width="2" stroke-linecap="round"/>
<path d="M182.106 158.313C172.504 158.597 164.923 157.643 161.938 157C161.611 156.929 161.299 157.183 161.311 157.518L161.384 159.706C161.391 159.927 161.538 160.116 161.753 160.166C164.521 160.806 172.481 161.835 182.388 161.549C182.68 161.541 182.903 161.285 182.87 160.996L182.622 158.759C182.593 158.499 182.367 158.306 182.106 158.313Z" fill="#F8D9B2" stroke="black" stroke-linecap="round"/>
<path d="M164 158V160.4M166.298 158V160.8M168.596 158V161.2M170.894 158.4V161.2M173.957 158.4V161.6M177.021 158.8V162M179.319 158.8V162M182 158.8V162" stroke="black" stroke-linecap="round"/>
<path d="M181 168V171M183 168.25V171" stroke="black" stroke-width="1.5" stroke-linecap="round"/>
<path d="M160.54 169.001L148.488 168.031C148.262 168.013 148.052 168.148 147.981 168.363C147.593 169.527 147 171.604 147 172.846C147 174.175 155.6 176.036 160.417 176.897C160.723 176.952 161 176.716 161 176.406V169.5C161 169.239 160.8 169.022 160.54 169.001Z" fill="black" stroke="black" stroke-width="1.5" stroke-linecap="round"/>
<path d="M236 165C240.474 163.889 249.737 158.333 251 145" stroke="black" stroke-width="2" stroke-linecap="round"/>
<path d="M249 152C252.974 152 262.337 151.615 268 147" stroke="black" stroke-width="2" stroke-linecap="round"/>
<path d="M270.462 161.815C264.922 165.679 253.306 167.481 249.204 166.89C249.022 166.863 248.878 166.733 248.827 166.557C247.936 163.515 247.086 156.85 250.152 152.025C250.25 151.871 250.426 151.788 250.609 151.799C253.464 151.972 260.399 151.278 267.851 147.181C268.044 147.075 268.287 147.103 268.436 147.266C271.463 150.584 271.208 157.953 270.66 161.496C270.64 161.627 270.571 161.74 270.462 161.815Z" fill="#E68768" stroke="black" stroke-width="2" stroke-linecap="round"/>
<path d="M268.711 152.294C261.294 155.978 253.037 157.707 248.141 157.48C247.892 157.469 247.669 157.636 247.616 157.879L247.102 160.257C247.045 160.519 247.204 160.781 247.468 160.83C253.178 161.903 264.7 157.619 269.634 155.436C269.85 155.341 269.964 155.108 269.915 154.877L269.43 152.637C269.361 152.315 269.005 152.148 268.711 152.294Z" fill="#F8D9B2" stroke="black" stroke-linecap="round"/>
<path d="M248 161.942C253.049 162.405 262.066 160.091 270 155" stroke="black" stroke-linecap="round"/>
<path d="M249 157.087L249.717 161M250.792 157.087L251.868 161M252.943 157.087L253.66 161M255.811 156.696L256.17 160.217M257.962 155.913V159.826M260.472 155.13V159.043M262.981 154.348V158.261M265.132 153.565V157.478M268 152V156.304" stroke="black"/>
<path d="M175 358C177.98 359.555 186.176 360.332 194 359.866" stroke="black"/>
<path d="M192.955 359.459C186.472 359.683 179.906 359.273 176.406 358.428C175.719 358.262 175 358.766 175 359.472V359.801C175 360.211 175.249 360.583 175.641 360.702C178.89 361.689 186.026 362.185 193.045 361.936C193.579 361.917 194 361.477 194 360.942V360.464C194 359.894 193.524 359.439 192.955 359.459Z" fill="white" stroke="black"/>
<path d="M175 375C177.111 377.363 186.611 378.545 194 377.757" stroke="black"/>
<path d="M192.901 375.665C186.944 376.103 179.969 375.427 176.599 373.994C175.967 373.726 175 374.21 175 374.897C175 375.093 175.073 375.285 175.225 375.411C177.612 377.389 186.1 378.399 193.099 377.853C193.611 377.813 194 377.382 194 376.868V376.675C194 376.083 193.491 375.622 192.901 375.665Z" fill="white" stroke="black"/>
<path d="M255.308 363.086C246.446 363.666 238.569 362.604 235.738 362L235 363.811L237.954 370.691L242.385 378.658C255.086 379.527 258.754 378.537 259 377.934L255.308 363.086Z" fill="black" stroke="black" stroke-width="0.1"/>
<path d="M253.997 361.742C247.993 361.974 241.001 362.024 237.243 361.447C236.268 361.298 235.242 361.958 235.131 362.938C235.054 363.62 235.446 364.264 236.118 364.398C239.665 365.105 247.665 365.089 254.135 364.857C255.108 364.822 255.803 363.91 255.588 362.961C255.421 362.224 254.752 361.712 253.997 361.742Z" fill="white" stroke="black"/>
<path d="M194 361.741C191.077 362.926 180.359 361.987 175.365 361L175 373.59C180.262 376.257 189.859 376.182 194 375.812V361.741Z" fill="black" stroke="black" stroke-width="0.1"/>
<path d="M258.225 377.427C253.505 377.946 248.194 377.832 244.528 377.526C243.095 377.407 241.955 378.914 242.55 380.223C242.789 380.749 243.268 381.132 243.841 381.204C246.99 381.599 251.835 381.321 258.691 380.133C259.155 380.053 259.541 379.732 259.708 379.292C260.075 378.325 259.254 377.313 258.225 377.427Z" fill="white" stroke="black"/>
<defs>
<linearGradient id="paint0_linear_588482_219" x1="215.5" y1="117" x2="215.5" y2="152" gradientUnits="userSpaceOnUse">
<stop stop-color="#0F0D0D"/>
<stop offset="1" stop-color="#756666"/>
</linearGradient>
<linearGradient id="paint1_linear_588482_219" x1="215.5" y1="117" x2="215.5" y2="152" gradientUnits="userSpaceOnUse">
<stop stop-color="#0F0D0D"/>
<stop offset="1" stop-color="#756666"/>
</linearGradient>
<linearGradient id="paint2_linear_588482_219" x1="215.5" y1="117" x2="215.5" y2="152" gradientUnits="userSpaceOnUse">
<stop stop-color="#0F0D0D"/>
<stop offset="1" stop-color="#756666"/>
</linearGradient>
</defs>
</svg>
