<svg width="596" height="1055" viewBox="0 0 596 1055" fill="none" xmlns="http://www.w3.org/2000/svg">
<path d="M187 271H216" stroke="black" stroke-width="4"/>
<path d="M45.4988 671.756C27.045 655.921 27.4561 635.213 30.7372 622.641C31.2458 620.693 33.6068 620.977 33.8117 622.981C34.5981 630.668 35.4084 640.451 36 644C36.7768 648.661 48.6167 664.385 55.406 672.312C55.7826 672.751 56.3324 673 56.9113 673H61.0079C61.633 673 62.2221 672.708 62.6003 672.21L79.9965 649.32C80.5785 648.555 81.7757 648.397 82.5591 647.839C84.4597 646.486 86.0089 641.238 88.3061 638.447C89.0658 637.524 90.3686 637.995 90.5028 639.183C91.5891 648.8 80.0214 663.269 73.097 671.397C71.9479 672.746 72.9837 674.778 74.7451 674.585C79.3173 674.083 82.8257 673.383 85.3548 672.703C87.0935 672.235 89.1741 674.053 88.7039 675.791L84.5273 691.228C84.2369 692.301 83.1267 692.932 82.0561 692.631L64.6513 687.744C63.3428 687.377 62.0569 688.394 62.1123 689.752L63.9361 734.435C63.9736 735.354 63.3646 736.186 62.4781 736.433C39.0549 742.943 35.6944 736.917 37 733C48.4809 704.298 49.0205 691.686 47.5665 687.948C47.3149 687.301 46.5887 687.098 45.9133 687.258L21 693.177C18.6286 693.401 18 691.886 18 691V668C18 664.989 20.3606 664.693 21.7503 664.946C21.9173 664.977 22.0799 665.044 22.2291 665.125C35.4045 672.287 42.2476 673.88 45.2326 673.657C46.3098 673.576 46.3186 672.46 45.4988 671.756Z" fill="black"/>
<path d="M22 693C21.6365 693.091 21.3039 693.148 21 693.177M21 693.177C18.6286 693.401 18 691.886 18 691C18 684.667 18 671.2 18 668C18 664.989 20.3606 664.693 21.7503 664.946C21.9173 664.977 22.0799 665.044 22.2291 665.125C35.4045 672.287 42.2476 673.88 45.2326 673.657C46.3098 673.576 46.3186 672.46 45.4988 671.756C27.045 655.921 27.4561 635.213 30.7372 622.641C31.2458 620.693 33.6068 620.977 33.8117 622.981C34.5981 630.668 35.4084 640.451 36 644C36.7768 648.661 48.6167 664.385 55.406 672.312C55.7826 672.751 56.3324 673 56.9113 673H61.0079C61.633 673 62.2221 672.708 62.6003 672.21L79.9965 649.32C80.5785 648.555 81.7757 648.397 82.5591 647.839C84.4597 646.486 86.0089 641.238 88.3061 638.447C89.0658 637.524 90.3686 637.995 90.5028 639.183C91.5891 648.8 80.0214 663.269 73.097 671.397C71.9479 672.746 72.9837 674.778 74.7451 674.585C79.3173 674.083 82.8257 673.383 85.3548 672.703C87.0935 672.235 89.1741 674.053 88.7039 675.791L84.5273 691.228C84.2369 692.301 83.1267 692.932 82.0561 692.631L64.6513 687.744C63.3428 687.377 62.0569 688.394 62.1123 689.752L63.9361 734.435C63.9736 735.354 63.3646 736.186 62.4781 736.433C39.0549 742.943 35.6944 736.917 37 733C48.4809 704.298 49.0205 691.686 47.5665 687.948C47.3149 687.301 46.5887 687.098 45.9133 687.258L21 693.177Z" stroke="black" stroke-width="0.2"/>
<path d="M271.551 783.664L262.784 771C259.184 765.8 249.951 764.833 245.785 765H195.785C194.681 765 193.785 765.895 193.785 767V770.441C193.785 770.807 193.885 771.165 194.075 771.478L213.494 803.522C213.684 803.835 213.784 804.193 213.784 804.559V839.834C213.784 839.945 213.777 840.037 213.762 840.146C212.477 849.956 237.692 905.591 250.905 934.102C251.387 935.143 250.843 936.329 249.998 937.104C247.817 939.105 247.964 942.36 248.784 944L273.573 993.578C273.712 993.855 273.784 994.162 273.784 994.472V1009.61C273.784 1009.87 273.731 1010.13 273.638 1010.37C261.077 1042.05 273.147 1048.66 280.784 1048H303.696C304.374 1048 305.003 1047.65 305.405 1047.1C314.3 1035 332.601 1042.18 341.289 1047.68C341.617 1047.89 341.991 1048 342.38 1048H395.538C395.701 1048 395.872 1047.98 396.03 1047.94C414.311 1043.28 409.452 1034.58 404.309 1030.41C403.973 1030.14 403.55 1030 403.117 1030H379.413C379.003 1030 378.604 1029.87 378.268 1029.64L316.397 986.429C316.002 986.152 315.719 985.742 315.602 985.274L301.784 930L271.866 784.4C271.812 784.136 271.705 783.886 271.551 783.664Z" fill="#A7482C"/>
<path d="M157.785 815C161.046 806.031 165.341 793.004 166.733 787.22C166.769 787.07 166.785 786.922 166.785 786.768V766.968C166.785 765.876 165.909 764.986 164.817 764.968L104.785 764H98.7852C97.6806 764 96.7852 764.895 96.7852 766V770.528C96.7852 770.838 96.7129 771.145 96.574 771.422L90.7853 783C82.7852 805 82.7852 814 81.7852 827V982C82.7852 989.333 84.7852 1009 84.7852 1029C84.7852 1048.51 103.189 1049.94 113.063 1048.14C113.533 1048.05 113.953 1047.78 114.253 1047.41C127.16 1031.34 140.382 1041.19 145.217 1047.25C145.59 1047.72 146.131 1048.02 146.727 1048.06L192.785 1051C217.785 1054 224.785 1033 215.785 1033H202.476C202.028 1033 201.594 1032.85 201.242 1032.57L137.551 982.601C137.067 982.221 136.785 981.641 136.785 981.027V930C141.785 866 153.785 826 157.785 815Z" fill="#A7482C"/>
<path d="M271.551 783.664L262.784 771C259.184 765.8 249.951 764.833 245.785 765H195.785C194.681 765 193.785 765.895 193.785 767V770.441C193.785 770.807 193.885 771.165 194.075 771.478L213.494 803.522C213.684 803.835 213.784 804.193 213.784 804.559V839.834C213.784 839.945 213.777 840.037 213.762 840.146C212.477 849.956 237.692 905.591 250.905 934.102C251.387 935.143 250.843 936.329 249.998 937.104C247.817 939.105 247.964 942.36 248.784 944L273.573 993.578C273.712 993.855 273.784 994.162 273.784 994.472V1009.61C273.784 1009.87 273.731 1010.13 273.638 1010.37C261.077 1042.05 273.147 1048.66 280.784 1048H303.696C304.374 1048 305.003 1047.65 305.405 1047.1C314.3 1035 332.601 1042.18 341.289 1047.68C341.617 1047.89 341.991 1048 342.38 1048H395.538C395.701 1048 395.872 1047.98 396.03 1047.94C414.311 1043.28 409.452 1034.58 404.309 1030.41C403.973 1030.14 403.55 1030 403.117 1030H379.413C379.003 1030 378.604 1029.87 378.268 1029.64L316.397 986.429C316.002 986.152 315.719 985.742 315.602 985.274L301.784 930L271.866 784.4C271.812 784.136 271.705 783.886 271.551 783.664Z" stroke="black" stroke-width="6"/>
<path d="M157.785 815C161.046 806.031 165.341 793.004 166.733 787.22C166.769 787.07 166.785 786.922 166.785 786.768V766.968C166.785 765.876 165.909 764.986 164.817 764.968L104.785 764H98.7852C97.6806 764 96.7852 764.895 96.7852 766V770.528C96.7852 770.838 96.7129 771.145 96.574 771.422L90.7853 783C82.7852 805 82.7852 814 81.7852 827V982C82.7852 989.333 84.7852 1009 84.7852 1029C84.7852 1048.51 103.189 1049.94 113.063 1048.14C113.533 1048.05 113.953 1047.78 114.253 1047.41C127.16 1031.34 140.382 1041.19 145.217 1047.25C145.59 1047.72 146.131 1048.02 146.727 1048.06L192.785 1051C217.785 1054 224.785 1033 215.785 1033H202.476C202.028 1033 201.594 1032.85 201.242 1032.57L137.551 982.601C137.067 982.221 136.785 981.641 136.785 981.027V930C141.785 866 153.785 826 157.785 815Z" stroke="black" stroke-width="6"/>
<path d="M76.7885 742C72.7913 763 78.7683 765 93.7651 764L267.788 766C276.718 766 276.477 766.509 278.785 764C283.713 758.642 282.466 747.129 281.785 741L261 568.752C260.879 567.751 261.517 566.789 262.415 566.33C264.399 565.314 267.681 563.107 271.788 559C277.388 553.4 274.122 543.333 271.788 539L256.024 509.441C255.869 509.152 255.788 508.828 255.788 508.5V476.329C255.788 476.111 255.824 475.895 255.894 475.688L278.788 408C282.455 424.333 289.788 459.8 289.788 471C289.788 482.2 302.455 492.333 308.788 496L416.788 562L460.255 594.6C460.601 594.86 461.022 595 461.455 595H482.788H495.788C509.788 595 505.788 548 505.788 539C505.788 531.928 491.639 530.709 484.187 530.984C483.921 530.993 483.66 530.953 483.41 530.86L465.123 524.123C464.902 524.042 464.668 524 464.432 524H448.519C448.047 524 447.591 523.833 447.23 523.529L352.418 443.531C352.015 443.191 351.762 442.705 351.715 442.18L346.81 387.242C346.796 387.081 346.8 386.926 346.824 386.766C348.712 374.008 346.841 346.488 338.494 338.607C338.064 338.2 337.777 337.645 337.749 337.054C335.249 282.743 288.765 260.562 284.788 259C263.22 250.527 255.991 252.499 254.889 254.74C254.807 254.907 254.791 255.098 254.782 255.283C254.559 259.998 248.788 259.904 248.788 255V237.288C248.788 236.504 249.231 235.793 249.967 235.523C260.889 231.513 301.246 225.563 320.788 223C327.327 222.143 332.532 205.188 333.785 199C335.54 190.33 334.846 184.167 329.788 183L221.788 160C208.188 157.6 205.788 113 205.788 92V40.292C205.788 38.5926 203.817 37.696 202.593 38.8748C180.701 59.9588 179.788 91.0445 179.788 92C179.788 96 170.788 96 170.788 92L170.788 40.5864C170.788 38.8401 168.731 37.9571 167.524 39.2188C136.805 71.3214 123.792 137.208 120.92 169.419C120.837 170.357 120.109 171.087 119.177 171.224C82.134 176.683 59.5001 200.468 36.7877 233C0.0789371 285.579 2.0441 367.47 3.74866 413.893C3.77434 414.592 4.15442 415.209 4.78409 415.515C12.2624 419.144 29.6871 422.94 39.1475 424.7C40.1001 424.878 40.7895 425.706 40.7895 426.674V466L34.8068 530.82C34.7958 530.94 34.7955 531.06 34.8061 531.18L40.7488 598.53C40.776 598.839 40.7282 599.157 40.6153 599.446C30.5991 625.075 32.3993 638.203 34.6639 641.809C34.7468 641.941 34.8446 642.05 34.9636 642.15C38.176 644.861 48.5146 650 65.7902 650C83.3902 650 85.1236 644.667 83.7902 642L82.1152 638.859C81.0332 636.831 83.6683 634.878 85.2941 636.504L87.362 638.572C87.6412 638.851 87.9958 639.047 88.3869 639.101C93.3104 639.788 99.3193 636.909 87.7902 620C75.8728 602.521 82.6948 569.13 87.6868 554.305C87.7568 554.097 87.7902 553.888 87.7902 553.668V531L87.8064 518.236C88.5659 481.468 86.8592 429 96.7902 429H113.308C114.189 429 114.965 429.576 115.222 430.418L121.79 452C123.764 457.922 121.842 460.921 120.83 465.805C120.803 465.934 120.79 466.066 120.79 466.198V496.379C120.79 496.783 120.664 497.183 120.437 497.518C112.729 508.945 111.9 517.429 112.562 521.079C112.669 521.672 112.6 522.294 112.287 522.808C107.106 531.298 105.79 539.092 105.79 542C104.99 589.2 99.4569 625 96.7902 637L76.7885 742Z" fill="#A7482C"/>
<path d="M87.7902 519C87.7957 518.746 87.8011 518.491 87.8064 518.236M87.8064 518.236C88.5659 481.468 86.8592 429 96.7902 429H113.308C114.189 429 114.965 429.576 115.222 430.418L121.79 452C123.764 457.921 121.842 460.921 120.83 465.805C120.803 465.934 120.79 466.066 120.79 466.198V496.379C120.79 496.783 120.664 497.183 120.437 497.518C112.729 508.945 111.9 517.429 112.562 521.079C112.669 521.672 112.6 522.294 112.287 522.808C107.106 531.298 105.79 539.092 105.79 542C104.99 589.2 99.4569 625 96.7902 637L76.7885 742C72.7913 763 78.7683 765 93.7651 764L267.788 766C276.718 766 276.477 766.509 278.785 764C283.713 758.642 282.466 747.129 281.785 741L261 568.752C260.879 567.751 261.517 566.789 262.415 566.33C264.399 565.314 267.681 563.107 271.788 559C277.388 553.4 274.122 543.333 271.788 539L256.024 509.441C255.869 509.152 255.788 508.828 255.788 508.5V476.329C255.788 476.111 255.824 475.895 255.894 475.688L278.788 408M87.8064 518.236L87.7902 531V553.668C87.7902 553.888 87.7568 554.097 87.6868 554.305C82.6948 569.13 75.8728 602.521 87.7902 620C99.3193 636.909 93.3104 639.788 88.3869 639.101C87.9958 639.047 87.6412 638.851 87.362 638.572L85.2941 636.504C83.6683 634.878 81.0332 636.831 82.1152 638.859L83.7902 642C85.1236 644.667 83.3902 650 65.7902 650C48.5146 650 38.176 644.861 34.9636 642.15C34.8446 642.05 34.7468 641.941 34.6639 641.809C32.3993 638.203 30.5992 625.075 40.6153 599.446C40.7282 599.157 40.776 598.839 40.7488 598.53L34.8061 531.18C34.7955 531.06 34.7958 530.94 34.8068 530.82L40.7895 466V426.674C40.7895 425.706 40.1001 424.878 39.1475 424.7C29.6871 422.94 12.2624 419.144 4.78409 415.515C4.15442 415.209 3.77434 414.592 3.74866 413.893C2.0441 367.47 0.078937 285.58 36.7877 233C59.5001 200.468 82.134 176.683 119.177 171.224C120.109 171.087 120.837 170.357 120.92 169.419C123.792 137.208 136.805 71.3214 167.524 39.2188C168.731 37.9571 170.788 38.8401 170.788 40.5864L170.788 92C170.788 96 179.788 96 179.788 92C179.788 91.0445 180.701 59.9588 202.593 38.8748C203.817 37.696 205.788 38.5926 205.788 40.292V92C205.788 113 208.188 157.6 221.788 160L329.788 183C334.846 184.167 335.54 190.33 333.785 199C332.532 205.188 327.327 222.143 320.788 223C301.246 225.563 260.889 231.513 249.967 235.523C249.231 235.793 248.788 236.504 248.788 237.288V255C248.788 259.904 254.559 259.998 254.782 255.283C254.791 255.098 254.807 254.907 254.889 254.74C255.991 252.499 263.22 250.527 284.788 259C288.765 260.562 335.249 282.743 337.749 337.054C337.777 337.645 338.064 338.2 338.494 338.607C346.841 346.488 348.712 374.008 346.824 386.766C346.8 386.926 346.796 387.081 346.81 387.242L351.715 442.18C351.762 442.705 352.015 443.191 352.418 443.531L447.23 523.529C447.591 523.833 448.047 524 448.519 524H464.432C464.668 524 464.902 524.042 465.123 524.123L483.41 530.86C483.66 530.953 483.921 530.993 484.187 530.984C491.639 530.709 505.788 531.928 505.788 539C505.788 548 509.788 595 495.788 595C484.588 595 482.455 595 482.788 595H461.455C461.022 595 460.601 594.86 460.255 594.6L416.788 562L308.788 496C302.455 492.333 289.788 482.2 289.788 471C289.788 459.8 282.455 424.333 278.788 408M278.788 408C281.192 395.333 285 368.8 281 364" stroke="black" stroke-width="6"/>
<path d="M97 398L107 397L110 407H97V398Z" fill="white"/>
<path d="M93 409V428.873C93 429.472 93.5239 429.937 94.1191 429.866L116.783 427.146C117.411 427.071 117.813 426.438 117.612 425.837L112.228 409.684C112.092 409.275 111.71 409 111.279 409H93Z" fill="black"/>
<path d="M93 409V428.873C93 429.472 93.5239 429.937 94.1191 429.866L116.783 427.146C117.411 427.071 117.813 426.438 117.612 425.837L112.228 409.684C112.092 409.275 111.71 409 111.279 409H93ZM93 409V398" stroke="black" stroke-width="4" stroke-linecap="round"/>
<path d="M132.998 462C119.998 433 90.997 365 105.998 341M112 350C111 363.667 119.4 390.8 161 390" stroke="black" stroke-width="4" stroke-linecap="round"/>
<path d="M121 439L128 460" stroke="black" stroke-width="4" stroke-linecap="round"/>
<path d="M220 240L216 271H201.5H187V222C181.4 209.2 160 208.667 150 210L121 172V166C135.4 75.6 159.667 43.6667 170 39L171 91C171 95 180 95 180 91C180.8 65.4 195.667 45.6667 203 39L206 42C203.6 135.6 213.667 159 219 159C248 165.333 310.2 178.8 327 182C343.8 185.2 331.333 210 323 222C301 226 255.8 234.2 251 235C246.2 235.8 244.333 234.667 244 234C228 234.8 221.333 238.333 220 240Z" fill="#182067" stroke="black"/>
<path d="M139.807 251.999C123.231 256 104.807 257.999 89.8067 271.999C77.4401 277.119 64.4364 278.42 56.8066 288.999C35.1673 319.004 37.8066 388.999 40.8066 402.999C27.7852 402 17.7852 400 11.7807 400C0.785156 383 13.1792 349.584 14.8066 311C26.8066 229 56.8067 200 113.807 180C125.807 175 130.807 181.999 148.807 210.999C145.807 223.999 143.854 238.508 139.807 251.999Z" fill="white"/>
<path d="M5.78516 400C7.22013 400.053 8.9195 400.12 10.7852 400.198M39.7852 402C36.2522 401.495 27.2267 400.964 18.7852 400.557M18.7852 400.557C15.9796 400.422 13.2386 400.3 10.7852 400.198M18.7852 400.557C18.1185 381.038 14.7852 330 21.7852 294M10.7852 400.198C9.45182 381.132 9.78516 330 18.7852 301M28.7852 401.094C29.7852 368.06 22.7852 265 65.7852 212M43.7852 323C40.7905 293.719 48.5571 224.45 111.445 181.233C111.667 181.081 111.921 180.973 112.185 180.92L126.785 178M57.7852 288C63.1185 257.667 83.7852 194.2 127.785 183M69.7852 278C72.7852 255.667 88.7852 206.2 132.785 187M82.7852 273C86.7852 252.667 102.785 207.8 134.785 191M93.7852 267C94.4518 253 104.185 218.8 137.785 194M132.785 256C133.452 248.333 137.385 229.8 147.785 217M123.785 256C124.785 248 130.985 226.8 147.785 206M112.785 258C115.452 245 125.385 215.8 143.785 203M140.785 197C130.452 205.333 108.985 229.6 105.785 260" stroke="black" stroke-width="3" stroke-linecap="round"/>
<path d="M118.785 175C95.7852 178.333 44.7852 204 18.7852 290L15.7852 300" stroke="black" stroke-width="12" stroke-linecap="round"/>
<path d="M13.7857 295C7.78516 318 3.58646 380.6 6.78646 399" stroke="black" stroke-width="10"/>
<path d="M245.785 236V371.892C245.785 383.211 213.785 382.182 213.785 371.892C213.785 292.064 217.546 251.586 219.598 240.135C219.71 239.51 220.123 238.983 220.71 238.742C221.962 238.228 223.699 237.62 225.785 237.014C227.561 236.499 229.589 235.984 231.785 235.53C233.067 235.265 234.406 235.02 235.785 234.808C237.087 234.608 239.425 234.436 240.785 234.304C241.994 234.185 242.843 234.098 243.786 234.048C244.889 233.989 245.785 234.895 245.785 236Z" fill="white"/>
<path d="M245.785 371.892V236C245.785 234.895 244.889 233.989 243.786 234.048C242.843 234.098 241.994 234.185 240.785 234.304M245.785 371.892C245.785 383.211 213.785 382.182 213.785 371.892M245.785 371.892H239.785M213.785 371.892C213.785 292.064 217.546 251.586 219.598 240.135C219.71 239.51 220.123 238.983 220.71 238.742C221.962 238.228 223.699 237.62 225.785 237.014M213.785 371.892H219.785M239.785 371.892L240.785 234.304M239.785 371.892H231.785M240.785 234.304C239.425 234.436 237.087 234.608 235.785 234.808M231.785 371.892L235.785 234.808M231.785 371.892H225.785M235.785 234.808C234.406 235.02 233.067 235.265 231.785 235.53M225.785 371.892C226.452 326.948 228.585 236.754 231.785 235.53M225.785 371.892H219.785M231.785 235.53C229.589 235.984 227.561 236.499 225.785 237.014M219.785 371.892C220.452 327.281 222.585 237.85 225.785 237.014" stroke="black" stroke-width="3" stroke-linecap="round"/>
<path d="M187.78 226L185.78 365C185.78 385 139.78 384 139.78 365C139.779 338.157 137.981 292.932 140.785 257C142.747 246.702 143.785 238 145.785 229C147.517 221.208 145.875 227.645 150.404 211.355C150.628 210.547 151.336 209.952 152.173 209.902C154.722 209.751 157.682 209.719 160.785 209.882C162.425 209.969 164.105 210.11 165.785 210.317C167.807 210.566 169.83 210.911 171.785 211.371C174.674 212.051 177.415 212.983 179.785 214.23C184.523 216.723 187.78 220.477 187.78 226Z" fill="white"/>
<path d="M185.78 365L187.78 226C187.78 220.477 184.523 216.723 179.785 214.23M185.78 365C185.78 385 139.78 384 139.78 365M185.78 365H176.785M139.78 365C139.779 338.157 137.981 292.932 140.785 257C142.747 246.702 143.785 238 145.785 229C147.517 221.208 145.875 227.645 150.404 211.355C150.628 210.547 151.336 209.952 152.173 209.902C154.722 209.751 157.682 209.719 160.785 209.882M139.78 365H147.785M179.785 214.23L176.785 365M179.785 214.23C177.415 212.983 174.674 212.051 171.785 211.371M176.785 365H166.785M171.785 211.371L166.785 365M171.785 211.371C168.206 210.529 164.398 210.073 160.785 209.882M166.785 365H157.785M165.785 210.317C163.118 224.65 157.785 275.4 157.785 365M157.785 365H147.785M160.785 209.882C157.452 214.921 147.785 246 147.785 365" stroke="black" stroke-width="3" stroke-linecap="round"/>
<path d="M76.2084 755.161C80.1616 721.288 93.3184 653.412 101.785 608C103.785 594 107.585 561.6 106.785 544C105.985 526.4 122.785 521.333 128.785 521L253.018 518.088C255.134 518.039 256.922 519.646 257.098 521.755L260.785 566C269.784 630.387 286.529 741.658 279.652 762.999C279.23 764.31 277.922 765.025 276.545 765.012C227.402 764.553 214.696 716.609 208.785 692.457C180.966 735.491 134.924 765.259 79.646 759.461C77.496 759.236 75.9578 757.309 76.2084 755.161Z" fill="#E8CEAA"/>
<path d="M260.785 566L257.098 521.755C256.922 519.646 255.134 518.039 253.018 518.088L128.785 521C122.785 521.333 105.985 526.4 106.785 544C107.585 561.6 103.785 594 101.785 608C93.3184 653.412 80.1616 721.288 76.2084 755.161C75.9578 757.309 77.496 759.236 79.646 759.461C134.924 765.259 180.966 735.491 208.785 692.457M260.785 566C255.546 598.251 236.257 649.96 208.785 692.457M260.785 566C269.784 630.387 286.529 741.658 279.652 762.999C279.23 764.31 277.922 765.025 276.545 765.012C227.402 764.553 214.696 716.609 208.785 692.457" stroke="black" stroke-width="6"/>
<path d="M480.785 832.001C480.785 843.001 464.785 843.001 464.785 832.001V254C464.785 249.582 468.367 246 472.785 246C477.203 246 480.785 249.582 480.785 254V832.001Z" fill="#8EE6DA" stroke="black" stroke-width="6"/>
<path d="M447.498 152.889C472.781 152.889 471.785 176 465.785 184C459.845 191.92 460.463 189.983 455.785 192H522.359C522.689 192 523.025 191.913 523.313 191.754C545.216 179.635 533.715 158.277 523.251 153.075C522.993 152.947 522.712 152.889 522.423 152.889H447.498Z" fill="#FDE9D5" fill-opacity="0.4"/>
<path d="M415.893 116.222C403.818 108.128 386.946 85.7227 415.317 60.5066C415.679 60.1856 416.159 60 416.642 60H520.861C521.966 60 522.861 60.8954 522.861 62V138.222M415.893 86.8889H423.618C424.722 86.8889 425.618 87.7843 425.618 88.8889V184C425.618 193.778 441.936 192 455.785 192M447.498 152.889C472.781 152.889 471.785 176 465.785 184C459.845 191.92 460.463 189.983 455.785 192M447.498 152.889C438.683 152.889 441.663 162.178 447.498 170M447.498 152.889H522.423C522.712 152.889 522.993 152.947 523.251 153.075C533.715 158.277 545.216 179.635 523.313 191.754C523.025 191.913 522.689 192 522.359 192H455.785M447.498 86.8889H498.55M447.498 106.444H508.275M447.498 128.444H498.55" stroke="#F4C699" stroke-width="4" stroke-linecap="round" stroke-linejoin="round"/>
<circle cx="473.785" cy="122" r="121" fill="white" fill-opacity="0.3" stroke="#8EE6D8" stroke-width="2"/>
<circle cx="473.785" cy="122" r="121" fill="#8EE6D8" fill-opacity="0.3" stroke="#8EE6D8" stroke-width="2"/>
<path d="M383.785 68.9993C399.704 41.351 411.411 29.1457 434.785 20.6211" stroke="#8EE6D8" stroke-width="2" stroke-linecap="round"/>
<path d="M450.984 16L441 19" stroke="#8EE6D8" stroke-width="2" stroke-linecap="round"/>
<path d="M251.033 478.808C179.236 473.749 142.179 466.858 127.618 460.468C125.228 459.418 121.784 461.209 121.784 463.82L121.784 494.658C121.784 496.034 120.884 497.443 120.117 498.586C115.962 504.775 110.289 526.497 113.786 523C116.915 519.87 205.431 516.167 251.73 516.005C253.418 516 254.747 514.607 254.701 512.919L253.858 481.724C253.816 480.179 252.575 478.917 251.033 478.808Z" fill="#FCEBD8" stroke="black" stroke-width="6"/>
<path d="M255.785 512C259.785 521 292.785 556 260.785 566L255.785 512Z" fill="#FCEBD8" stroke="black" stroke-width="6"/>
<path d="M141.922 168H161.349C162.61 168 163.556 166.847 163.311 165.611L159.785 147.851L157.118 120.985V90.4118C157.118 88.1405 153.933 87.6272 153.22 89.7836L150.452 98.1493L146.452 111.582L143.785 123.672L141.118 147.851L139.926 165.868C139.85 167.022 140.765 168 141.922 168Z" fill="#2F388E"/>
<path d="M141.922 168H161.349C162.61 168 163.556 166.847 163.311 165.611L159.785 147.851L157.118 120.985V90.4118C157.118 88.1405 153.933 87.6272 153.22 89.7836L150.452 98.1493L146.452 111.582L143.785 123.672L141.118 147.851L139.926 165.868C139.85 167.022 140.765 168 141.922 168Z" stroke="black"/>
<path d="M40.7829 425C40.7831 351.546 33.4918 278.093 90.5 273.1C91.265 273.033 91.9534 272.546 92.2812 271.852C94.848 266.415 103.041 255.846 137.994 254.082C139.003 254.031 139.844 253.252 139.948 252.247C141.293 239.334 146.674 215.111 152.785 209" stroke="black" stroke-width="6"/>
<path d="M152.785 213L119 169" stroke="black" stroke-width="6"/>
<path d="M224.785 176C214.385 176 206.785 184 209.785 187C223.385 195 230.785 193 239.785 187C241.785 184 235.185 176 224.785 176Z" fill="black"/>
<path d="M187.785 187H209.785M209.785 187C206.785 184 214.385 176 224.785 176C235.185 176 241.785 184 239.785 187M209.785 187C223.385 195 230.785 193 239.785 187M239.785 187H251.785" stroke="white" stroke-width="6" stroke-linecap="round"/>
<path d="M138.4 324.732C116.659 314.783 107.944 283.532 105.274 265.015C105.155 264.193 104.146 263.854 103.558 264.442L96.3468 271.653C96.1281 271.872 96.0209 272.168 96.0619 272.474C98.5004 290.716 110.093 327.937 137.733 336.625C138.364 336.823 139 336.346 139 335.684V325.656C139 325.258 138.762 324.898 138.4 324.732Z" fill="url(#paint0_linear_173_2)"/>
<path d="M212 341H188C187.448 341 187 341.448 187 342V351C187 351.552 187.448 352 188 352H212C212.552 352 213 351.552 213 351V342C213 341.448 212.552 341 212 341Z" fill="url(#paint1_linear_173_2)"/>
<path d="M287.92 263.553C282.359 301.247 259.515 334.744 247.215 339.605C246.61 339.844 246 339.37 246 338.719V325.449C246 325.163 246.113 324.901 246.324 324.709C255.321 316.549 274.264 292.773 281.648 259.631C281.812 258.895 282.699 258.582 283.278 259.065L287.571 262.643C287.838 262.865 287.97 263.21 287.92 263.553Z" fill="url(#paint2_linear_173_2)"/>
<path d="M138.4 324.732C116.659 314.783 107.944 283.532 105.274 265.015C105.155 264.193 104.146 263.854 103.558 264.442L96.3468 271.653C96.1281 271.872 96.0209 272.168 96.0619 272.474C98.5004 290.716 110.093 327.937 137.733 336.625C138.364 336.823 139 336.346 139 335.684V325.656C139 325.258 138.762 324.898 138.4 324.732Z" stroke="black" stroke-width="2"/>
<path d="M212 341H188C187.448 341 187 341.448 187 342V351C187 351.552 187.448 352 188 352H212C212.552 352 213 351.552 213 351V342C213 341.448 212.552 341 212 341Z" stroke="black" stroke-width="2"/>
<path d="M287.92 263.553C282.359 301.247 259.515 334.744 247.215 339.605C246.61 339.844 246 339.37 246 338.719V325.449C246 325.163 246.113 324.901 246.324 324.709C255.321 316.549 274.264 292.773 281.648 259.631C281.812 258.895 282.699 258.582 283.278 259.065L287.571 262.643C287.838 262.865 287.97 263.21 287.92 263.553Z" stroke="black" stroke-width="2"/>
<rect x="281" y="270" width="4" height="4" fill="#343434"/>
<rect x="273" y="290" width="4" height="4" fill="#343434"/>
<rect x="263" y="310" width="4" height="4" fill="#343434"/>
<rect x="251" y="326" width="4" height="4" fill="#343434"/>
<rect x="201" y="344" width="4" height="4" fill="#343434"/>
<rect x="193" y="344" width="4" height="4" fill="#343434"/>
<rect x="123" y="320" width="4" height="4" fill="#343434"/>
<rect x="113" y="306" width="4" height="4" fill="#343434"/>
<rect x="105" y="290" width="4" height="4" fill="#343434"/>
<rect x="101" y="274" width="4" height="4" fill="#343434"/>
<rect x="101" y="274" width="4" height="4" fill="#343434"/>
<circle cx="103" cy="276" r="2" fill="white"/>
<circle cx="107" cy="292" r="2" fill="white"/>
<circle cx="115" cy="308" r="2" fill="white"/>
<circle cx="125" cy="322" r="2" fill="white"/>
<circle cx="195" cy="346" r="2" fill="white"/>
<circle cx="203" cy="346" r="2" fill="white"/>
<circle cx="253" cy="328" r="2" fill="white"/>
<circle cx="265" cy="312" r="2" fill="white"/>
<circle cx="275" cy="292" r="2" fill="white"/>
<circle cx="283" cy="272" r="2" fill="white"/>
<path d="M100.176 359.946C66.9983 357.753 49.9694 354.862 44.2854 353.374C43.6363 353.204 42.9812 353.676 42.9626 354.347L42.0135 388.515C42.005 388.821 42.1273 389.111 42.3958 389.259C45.8078 391.139 64.6593 395.908 104.837 395.999C105.444 396 105.926 395.464 105.842 394.862L101.112 360.807C101.047 360.337 100.65 359.977 100.176 359.946Z" fill="#E68768" stroke="black" stroke-width="4" stroke-linecap="round"/>
<path d="M101.07 371.03C73.6066 371.87 52.0268 369.068 44.065 367.272C43.4115 367.125 42.7882 367.631 42.8106 368.3L43.0417 375.208C43.0564 375.65 43.3564 376.03 43.786 376.132C51.2626 377.915 73.8099 380.881 101.916 380.034C102.498 380.017 102.945 379.505 102.881 378.926L102.102 371.92C102.045 371.401 101.592 371.014 101.07 371.03Z" fill="#F8D9B2" stroke="black" stroke-width="2" stroke-linecap="round"/>
<path d="M51 370V376M57 370V377M63 370V378M69 371V378M77 371V379M85 372V380M91 372V380M98 372V380" stroke="black" stroke-width="2" stroke-linecap="round"/>
<path d="M96 396V408M103 397V408" stroke="black" stroke-width="3" stroke-linecap="round"/>
<path d="M40.0854 401.922L6.78495 399.067C6.32451 399.028 5.89718 399.306 5.75709 399.747C4.70874 403.042 3 409.303 3 413C3 416.879 26.8284 422.326 39.8205 424.78C40.4345 424.896 41 424.424 41 423.799V402.918C41 402.399 40.6027 401.966 40.0854 401.922Z" fill="black" stroke="black" stroke-width="3" stroke-linecap="round"/>
<path d="M253 387C264.333 384 287.8 369 291 333" stroke="black" stroke-width="4" stroke-linecap="round"/>
<path d="M287 353C297.667 353 322.8 352 338 340" stroke="black" stroke-width="4" stroke-linecap="round"/>
<path d="M345.656 380.233C329.774 390.889 296.074 395.82 284.568 394.094C284.207 394.04 283.929 393.791 283.819 393.443C281.238 385.228 278.677 366.738 287.672 353.474C287.871 353.179 288.21 353.02 288.565 353.043C296.579 353.577 316.738 351.752 338.37 340.335C338.746 340.136 339.211 340.189 339.511 340.49C348.438 349.448 347.66 369.921 346.068 379.592C346.024 379.858 345.88 380.083 345.656 380.233Z" fill="#E68768" stroke="black" stroke-width="4" stroke-linecap="round"/>
<path d="M342.852 354.567C321.578 364.956 297.749 369.784 283.854 369.053C283.359 369.027 282.92 369.358 282.813 369.842L281.211 377.049C281.094 377.578 281.409 378.105 281.94 378.211C298.052 381.446 331.376 369.331 345.261 363.322C345.699 363.132 345.925 362.664 345.822 362.198L344.278 355.25C344.137 354.615 343.436 354.282 342.852 354.567Z" fill="#F8D9B2" stroke="black" stroke-width="2" stroke-linecap="round"/>
<path d="M283 379C297 380 322 375 344 364" stroke="black" stroke-width="2" stroke-linecap="round"/>
<path d="M286 369L288 379M291 369L294 379M297 369L299 379M305 368L306 377M311 366V376M318 364V374M325 362V372M331 360V370M339 356V367" stroke="black" stroke-width="2"/>
<path d="M84 927C92 930.333 114 932 135 931" stroke="black" stroke-width="2"/>
<path d="M131.905 931.091C113.679 931.804 95.0767 930.543 85.8351 927.957C84.4607 927.573 83 928.573 83 930V932.667C83 933.474 83.4756 934.205 84.2398 934.466C92.8172 937.391 112.689 938.858 132.095 938.083C133.162 938.041 134 937.161 134 936.093V933.098C134 931.956 133.046 931.046 131.905 931.091Z" fill="white" stroke="black" stroke-width="2"/>
<path d="M81 974C87 980 114 983 135 981" stroke="black" stroke-width="2"/>
<path d="M132.81 975.189C115.408 976.538 94.6468 974.621 85.0847 970.516C83.4474 969.813 81 971.047 81 972.828V973.172C81 973.702 81.2045 974.219 81.619 974.55C88.4637 980.016 113.139 982.773 133.19 981.159C134.217 981.076 135 980.213 135 979.181V977.2C135 976.02 133.986 975.098 132.81 975.189Z" fill="white" stroke="black" stroke-width="2"/>
<path d="M304 940C280 941.6 258.667 938.667 251 937L249 942L257 961L269 983C303.4 985.4 313.333 982.667 314 981L304 940Z" fill="black" stroke="black" stroke-width="0.2"/>
<path d="M301.647 937.142C284.223 937.839 263.784 937.993 253.059 936.245C250.461 935.821 247.714 937.573 247.423 940.189L247.338 940.954C247.139 942.751 248.174 944.457 249.943 944.83C260.048 946.96 283.507 946.895 302.245 946.195C304.729 946.102 306.506 943.776 305.967 941.35L305.729 940.279C305.307 938.383 303.588 937.065 301.647 937.142Z" fill="white" stroke="black" stroke-width="2"/>
<path d="M135 937C127 940.2 97.6667 937.667 84 935L83 969C97.4 976.2 123.667 976 135 975V937Z" fill="black" stroke="black" stroke-width="0.2"/>
<path d="M312.567 980.881C298.629 982.416 282.841 981.965 272.632 980.998C269.406 980.692 266.848 984.065 268.189 987.016L269.141 989.11C269.68 990.295 270.756 991.154 272.046 991.33C280.796 992.522 294.426 991.783 313.863 988.415C315.154 988.192 316.228 987.299 316.694 986.073C317.716 983.382 315.429 980.566 312.567 980.881Z" fill="white" stroke="black" stroke-width="2"/>
<defs>
<linearGradient id="paint0_linear_173_2" x1="192" y1="258" x2="192" y2="352" gradientUnits="userSpaceOnUse">
<stop stop-color="#0F0D0D"/>
<stop offset="1" stop-color="#756666"/>
</linearGradient>
<linearGradient id="paint1_linear_173_2" x1="192" y1="258" x2="192" y2="352" gradientUnits="userSpaceOnUse">
<stop stop-color="#0F0D0D"/>
<stop offset="1" stop-color="#756666"/>
</linearGradient>
<linearGradient id="paint2_linear_173_2" x1="192" y1="258" x2="192" y2="352" gradientUnits="userSpaceOnUse">
<stop stop-color="#0F0D0D"/>
<stop offset="1" stop-color="#756666"/>
</linearGradient>
</defs>
</svg>
