<svg width="82" height="64" viewBox="0 0 82 64" fill="none" xmlns="http://www.w3.org/2000/svg">
<path d="M49.9029 5.48979C45.4534 3.90516 35.9766 4.82953 31.7944 5.48979L29.4662 1C26.1032 1 17.1567 4.34534 13.1039 6.01801C1.35923 20.1213 0.320151 42.9708 1.26869 52.6327C7.47731 57.0564 15.4321 61.5462 21.382 62.9988C21.7633 63.0919 24.7666 57.6727 25.7151 55.8019L19.1185 52.5006L20.6059 51.1801C36.8001 60.054 54.3006 54.8776 61.0266 51.1801L62.5141 52.5666L56.0468 55.868C56.3055 56.7131 59.0002 60.974 60.3152 62.9988C68.1277 60.9388 77.0224 55.1857 80.4932 52.5666C83.4682 33.1549 72.5384 9.18728 68.6581 6.28211C65.2943 3.76375 56.0684 1.88035 52.0371 1L49.9029 5.48979Z" fill="#FF664E" stroke="black"/>
<ellipse cx="27" cy="35.5" rx="7" ry="8.5" fill="#8EE6DA"/>
<ellipse cx="54.5" cy="35.5" rx="7.5" ry="8.5" fill="#8EE6DA"/>
</svg>
