<svg width="1920" height="2638" viewBox="0 0 1920 2638" fill="none" xmlns="http://www.w3.org/2000/svg">
<g clip-path="url(#clip0_588557_663)">
<rect width="1920" height="1205" fill="url(#paint0_linear_588557_663)"/>
<rect x="-2" y="1062" width="1923" height="548" fill="#FEC375"/>
<path d="M647.5 952.443C260.3 790.043 54.5 860.443 0 915.943V1077.44C181.167 1181.44 585.2 1356.44 752 1224.44C918.8 1092.44 1101.83 1163.83 1165.5 1209.5C1394.5 1053.5 1446.5 1053.44 1456.5 1053.44C1792 1063.94 1868 1110.5 1920.5 1143.5V962C1723 963.5 1721.5 891.443 1466.5 914.443C1211.5 937.443 1131.5 1155.44 647.5 952.443Z" fill="url(#paint1_linear_588557_663)"/>
<path d="M306 1353.5C194.4 1222.3 54.5 1204.5 -1.5 1212V1610H1915.5L1920.5 1141.5C1710 997 1482 1022.5 1406 1048.5C1337.3 1072 1113.5 1198 1040 1346.5C981.2 1465.3 890.5 1547 849.5 1547C808.333 1547.67 722.9 1548.6 710.5 1547C695 1545 471.5 1519 306 1353.5Z" fill="#F6AF67"/>
<g filter="url(#filter0_f_588557_663)">
<path d="M322.5 -17.5C591.5 60.5 1317.1 394.7 1475.5 869.5C1673.5 1463 -199.5 1245 303 1879.5C705 2387.1 1458.83 2399 1785.5 2341.5" stroke="#86E0D1" stroke-width="10" stroke-linecap="round"/>
</g>
<g filter="url(#filter1_f_588557_663)">
<path d="M463 -39.5C732 38.5 1317.1 394.7 1475.5 869.5C1673.5 1463 -199.5 1245 303 1879.5C705 2387.1 1458.83 2399 1785.5 2341.5" stroke="#86E0D1" stroke-width="10" stroke-linecap="round"/>
</g>
<g filter="url(#filter2_f_588557_663)">
<path d="M-105.5 83C163.5 161 1317.1 394.7 1475.5 869.5C1673.5 1463 -199.5 1245 303 1879.5C705 2387.1 1458.83 2399 1785.5 2341.5" stroke="#86E0D1" stroke-width="10" stroke-linecap="round"/>
</g>
<g filter="url(#filter3_f_588557_663)">
<path d="M537.5 -82.5C806.5 -4.5 1317.1 394.7 1475.5 869.5C1673.5 1463 -199.5 1245 303 1879.5C705 2387.1 1458.83 2399 1785.5 2341.5" stroke="#86E0D1" stroke-width="10" stroke-linecap="round"/>
</g>
<g filter="url(#filter4_f_588557_663)">
<path d="M1553.5 149L1750 490H1357L1553.5 149Z" fill="#F6AF67"/>
</g>
<g filter="url(#filter5_f_588557_663)">
<path d="M1485.5 149L1682 490H1289L1485.5 149Z" fill="#F6AF67"/>
</g>
<g filter="url(#filter6_f_588557_663)">
<path d="M1447.5 175L1644 516H1251L1447.5 175Z" fill="#F6AF67"/>
</g>
<g filter="url(#filter7_f_588557_663)">
<path d="M370 156L682 696H58L370 156Z" fill="#FFDCB0"/>
</g>
<g filter="url(#filter8_f_588557_663)">
<path d="M370 180L682 720H58L370 180Z" fill="#FFDCB0"/>
</g>
<g filter="url(#filter9_f_588557_663)">
<path d="M370 240L682 778H58L370 240Z" fill="#FFDCB0"/>
</g>
<g filter="url(#filter10_f_588557_663)">
<path d="M1050.5 407L1337 912H764L1050.5 407Z" fill="#FDD299"/>
</g>
<g filter="url(#filter11_f_588557_663)">
<path d="M1050.5 407L1337 912H764L1050.5 407Z" fill="#FDD299"/>
</g>
<g filter="url(#filter12_f_588557_663)">
<path d="M1050.5 407L1337 912H764L1050.5 407Z" fill="#FDD299"/>
</g>
<circle cx="799.371" cy="7.30611" r="4.05892" fill="white"/>
<ellipse cx="8.11784" cy="151.93" rx="8.11784" ry="8.92962" fill="white"/>
<circle cx="1868.06" cy="227.059" r="4.05892" fill="white"/>
<ellipse cx="1858.75" cy="483.011" rx="4.8707" ry="5.68249" fill="white"/>
<circle cx="1884.25" cy="406.247" r="3.24714" fill="white"/>
<circle cx="1679.25" cy="292.247" r="3.24714" fill="white"/>
<ellipse cx="1718.31" cy="224.052" rx="8.92962" ry="9.74141" fill="white"/>
<circle cx="1773.51" cy="153.427" r="2.43535" fill="white"/>
<circle cx="1697.2" cy="117.709" r="4.05892" fill="white"/>
<circle cx="1408.49" cy="48.4943" r="6.49427" fill="white"/>
<circle cx="1284.82" cy="119.332" r="4.05892" fill="white"/>
<circle cx="1220.69" cy="17.8592" r="3.24714" fill="white"/>
<circle cx="1157.37" cy="3.24714" r="3.24714" fill="white"/>
<circle cx="1230.06" cy="326.059" r="4.05892" fill="white"/>
<ellipse cx="872.435" cy="315.247" rx="2.43535" ry="3.24714" fill="white"/>
<circle cx="1710.19" cy="4.05889" r="2.43535" fill="white"/>
<circle cx="64.7071" cy="215.935" r="3.24714" fill="white"/>
<circle cx="129.682" cy="460.682" r="5.68249" fill="white"/>
<ellipse cx="292.818" cy="321.466" rx="5.68249" ry="6.49427" fill="white"/>
<circle cx="477.094" cy="17.8592" r="3.24714" fill="white"/>
<ellipse cx="602.108" cy="151.804" rx="3.24714" ry="2.43535" fill="white"/>
<circle cx="667.863" cy="348.255" r="2.43535" fill="white"/>
<circle cx="176.624" cy="18.6236" r="1.62357" fill="white"/>
<circle cx="761.218" cy="35.7184" r="3.24714" fill="white"/>
<circle cx="729.558" cy="52.766" r="2.43535" fill="white"/>
<path d="M1304 235.509L1464.73 104" stroke="#FFD49B" stroke-width="2" stroke-linecap="round"/>
<path d="M983.646 136.38L1082.68 47.0835" stroke="#FFD49B" stroke-width="2" stroke-linecap="round"/>
<path d="M1726 476.722L1901.35 303" stroke="#FFD49B" stroke-width="2" stroke-linecap="round"/>
<circle cx="1012.87" cy="426.998" r="3.24714" fill="white"/>
<circle cx="1141.94" cy="245.97" r="4.05892" fill="white"/>
<circle cx="727.935" cy="247.594" r="4.05892" fill="white"/>
<circle cx="844.059" cy="441.059" r="4.05892" fill="white"/>
<ellipse cx="737.682" cy="430.494" rx="5.68249" ry="6.49427" fill="white"/>
<circle cx="1282.44" cy="265.435" r="2.43535" fill="white"/>
<path d="M1 459.133L161.733 326" stroke="#FFD49B" stroke-width="2" stroke-linecap="round"/>
<path d="M426.763 263.018L527.424 173.722" stroke="#FFD49B" stroke-width="2" stroke-linecap="round"/>
<path d="M275.771 196.452L316.36 160.733" stroke="#FFD49B" stroke-width="2" stroke-linecap="round"/>
<path d="M851.103 111.769L845.869 88.3467C845.625 87.2544 844.045 87.3265 843.902 88.4364L840.885 111.758C840.838 112.123 840.594 112.433 840.249 112.564L825.685 118.114C824.79 118.455 824.84 119.737 825.759 120.008L839.744 124.124C840.081 124.224 840.341 124.492 840.43 124.832L846.004 146.255C846.278 147.309 847.8 147.228 847.961 146.151L851.144 124.879C851.198 124.513 851.451 124.207 851.8 124.084L867.028 118.703C867.948 118.378 867.906 117.064 866.967 116.798L851.807 112.513C851.453 112.413 851.183 112.127 851.103 111.769Z" fill="#FFD49B" stroke="#FFD49B" stroke-width="2" stroke-linecap="round"/>
<path d="M1731.19 364.263L1725.95 341.407C1725.71 340.32 1724.14 340.394 1723.99 341.499L1720.97 364.249C1720.93 364.616 1720.68 364.926 1720.33 365.055L1705.85 370.443C1704.94 370.779 1704.99 372.075 1705.92 372.341L1719.83 376.338C1720.17 376.435 1720.43 376.702 1720.52 377.042L1726.09 397.949C1726.37 398.996 1727.88 398.914 1728.05 397.843L1731.23 377.091C1731.28 376.724 1731.54 376.419 1731.89 376.298L1747.03 371.074C1747.96 370.754 1747.92 369.426 1746.97 369.165L1731.9 365.004C1731.54 364.906 1731.27 364.622 1731.19 364.263Z" fill="#FFD49B" stroke="#FFD49B" stroke-width="2" stroke-linecap="round"/>
<path d="M208.167 330.247L202.935 307.39C202.687 306.304 201.116 306.377 200.969 307.482L197.955 330.233C197.906 330.6 197.659 330.91 197.312 331.039L182.828 336.426C181.924 336.763 181.973 338.058 182.901 338.325L196.81 342.322C197.148 342.419 197.41 342.686 197.5 343.025L203.073 363.933C203.352 364.979 204.864 364.897 205.028 363.827L208.209 343.075C208.265 342.708 208.52 342.402 208.871 342.281L224.015 337.058C224.944 336.738 224.902 335.41 223.955 335.149L208.876 330.988C208.521 330.89 208.249 330.605 208.167 330.247Z" fill="#FFD49B" stroke="#FFD49B" stroke-width="2" stroke-linecap="round"/>
<path d="M1608.19 151.967L1602.96 128.545C1602.71 127.452 1601.13 127.525 1600.99 128.634L1597.97 151.956C1597.92 152.321 1597.68 152.631 1597.34 152.762L1582.77 158.312C1581.88 158.653 1581.93 159.935 1582.85 160.206L1596.83 164.322C1597.17 164.422 1597.43 164.69 1597.52 165.03L1603.09 186.453C1603.37 187.507 1604.89 187.426 1605.05 186.349L1608.23 165.077C1608.29 164.711 1608.54 164.405 1608.89 164.282L1624.11 158.901C1625.03 158.576 1624.99 157.262 1624.05 156.996L1608.89 152.711C1608.54 152.611 1608.27 152.325 1608.19 151.967Z" fill="#FFD49B" stroke="#FFD49B" stroke-width="2" stroke-linecap="round"/>
<path d="M1118.99 184.126L1113.76 161.269C1113.51 160.183 1111.94 160.256 1111.79 161.361L1108.78 184.112C1108.73 184.479 1108.48 184.789 1108.13 184.918L1093.65 190.305C1092.75 190.642 1092.79 191.937 1093.72 192.204L1107.63 196.201C1107.97 196.298 1108.23 196.565 1108.32 196.904L1113.89 217.812C1114.17 218.858 1115.69 218.776 1115.85 217.705L1119.03 196.954C1119.09 196.587 1119.34 196.281 1119.69 196.16L1134.84 190.937C1135.77 190.616 1135.72 189.289 1134.78 189.028L1119.7 184.867C1119.34 184.769 1119.07 184.484 1118.99 184.126Z" fill="#FFD49B" stroke="#FFD49B" stroke-width="2" stroke-linecap="round"/>
<path d="M618.155 229.561L612.7 207.085C612.44 206.013 610.892 206.09 610.738 207.182L607.597 229.539C607.545 229.909 607.291 230.22 606.938 230.343L592.039 235.57C591.113 235.895 591.161 237.222 592.109 237.479L606.426 241.359C606.766 241.451 607.032 241.714 607.127 242.052L612.936 262.604C613.227 263.634 614.714 263.549 614.885 262.493L618.198 242.109C618.258 241.739 618.52 241.434 618.876 241.318L634.455 236.251C635.406 235.942 635.365 234.584 634.398 234.332L618.875 230.292C618.519 230.2 618.242 229.919 618.155 229.561Z" fill="#FFD49B" stroke="#FFD49B" stroke-width="2" stroke-linecap="round"/>
<path d="M204.275 1050H197.994C196.854 1050 195.93 1049.08 195.93 1047.94V1024.61C195.93 1021.29 193.246 1018.61 189.932 1018.61H175.288C166.619 1018.61 162 998.278 162 990.558V971.773C162 960.194 168.967 959.55 168.967 971.773C167.935 1000.49 176.363 1008.1 180.707 1008.31H185.414C188.728 1008.31 191.414 1005.63 191.414 1002.31V979.75C191.414 970.615 190.099 952.603 200.316 952.603C208.755 952.603 208.975 964.888 208.795 974.312C208.738 977.317 211.138 979.75 214.144 979.75C217.23 979.75 219.689 977.188 219.634 974.102C219.441 963.439 219.924 949 224.57 949C230.505 949 229.989 955.176 229.989 959.422V975.633C229.989 984.903 220.975 989.231 213.723 990.845C210.86 991.482 208.479 993.727 208.279 996.653C207.043 1014.72 208.704 1031.92 210.408 1042.62C211.014 1046.42 208.128 1050 204.275 1050Z" fill="#211009"/>
<path d="M604.282 1198H591.462C589.768 1198 588.396 1196.63 588.396 1194.93V1161.42C588.396 1158.1 585.712 1155.42 582.398 1155.42H557.737C544.86 1155.42 538 1127.84 538 1117.37V1091.89C538 1076.18 548.347 1075.31 548.347 1091.89C546.814 1130.84 559.334 1141.16 565.785 1141.45H575.689C579.003 1141.45 581.689 1138.77 581.689 1135.45V1102.71C581.689 1090.32 579.735 1065.89 594.911 1065.89C607.901 1065.89 607.779 1083.79 607.474 1096.72C607.396 1100.03 610.052 1102.71 613.366 1102.71H617.59C621.002 1102.71 623.718 1099.88 623.634 1096.46C623.276 1081.9 623.807 1061 630.935 1061C639.75 1061 638.983 1069.38 638.983 1075.14V1097.13C638.983 1110.67 623.456 1116.43 612.392 1118.2C609.504 1118.66 607.126 1120.9 606.883 1123.81C604.656 1150.46 607.618 1175.93 610.355 1190.5C611.076 1194.33 608.185 1198 604.282 1198Z" fill="#211009"/>
<path d="M1625.98 1135H1613.4C1611.74 1135 1610.4 1133.65 1610.4 1131.99V1095.31C1610.4 1091.99 1607.72 1089.31 1604.4 1089.31H1580.35C1567.72 1089.31 1561 1059.72 1561 1048.49V1021.15C1561 1004.29 1571.14 1003.36 1571.14 1021.15C1569.64 1062.94 1581.91 1074.02 1588.23 1074.33H1597.82C1601.14 1074.33 1603.82 1071.64 1603.82 1068.33V1032.76C1603.82 1019.46 1601.91 993.243 1616.78 993.243C1629.65 993.243 1629.39 1012.86 1629.09 1026.76C1629.02 1030.07 1631.68 1032.76 1634.99 1032.76H1638.91C1642.32 1032.76 1645.03 1029.93 1644.95 1026.53C1644.58 1010.88 1645.04 988 1652.09 988C1660.73 988 1659.98 996.989 1659.98 1003.17V1026.76C1659.98 1041.24 1644.87 1047.44 1634.03 1049.36C1631.14 1049.87 1628.77 1052.12 1628.55 1055.05C1626.28 1084.18 1629.31 1112.06 1632.04 1127.63C1632.7 1131.42 1629.83 1135 1625.98 1135Z" fill="#211009"/>
<path d="M1853.09 999H1850.47C1849.63 999 1848.95 998.32 1848.95 997.482V981.999C1848.95 978.685 1846.26 975.999 1842.95 975.999H1833.77C1827.4 975.999 1824 961.104 1824 955.448V941.685C1824 933.201 1829.12 932.73 1829.12 941.685C1828.36 962.726 1834.56 968.3 1837.75 968.457H1839.63C1842.94 968.457 1845.63 965.771 1845.63 962.457V947.53C1845.63 940.837 1844.66 927.639 1852.17 927.639C1858.37 927.639 1858.54 936.629 1858.41 943.532C1858.37 945.741 1860.13 947.53 1862.34 947.53C1864.61 947.53 1866.42 945.646 1866.38 943.377C1866.24 935.565 1866.59 925 1870.01 925C1874.37 925 1873.99 929.525 1873.99 932.636V944.513C1873.99 950.759 1868.39 953.943 1863.34 955.334C1860.51 956.114 1858.11 958.341 1857.94 961.269C1857.27 972.942 1858.2 984.003 1859.29 991.597C1859.84 995.412 1856.94 999 1853.09 999Z" fill="#211009"/>
</g>
<g clip-path="url(#clip1_588557_663)">
<rect width="1920" height="1233" transform="translate(0 1205)" fill="white"/>
<rect y="1205" width="1920" height="1233" fill="url(#paint2_linear_588557_663)"/>
<rect x="-2" y="1062" width="1930" height="548" fill="#FEC375"/>
<path d="M649.864 952.443C261.254 790.043 54.7052 860.443 0.00683594 915.943V1077.44C181.833 1181.44 587.337 1356.44 754.744 1224.44C922.151 1092.44 1105.85 1163.83 1169.75 1209.5C1399.58 1053.5 1451.77 1053.44 1461.81 1053.44C1798.53 1063.94 1874.81 1110.5 1927.5 1143.5V962C1729.28 963.5 1727.77 891.443 1471.85 914.443C1215.92 937.443 1135.63 1155.44 649.864 952.443Z" fill="url(#paint3_linear_588557_663)"/>
<path d="M307.46 1363.96C195.512 1228.39 55.1748 1210 -1 1217.75V1629H1921.98L1927 1144.9C1715.84 995.594 1487.13 1021.94 1410.89 1048.81C1341.98 1073.09 1117.48 1203.28 1043.75 1356.73C984.768 1479.48 893.785 1563.9 852.657 1563.9C811.361 1564.59 725.661 1565.56 713.223 1563.9C697.674 1561.84 473.477 1534.97 307.46 1363.96Z" fill="url(#paint4_linear_588557_663)"/>
<g filter="url(#filter13_f_588557_663)">
<path d="M470.5 42C739.5 120 1317.1 394.7 1475.5 869.5C1673.5 1463 -199.5 1245 303 1879.5C705 2387.1 1458.83 2399 1785.5 2341.5" stroke="#86E0D1" stroke-width="10" stroke-linecap="round"/>
</g>
<g filter="url(#filter14_f_588557_663)">
<path d="M470.5 42C739.5 120 1317.1 394.7 1475.5 869.5C1673.5 1463 -199.5 1245 303 1879.5C705 2387.1 1458.83 2399 1785.5 2341.5" stroke="#86E0D1" stroke-width="10" stroke-linecap="round"/>
</g>
<g filter="url(#filter15_f_588557_663)">
<path d="M470.5 42C739.5 120 1317.1 394.7 1475.5 869.5C1673.5 1463 -199.5 1245 303 1879.5C705 2387.1 1458.83 2399 1785.5 2341.5" stroke="#86E0D1" stroke-width="10" stroke-linecap="round"/>
</g>
<g filter="url(#filter16_f_588557_663)">
<path d="M470.5 42C739.5 120 1317.1 394.7 1475.5 869.5C1673.5 1463 -199.5 1245 303 1879.5C705 2387.1 1458.83 2399 1785.5 2341.5" stroke="#86E0D1" stroke-width="10" stroke-linecap="round"/>
</g>
</g>
<g clip-path="url(#clip2_588557_663)">
<rect y="2438" width="1920" height="200" fill="#F7ECE0"/>
</g>
<defs>
<filter id="filter0_f_588557_663" x="162.033" y="-72.5013" width="1678.47" height="2492.52" filterUnits="userSpaceOnUse" color-interpolation-filters="sRGB">
<feFlood flood-opacity="0" result="BackgroundImageFix"/>
<feBlend mode="normal" in="SourceGraphic" in2="BackgroundImageFix" result="shape"/>
<feGaussianBlur stdDeviation="25" result="effect1_foregroundBlur_588557_663"/>
</filter>
<filter id="filter1_f_588557_663" x="187.033" y="-69.5013" width="1628.47" height="2464.52" filterUnits="userSpaceOnUse" color-interpolation-filters="sRGB">
<feFlood flood-opacity="0" result="BackgroundImageFix"/>
<feBlend mode="normal" in="SourceGraphic" in2="BackgroundImageFix" result="shape"/>
<feGaussianBlur stdDeviation="12.5" result="effect1_foregroundBlur_588557_663"/>
</filter>
<filter id="filter2_f_588557_663" x="-125.501" y="62.9987" width="1931" height="2322.02" filterUnits="userSpaceOnUse" color-interpolation-filters="sRGB">
<feFlood flood-opacity="0" result="BackgroundImageFix"/>
<feBlend mode="normal" in="SourceGraphic" in2="BackgroundImageFix" result="shape"/>
<feGaussianBlur stdDeviation="7.5" result="effect1_foregroundBlur_588557_663"/>
</filter>
<filter id="filter3_f_588557_663" x="202.033" y="-97.5013" width="1598.47" height="2477.52" filterUnits="userSpaceOnUse" color-interpolation-filters="sRGB">
<feFlood flood-opacity="0" result="BackgroundImageFix"/>
<feBlend mode="normal" in="SourceGraphic" in2="BackgroundImageFix" result="shape"/>
<feGaussianBlur stdDeviation="5" result="effect1_foregroundBlur_588557_663"/>
</filter>
<filter id="filter4_f_588557_663" x="1282" y="74" width="543" height="491" filterUnits="userSpaceOnUse" color-interpolation-filters="sRGB">
<feFlood flood-opacity="0" result="BackgroundImageFix"/>
<feBlend mode="normal" in="SourceGraphic" in2="BackgroundImageFix" result="shape"/>
<feGaussianBlur stdDeviation="37.5" result="effect1_foregroundBlur_588557_663"/>
</filter>
<filter id="filter5_f_588557_663" x="1264" y="124" width="443" height="391" filterUnits="userSpaceOnUse" color-interpolation-filters="sRGB">
<feFlood flood-opacity="0" result="BackgroundImageFix"/>
<feBlend mode="normal" in="SourceGraphic" in2="BackgroundImageFix" result="shape"/>
<feGaussianBlur stdDeviation="12.5" result="effect1_foregroundBlur_588557_663"/>
</filter>
<filter id="filter6_f_588557_663" x="1236" y="160" width="423" height="371" filterUnits="userSpaceOnUse" color-interpolation-filters="sRGB">
<feFlood flood-opacity="0" result="BackgroundImageFix"/>
<feBlend mode="normal" in="SourceGraphic" in2="BackgroundImageFix" result="shape"/>
<feGaussianBlur stdDeviation="7.5" result="effect1_foregroundBlur_588557_663"/>
</filter>
<filter id="filter7_f_588557_663" x="-17" y="81" width="774" height="690" filterUnits="userSpaceOnUse" color-interpolation-filters="sRGB">
<feFlood flood-opacity="0" result="BackgroundImageFix"/>
<feBlend mode="normal" in="SourceGraphic" in2="BackgroundImageFix" result="shape"/>
<feGaussianBlur stdDeviation="37.5" result="effect1_foregroundBlur_588557_663"/>
</filter>
<filter id="filter8_f_588557_663" x="33" y="155" width="674" height="590" filterUnits="userSpaceOnUse" color-interpolation-filters="sRGB">
<feFlood flood-opacity="0" result="BackgroundImageFix"/>
<feBlend mode="normal" in="SourceGraphic" in2="BackgroundImageFix" result="shape"/>
<feGaussianBlur stdDeviation="12.5" result="effect1_foregroundBlur_588557_663"/>
</filter>
<filter id="filter9_f_588557_663" x="43" y="225" width="654" height="568" filterUnits="userSpaceOnUse" color-interpolation-filters="sRGB">
<feFlood flood-opacity="0" result="BackgroundImageFix"/>
<feBlend mode="normal" in="SourceGraphic" in2="BackgroundImageFix" result="shape"/>
<feGaussianBlur stdDeviation="7.5" result="effect1_foregroundBlur_588557_663"/>
</filter>
<filter id="filter10_f_588557_663" x="689" y="332" width="723" height="655" filterUnits="userSpaceOnUse" color-interpolation-filters="sRGB">
<feFlood flood-opacity="0" result="BackgroundImageFix"/>
<feBlend mode="normal" in="SourceGraphic" in2="BackgroundImageFix" result="shape"/>
<feGaussianBlur stdDeviation="37.5" result="effect1_foregroundBlur_588557_663"/>
</filter>
<filter id="filter11_f_588557_663" x="739" y="382" width="623" height="555" filterUnits="userSpaceOnUse" color-interpolation-filters="sRGB">
<feFlood flood-opacity="0" result="BackgroundImageFix"/>
<feBlend mode="normal" in="SourceGraphic" in2="BackgroundImageFix" result="shape"/>
<feGaussianBlur stdDeviation="12.5" result="effect1_foregroundBlur_588557_663"/>
</filter>
<filter id="filter12_f_588557_663" x="749" y="392" width="603" height="535" filterUnits="userSpaceOnUse" color-interpolation-filters="sRGB">
<feFlood flood-opacity="0" result="BackgroundImageFix"/>
<feBlend mode="normal" in="SourceGraphic" in2="BackgroundImageFix" result="shape"/>
<feGaussianBlur stdDeviation="7.5" result="effect1_foregroundBlur_588557_663"/>
</filter>
<filter id="filter13_f_588557_663" x="162.033" y="-13.0013" width="1678.47" height="2433.02" filterUnits="userSpaceOnUse" color-interpolation-filters="sRGB">
<feFlood flood-opacity="0" result="BackgroundImageFix"/>
<feBlend mode="normal" in="SourceGraphic" in2="BackgroundImageFix" result="shape"/>
<feGaussianBlur stdDeviation="25" result="effect1_foregroundBlur_588557_663"/>
</filter>
<filter id="filter14_f_588557_663" x="187.033" y="11.9987" width="1628.47" height="2383.02" filterUnits="userSpaceOnUse" color-interpolation-filters="sRGB">
<feFlood flood-opacity="0" result="BackgroundImageFix"/>
<feBlend mode="normal" in="SourceGraphic" in2="BackgroundImageFix" result="shape"/>
<feGaussianBlur stdDeviation="12.5" result="effect1_foregroundBlur_588557_663"/>
</filter>
<filter id="filter15_f_588557_663" x="197.033" y="21.9987" width="1608.47" height="2363.02" filterUnits="userSpaceOnUse" color-interpolation-filters="sRGB">
<feFlood flood-opacity="0" result="BackgroundImageFix"/>
<feBlend mode="normal" in="SourceGraphic" in2="BackgroundImageFix" result="shape"/>
<feGaussianBlur stdDeviation="7.5" result="effect1_foregroundBlur_588557_663"/>
</filter>
<filter id="filter16_f_588557_663" x="202.033" y="26.9987" width="1598.47" height="2353.02" filterUnits="userSpaceOnUse" color-interpolation-filters="sRGB">
<feFlood flood-opacity="0" result="BackgroundImageFix"/>
<feBlend mode="normal" in="SourceGraphic" in2="BackgroundImageFix" result="shape"/>
<feGaussianBlur stdDeviation="5" result="effect1_foregroundBlur_588557_663"/>
</filter>
<linearGradient id="paint0_linear_588557_663" x1="960" y1="0" x2="960" y2="1205" gradientUnits="userSpaceOnUse">
<stop offset="0.315" stop-color="#170202"/>
<stop offset="1" stop-color="#B97B39"/>
</linearGradient>
<linearGradient id="paint1_linear_588557_663" x1="1016" y1="1175.5" x2="1019.5" y2="738.5" gradientUnits="userSpaceOnUse">
<stop stop-color="#FFD9A9"/>
<stop offset="0.529324" stop-color="#A17447"/>
<stop offset="1" stop-color="#865528"/>
</linearGradient>
<linearGradient id="paint2_linear_588557_663" x1="960" y1="1205" x2="960" y2="2438" gradientUnits="userSpaceOnUse">
<stop stop-color="#B87A39"/>
<stop offset="1" stop-color="#F6EBE0"/>
</linearGradient>
<linearGradient id="paint3_linear_588557_663" x1="1061.86" y1="1101.5" x2="1061.86" y2="801.5" gradientUnits="userSpaceOnUse">
<stop stop-color="#FFDCB0"/>
<stop offset="1" stop-color="#805126"/>
</linearGradient>
<linearGradient id="paint4_linear_588557_663" x1="1185.69" y1="1204.83" x2="1191.55" y2="1629" gradientUnits="userSpaceOnUse">
<stop stop-color="#F6AF67"/>
<stop offset="1" stop-color="#CEA173"/>
</linearGradient>
<clipPath id="clip0_588557_663">
<rect width="1920" height="1205" fill="white"/>
</clipPath>
<clipPath id="clip1_588557_663">
<rect width="1920" height="1233" fill="white" transform="translate(0 1205)"/>
</clipPath>
<clipPath id="clip2_588557_663">
<rect width="1920" height="200" fill="white" transform="translate(0 2438)"/>
</clipPath>
</defs>
</svg>
