<svg width="426" height="426" viewBox="0 0 426 426" fill="none" xmlns="http://www.w3.org/2000/svg">
<rect width="426" height="426" rx="40" fill="#FEE3BE"/>
<path d="M190.637 327.044C203.156 254.281 194.601 216.835 188.759 207.207H139.31C115.775 211.14 113.647 184.674 115.525 170.949C119.072 158.248 132.05 136.411 155.585 150.669C179.12 164.926 191.68 160.297 195.018 156.2C166.977 111.461 161.635 78.562 162.47 67.705C164.449 48.0556 191.388 12.5187 234.452 22.8431C288.282 35.7486 292.664 70.1632 292.038 88.5996C291.537 103.349 273.886 139.812 265.123 156.2L306.434 150.669C335.978 153.127 335.019 177.504 330.846 189.385C325.338 210.034 296.42 209.87 282.649 207.207C261.618 196.391 251.352 202.7 248.849 207.207C248.849 261.287 251.978 284.025 269.504 327.044C287.031 370.062 250.726 373.749 218.804 374.978C193.266 375.961 189.385 343.432 190.637 327.044Z" fill="#F6AF67" stroke="black"/>
<path d="M190.861 321.211C202.92 251.738 194.68 215.984 189.052 206.791H141.418C118.747 210.546 116.697 185.276 118.506 172.171C121.922 160.045 134.424 139.195 157.095 152.808C179.767 166.421 191.866 162.001 195.082 158.089C168.069 115.372 162.924 83.9604 163.728 73.594C165.634 54.8328 191.585 20.9021 233.069 30.7598C284.923 43.082 289.144 75.9411 288.541 93.5442C288.059 107.627 271.055 142.442 262.614 158.089L302.409 152.808C330.869 155.155 329.945 178.43 325.925 189.775C320.619 209.49 292.762 209.334 279.497 206.791C259.237 196.464 249.349 202.488 246.937 206.791C246.937 258.427 249.952 280.137 266.835 321.211C283.717 362.285 248.746 365.806 217.995 366.979C193.394 367.918 189.655 336.858 190.861 321.211Z" fill="#FFDCB0" stroke="black"/>
<path d="M199.261 88.2214C200.178 90.0229 215.926 111.641 224.03 122L241 99.9313C237.636 96.6285 230.025 88.0515 219.017 84.8088C208.008 81.566 203.083 69.3053 202.931 63C194.858 71.6473 196.508 83.7176 199.261 88.2214Z" fill="#FDE9D5" stroke="black" stroke-width="2" stroke-linejoin="round"/>
<path d="M245.121 94C252.112 84.8113 251.061 79.3756 250.77 75C248.758 76.3428 246.214 78.1713 242.905 79.8131C239.026 81.738 234.425 83.4331 233.293 84.1887C231.196 85.5889 240.898 91.9581 245.121 94Z" fill="#B7F7EE" stroke="black" stroke-width="2" stroke-linejoin="round"/>
<path d="M241.527 59.0853C226.582 47.2011 207.034 55.4149 207 61.0764C207 69.6295 215.466 83.2139 228.917 80.6931C237.717 79.0438 248.174 75.6379 249 69.8893C249 67.4051 243.863 60.9422 241.527 59.0853Z" fill="#FFE4DF" stroke="black" stroke-width="2" stroke-linejoin="round"/>
</svg>
