<svg width="629" height="136" viewBox="0 0 629 136" fill="none" xmlns="http://www.w3.org/2000/svg">
<mask id="path-1-outside-1_588557_674" maskUnits="userSpaceOnUse" x="96.2178" y="27" width="448" height="85" fill="black">
<rect fill="white" x="96.2178" y="27" width="448" height="85"/>
<path d="M130.218 107H100.518V99.7L108.718 96.5V46.2L100.518 42.9V35.6H130.218V42.9L122.118 46.2V96.5L130.218 99.7V107ZM164.144 107H150.844V31H164.144V107ZM201.878 107H188.578V31H201.878V107ZM272.712 52.8V107H262.512L260.812 100H260.112C259.046 101.867 257.679 103.4 256.012 104.6C254.346 105.733 252.512 106.567 250.512 107.1C248.512 107.7 246.446 108 244.312 108C240.579 108 237.346 107.3 234.612 105.9C231.879 104.5 229.746 102.367 228.212 99.5C226.746 96.5667 226.012 92.8 226.012 88.2V52.8H239.312V85.7C239.312 89.7 239.979 92.7333 241.312 94.8C242.712 96.8 244.912 97.8 247.912 97.8C250.912 97.8 253.246 97.1 254.912 95.7C256.646 94.2333 257.846 92.1333 258.512 89.4C259.179 86.6667 259.512 83.3 259.512 79.3V52.8H272.712ZM332.95 91.3C332.95 94.9 332.15 97.9667 330.55 100.5C328.95 102.967 326.583 104.833 323.45 106.1C320.316 107.367 316.383 108 311.65 108C308.05 108 304.916 107.733 302.25 107.2C299.583 106.667 297.016 105.833 294.55 104.7V94C297.216 95.2667 300.083 96.3333 303.15 97.2C306.283 98.0667 309.116 98.5 311.65 98.5C314.65 98.5 316.816 97.9667 318.15 96.9C319.483 95.8333 320.15 94.4 320.15 92.6C320.15 91.5333 319.85 90.5667 319.25 89.7C318.716 88.8333 317.583 87.9333 315.85 87C314.183 86 311.75 84.7667 308.55 83.3C305.416 81.9 302.816 80.5 300.75 79.1C298.683 77.7 297.116 76.0333 296.05 74.1C294.983 72.1 294.45 69.6 294.45 66.6C294.45 61.7333 296.283 58.0667 299.95 55.6C303.683 53.0667 308.55 51.8 314.55 51.8C317.816 51.8 320.85 52.1333 323.65 52.8C326.516 53.4 329.383 54.4 332.25 55.8L328.35 65.1C326.75 64.3667 325.116 63.7333 323.45 63.2C321.85 62.6 320.283 62.1333 318.75 61.8C317.283 61.4667 315.816 61.3 314.35 61.3C312.016 61.3 310.25 61.7333 309.05 62.6C307.85 63.4 307.25 64.5667 307.25 66.1C307.25 67.1667 307.55 68.1333 308.15 69C308.75 69.8 309.883 70.6333 311.55 71.5C313.216 72.3667 315.583 73.4667 318.65 74.8C321.716 76 324.316 77.3 326.45 78.7C328.583 80.0333 330.183 81.7 331.25 83.7C332.383 85.7 332.95 88.2333 332.95 91.3ZM367.327 52.8V107H354.127V52.8H367.327ZM360.827 31.9C362.76 31.9 364.427 32.4 365.827 33.4C367.227 34.3333 367.927 36.0333 367.927 38.5C367.927 40.9 367.227 42.6333 365.827 43.7C364.427 44.7 362.76 45.2 360.827 45.2C358.76 45.2 357.027 44.7 355.627 43.7C354.227 42.6333 353.527 40.9 353.527 38.5C353.527 36.0333 354.227 34.3333 355.627 33.4C357.027 32.4 358.76 31.9 360.827 31.9ZM438.162 52.8V107H427.962L426.262 100H425.562C424.495 101.867 423.128 103.4 421.462 104.6C419.795 105.733 417.962 106.567 415.962 107.1C413.962 107.7 411.895 108 409.762 108C406.028 108 402.795 107.3 400.062 105.9C397.328 104.5 395.195 102.367 393.662 99.5C392.195 96.5667 391.462 92.8 391.462 88.2V52.8H404.762V85.7C404.762 89.7 405.428 92.7333 406.762 94.8C408.162 96.8 410.362 97.8 413.362 97.8C416.362 97.8 418.695 97.1 420.362 95.7C422.095 94.2333 423.295 92.1333 423.962 89.4C424.628 86.6667 424.962 83.3 424.962 79.3V52.8H438.162ZM522.199 51.8C528.066 51.8 532.466 53.3667 535.399 56.5C538.332 59.6333 539.799 64.7 539.799 71.7V107H526.699V74.1C526.699 70.1 526.032 67.1 524.699 65.1C523.366 63.0333 521.299 62 518.499 62C514.632 62 511.899 63.4333 510.299 66.3C508.699 69.1667 507.899 73.3333 507.899 78.8V107H494.699V74.1C494.699 71.4333 494.399 69.2 493.799 67.4C493.199 65.6 492.299 64.2667 491.099 63.4C489.899 62.4667 488.366 62 486.499 62C483.832 62 481.732 62.7333 480.199 64.2C478.666 65.6 477.566 67.6667 476.899 70.4C476.299 73.1333 475.999 76.5 475.999 80.5V107H462.699V52.8H472.899L474.799 59.9H475.399C476.399 58.0333 477.632 56.5 479.099 55.3C480.632 54.1 482.366 53.2333 484.299 52.7C486.299 52.1 488.366 51.8 490.499 51.8C494.299 51.8 497.466 52.5 499.999 53.9C502.599 55.2333 504.599 57.3333 505.999 60.2H506.699C508.366 57.2667 510.566 55.1333 513.299 53.8C516.099 52.4667 519.066 51.8 522.199 51.8Z"/>
</mask>
<path d="M130.218 107H100.518V99.7L108.718 96.5V46.2L100.518 42.9V35.6H130.218V42.9L122.118 46.2V96.5L130.218 99.7V107ZM164.144 107H150.844V31H164.144V107ZM201.878 107H188.578V31H201.878V107ZM272.712 52.8V107H262.512L260.812 100H260.112C259.046 101.867 257.679 103.4 256.012 104.6C254.346 105.733 252.512 106.567 250.512 107.1C248.512 107.7 246.446 108 244.312 108C240.579 108 237.346 107.3 234.612 105.9C231.879 104.5 229.746 102.367 228.212 99.5C226.746 96.5667 226.012 92.8 226.012 88.2V52.8H239.312V85.7C239.312 89.7 239.979 92.7333 241.312 94.8C242.712 96.8 244.912 97.8 247.912 97.8C250.912 97.8 253.246 97.1 254.912 95.7C256.646 94.2333 257.846 92.1333 258.512 89.4C259.179 86.6667 259.512 83.3 259.512 79.3V52.8H272.712ZM332.95 91.3C332.95 94.9 332.15 97.9667 330.55 100.5C328.95 102.967 326.583 104.833 323.45 106.1C320.316 107.367 316.383 108 311.65 108C308.05 108 304.916 107.733 302.25 107.2C299.583 106.667 297.016 105.833 294.55 104.7V94C297.216 95.2667 300.083 96.3333 303.15 97.2C306.283 98.0667 309.116 98.5 311.65 98.5C314.65 98.5 316.816 97.9667 318.15 96.9C319.483 95.8333 320.15 94.4 320.15 92.6C320.15 91.5333 319.85 90.5667 319.25 89.7C318.716 88.8333 317.583 87.9333 315.85 87C314.183 86 311.75 84.7667 308.55 83.3C305.416 81.9 302.816 80.5 300.75 79.1C298.683 77.7 297.116 76.0333 296.05 74.1C294.983 72.1 294.45 69.6 294.45 66.6C294.45 61.7333 296.283 58.0667 299.95 55.6C303.683 53.0667 308.55 51.8 314.55 51.8C317.816 51.8 320.85 52.1333 323.65 52.8C326.516 53.4 329.383 54.4 332.25 55.8L328.35 65.1C326.75 64.3667 325.116 63.7333 323.45 63.2C321.85 62.6 320.283 62.1333 318.75 61.8C317.283 61.4667 315.816 61.3 314.35 61.3C312.016 61.3 310.25 61.7333 309.05 62.6C307.85 63.4 307.25 64.5667 307.25 66.1C307.25 67.1667 307.55 68.1333 308.15 69C308.75 69.8 309.883 70.6333 311.55 71.5C313.216 72.3667 315.583 73.4667 318.65 74.8C321.716 76 324.316 77.3 326.45 78.7C328.583 80.0333 330.183 81.7 331.25 83.7C332.383 85.7 332.95 88.2333 332.95 91.3ZM367.327 52.8V107H354.127V52.8H367.327ZM360.827 31.9C362.76 31.9 364.427 32.4 365.827 33.4C367.227 34.3333 367.927 36.0333 367.927 38.5C367.927 40.9 367.227 42.6333 365.827 43.7C364.427 44.7 362.76 45.2 360.827 45.2C358.76 45.2 357.027 44.7 355.627 43.7C354.227 42.6333 353.527 40.9 353.527 38.5C353.527 36.0333 354.227 34.3333 355.627 33.4C357.027 32.4 358.76 31.9 360.827 31.9ZM438.162 52.8V107H427.962L426.262 100H425.562C424.495 101.867 423.128 103.4 421.462 104.6C419.795 105.733 417.962 106.567 415.962 107.1C413.962 107.7 411.895 108 409.762 108C406.028 108 402.795 107.3 400.062 105.9C397.328 104.5 395.195 102.367 393.662 99.5C392.195 96.5667 391.462 92.8 391.462 88.2V52.8H404.762V85.7C404.762 89.7 405.428 92.7333 406.762 94.8C408.162 96.8 410.362 97.8 413.362 97.8C416.362 97.8 418.695 97.1 420.362 95.7C422.095 94.2333 423.295 92.1333 423.962 89.4C424.628 86.6667 424.962 83.3 424.962 79.3V52.8H438.162ZM522.199 51.8C528.066 51.8 532.466 53.3667 535.399 56.5C538.332 59.6333 539.799 64.7 539.799 71.7V107H526.699V74.1C526.699 70.1 526.032 67.1 524.699 65.1C523.366 63.0333 521.299 62 518.499 62C514.632 62 511.899 63.4333 510.299 66.3C508.699 69.1667 507.899 73.3333 507.899 78.8V107H494.699V74.1C494.699 71.4333 494.399 69.2 493.799 67.4C493.199 65.6 492.299 64.2667 491.099 63.4C489.899 62.4667 488.366 62 486.499 62C483.832 62 481.732 62.7333 480.199 64.2C478.666 65.6 477.566 67.6667 476.899 70.4C476.299 73.1333 475.999 76.5 475.999 80.5V107H462.699V52.8H472.899L474.799 59.9H475.399C476.399 58.0333 477.632 56.5 479.099 55.3C480.632 54.1 482.366 53.2333 484.299 52.7C486.299 52.1 488.366 51.8 490.499 51.8C494.299 51.8 497.466 52.5 499.999 53.9C502.599 55.2333 504.599 57.3333 505.999 60.2H506.699C508.366 57.2667 510.566 55.1333 513.299 53.8C516.099 52.4667 519.066 51.8 522.199 51.8Z" fill="#170202"/>
<path d="M130.218 107V111H134.218V107H130.218ZM100.518 107H96.5178V111H100.518V107ZM100.518 99.7L99.0636 95.9737L96.5178 96.9672V99.7H100.518ZM108.718 96.5L110.172 100.226L112.718 99.2328V96.5H108.718ZM108.718 46.2H112.718V43.498L110.211 42.4892L108.718 46.2ZM100.518 42.9H96.5178V45.602L99.0244 46.6108L100.518 42.9ZM100.518 35.6V31.6H96.5178V35.6H100.518ZM130.218 35.6H134.218V31.6H130.218V35.6ZM130.218 42.9L131.727 46.6044L134.218 45.5896V42.9H130.218ZM122.118 46.2L120.609 42.4956L118.118 43.5104V46.2H122.118ZM122.118 96.5H118.118V99.2206L120.648 100.22L122.118 96.5ZM130.218 99.7H134.218V96.9794L131.687 95.9798L130.218 99.7ZM130.218 103H100.518V111H130.218V103ZM104.518 107V99.7H96.5178V107H104.518ZM101.972 103.426L110.172 100.226L107.264 92.7737L99.0636 95.9737L101.972 103.426ZM112.718 96.5V46.2H104.718V96.5H112.718ZM110.211 42.4892L102.011 39.1892L99.0244 46.6108L107.224 49.9108L110.211 42.4892ZM104.518 42.9V35.6H96.5178V42.9H104.518ZM100.518 39.6H130.218V31.6H100.518V39.6ZM126.218 35.6V42.9H134.218V35.6H126.218ZM128.709 39.1956L120.609 42.4956L123.627 49.9044L131.727 46.6044L128.709 39.1956ZM118.118 46.2V96.5H126.118V46.2H118.118ZM120.648 100.22L128.748 103.42L131.687 95.9798L123.587 92.7798L120.648 100.22ZM126.218 99.7V107H134.218V99.7H126.218ZM164.144 107V111H168.144V107H164.144ZM150.844 107H146.844V111H150.844V107ZM150.844 31V27H146.844V31H150.844ZM164.144 31H168.144V27H164.144V31ZM164.144 103H150.844V111H164.144V103ZM154.844 107V31H146.844V107H154.844ZM150.844 35H164.144V27H150.844V35ZM160.144 31V107H168.144V31H160.144ZM201.878 107V111H205.878V107H201.878ZM188.578 107H184.578V111H188.578V107ZM188.578 31V27H184.578V31H188.578ZM201.878 31H205.878V27H201.878V31ZM201.878 103H188.578V111H201.878V103ZM192.578 107V31H184.578V107H192.578ZM188.578 35H201.878V27H188.578V35ZM197.878 31V107H205.878V31H197.878ZM272.712 52.8H276.712V48.8H272.712V52.8ZM272.712 107V111H276.712V107H272.712ZM262.512 107L258.625 107.944L259.367 111H262.512V107ZM260.812 100L264.699 99.056L263.957 96H260.812V100ZM260.112 100V96H257.791L256.639 98.0154L260.112 100ZM256.012 104.6L258.262 107.908L258.306 107.878L258.35 107.846L256.012 104.6ZM250.512 107.1L249.482 103.235L249.422 103.251L249.363 103.269L250.512 107.1ZM234.612 105.9L232.789 109.46L232.789 109.46L234.612 105.9ZM228.212 99.5L224.635 101.289L224.659 101.338L224.685 101.387L228.212 99.5ZM226.012 52.8V48.8H222.012V52.8H226.012ZM239.312 52.8H243.312V48.8H239.312V52.8ZM241.312 94.8L237.951 96.9685L237.992 97.032L238.035 97.0938L241.312 94.8ZM254.912 95.7L257.485 98.7628L257.491 98.7582L257.496 98.7535L254.912 95.7ZM258.512 89.4L262.398 90.3478L262.398 90.3478L258.512 89.4ZM259.512 52.8V48.8H255.512V52.8H259.512ZM268.712 52.8V107H276.712V52.8H268.712ZM272.712 103H262.512V111H272.712V103ZM266.399 106.056L264.699 99.056L256.925 100.944L258.625 107.944L266.399 106.056ZM260.812 96H260.112V104H260.812V96ZM256.639 98.0154C255.843 99.409 254.856 100.504 253.675 101.354L258.35 107.846C260.502 106.296 262.248 104.324 263.585 101.985L256.639 98.0154ZM253.763 101.292C252.478 102.166 251.059 102.814 249.482 103.235L251.543 110.965C253.966 110.319 256.213 109.301 258.262 107.908L253.763 101.292ZM249.363 103.269C247.744 103.754 246.065 104 244.312 104V112C246.826 112 249.281 111.646 251.662 110.931L249.363 103.269ZM244.312 104C241.078 104 238.496 103.395 236.436 102.34L232.789 109.46C236.196 111.205 240.08 112 244.312 112V104ZM236.436 102.34C234.471 101.334 232.912 99.8062 231.739 97.6134L224.685 101.387C226.579 104.927 229.287 107.666 232.789 109.46L236.436 102.34ZM231.79 97.7111C230.69 95.5108 230.012 92.4138 230.012 88.2H222.012C222.012 93.1862 222.801 97.6226 224.635 101.289L231.79 97.7111ZM230.012 88.2V52.8H222.012V88.2H230.012ZM226.012 56.8H239.312V48.8H226.012V56.8ZM235.312 52.8V85.7H243.312V52.8H235.312ZM235.312 85.7C235.312 90.0331 236.015 93.967 237.951 96.9685L244.673 92.6315C243.943 91.4996 243.312 89.3669 243.312 85.7H235.312ZM238.035 97.0938C240.359 100.413 243.945 101.8 247.912 101.8V93.8C245.88 93.8 245.066 93.1874 244.589 92.5061L238.035 97.0938ZM247.912 101.8C251.499 101.8 254.866 100.963 257.485 98.7628L252.34 92.6372C251.625 93.2375 250.326 93.8 247.912 93.8V101.8ZM257.496 98.7535C260.016 96.6213 261.58 93.7038 262.398 90.3478L254.626 88.4522C254.111 90.5629 253.275 91.8454 252.329 92.6465L257.496 98.7535ZM262.398 90.3478C263.165 87.2045 263.512 83.4972 263.512 79.3H255.512C255.512 83.1028 255.193 86.1288 254.626 88.4522L262.398 90.3478ZM263.512 79.3V52.8H255.512V79.3H263.512ZM259.512 56.8H272.712V48.8H259.512V56.8ZM330.55 100.5L333.906 102.677L333.919 102.656L333.932 102.636L330.55 100.5ZM323.45 106.1L324.949 109.808L324.949 109.808L323.45 106.1ZM302.25 107.2L303.034 103.278L303.034 103.278L302.25 107.2ZM294.55 104.7H290.55V107.264L292.88 108.335L294.55 104.7ZM294.55 94L296.266 90.3869L290.55 87.6717V94H294.55ZM303.15 97.2L302.062 101.049L302.073 101.052L302.083 101.055L303.15 97.2ZM319.25 89.7L315.843 91.7964L315.9 91.8882L315.961 91.9768L319.25 89.7ZM315.85 87L313.792 90.43L313.872 90.4778L313.953 90.5219L315.85 87ZM308.55 83.3L310.216 79.6637L310.199 79.6558L310.182 79.648L308.55 83.3ZM296.05 74.1L292.52 75.9824L292.534 76.0074L292.547 76.0323L296.05 74.1ZM299.95 55.6L302.183 58.9189L302.189 58.9144L302.196 58.9099L299.95 55.6ZM323.65 52.8L322.723 56.6912L322.777 56.7039L322.83 56.7152L323.65 52.8ZM332.25 55.8L335.939 57.3469L337.399 53.8634L334.005 52.2057L332.25 55.8ZM328.35 65.1L326.683 68.7363L330.44 70.4583L332.039 66.6469L328.35 65.1ZM323.45 63.2L322.045 66.9453L322.137 66.9798L322.231 67.0097L323.45 63.2ZM318.75 61.8L317.863 65.7005L317.882 65.7047L317.9 65.7087L318.75 61.8ZM309.05 62.6L311.269 65.9282L311.331 65.8866L311.392 65.8427L309.05 62.6ZM308.15 69L304.861 71.2768L304.904 71.3393L304.95 71.4L308.15 69ZM311.55 71.5L309.704 75.0489L309.704 75.0489L311.55 71.5ZM318.65 74.8L317.055 78.4683L317.123 78.4979L317.192 78.525L318.65 74.8ZM326.45 78.7L324.255 82.0442L324.292 82.0685L324.33 82.092L326.45 78.7ZM331.25 83.7L327.72 85.5824L327.744 85.6275L327.77 85.672L331.25 83.7ZM328.95 91.3C328.95 94.2976 328.289 96.5885 327.168 98.364L333.932 102.636C336.01 99.3448 336.95 95.5024 336.95 91.3H328.95ZM327.194 98.3232C326.105 100.001 324.44 101.385 321.951 102.392L324.949 109.808C328.726 108.282 331.794 105.932 333.906 102.677L327.194 98.3232ZM321.951 102.392C319.443 103.405 316.06 104 311.65 104V112C316.706 112 321.19 111.328 324.949 109.808L321.951 102.392ZM311.65 104C308.234 104 305.375 103.746 303.034 103.278L301.465 111.122C304.458 111.721 307.865 112 311.65 112V104ZM303.034 103.278C300.672 102.805 298.403 102.068 296.22 101.065L292.88 108.335C295.63 109.598 298.494 110.528 301.465 111.122L303.034 103.278ZM298.55 104.7V94H290.55V104.7H298.55ZM292.834 97.6131C295.718 98.9832 298.796 100.126 302.062 101.049L304.238 93.3508C301.37 92.5403 298.715 91.5501 296.266 90.3869L292.834 97.6131ZM302.083 101.055C305.471 101.992 308.671 102.5 311.65 102.5V94.5C309.562 94.5 307.095 94.141 304.216 93.3448L302.083 101.055ZM311.65 102.5C314.942 102.5 318.241 101.95 320.649 100.023L315.651 93.7765C315.392 93.9837 314.358 94.5 311.65 94.5V102.5ZM320.649 100.023C322.989 98.1515 324.15 95.5391 324.15 92.6H316.15C316.15 93.2608 315.978 93.5152 315.651 93.7765L320.649 100.023ZM324.15 92.6C324.15 90.7301 323.608 88.9673 322.539 87.4232L315.961 91.9768C316.092 92.1661 316.15 92.3366 316.15 92.6H324.15ZM322.656 87.6036C321.546 85.7997 319.619 84.4865 317.746 83.4781L313.953 90.5219C314.681 90.9135 315.183 91.2462 315.512 91.5074C315.856 91.7803 315.9 91.8881 315.843 91.7964L322.656 87.6036ZM317.908 83.57C316.052 82.4565 313.462 81.1512 310.216 79.6637L306.883 86.9363C310.038 88.3821 312.314 89.5435 313.792 90.43L317.908 83.57ZM310.182 79.648C307.189 78.3107 304.81 77.0189 302.993 75.7883L298.506 82.4117C300.823 83.9811 303.644 85.4893 306.918 86.952L310.182 79.648ZM302.993 75.7883C301.38 74.6957 300.276 73.4799 299.552 72.1677L292.547 76.0323C293.957 78.5868 295.986 80.7043 298.506 82.4117L302.993 75.7883ZM299.579 72.2176C298.905 70.954 298.45 69.148 298.45 66.6H290.45C290.45 70.052 291.061 73.246 292.52 75.9824L299.579 72.2176ZM298.45 66.6C298.45 62.9061 299.746 60.5579 302.183 58.9189L297.717 52.2811C292.82 55.5754 290.45 60.5606 290.45 66.6H298.45ZM302.196 58.9099C305.08 56.9528 309.091 55.8 314.55 55.8V47.8C308.009 47.8 302.286 49.1805 297.704 52.2901L302.196 58.9099ZM314.55 55.8C317.546 55.8 320.264 56.1058 322.723 56.6912L324.576 48.9088C321.435 48.1609 318.087 47.8 314.55 47.8V55.8ZM322.83 56.7152C325.346 57.2416 327.899 58.1267 330.494 59.3943L334.005 52.2057C330.867 50.6733 327.687 49.5584 324.469 48.8848L322.83 56.7152ZM328.561 54.2531L324.661 63.5531L332.039 66.6469L335.939 57.3469L328.561 54.2531ZM330.016 61.4637C328.272 60.6641 326.489 59.9727 324.669 59.3903L322.231 67.0097C323.744 67.4939 325.228 68.0693 326.683 68.7363L330.016 61.4637ZM324.854 59.4547C323.089 58.7928 321.337 58.2691 319.6 57.8913L317.9 65.7087C319.229 65.9976 320.61 66.4072 322.045 66.9453L324.854 59.4547ZM319.636 57.8995C317.886 57.5017 316.122 57.3 314.35 57.3V65.3C315.511 65.3 316.68 65.4316 317.863 65.7005L319.636 57.8995ZM314.35 57.3C311.625 57.3 308.881 57.788 306.708 59.3573L311.392 65.8427C311.619 65.6787 312.408 65.3 314.35 65.3V57.3ZM306.831 59.2718C304.437 60.8678 303.25 63.3299 303.25 66.1H311.25C311.25 65.9774 311.262 65.9102 311.267 65.8865C311.272 65.865 311.272 65.8757 311.257 65.9044C311.242 65.9339 311.224 65.9573 311.213 65.9694C311.203 65.98 311.215 65.9638 311.269 65.9282L306.831 59.2718ZM303.25 66.1C303.25 67.9699 303.792 69.7327 304.861 71.2768L311.439 66.7232C311.308 66.5339 311.25 66.3634 311.25 66.1H303.25ZM304.95 71.4C306.102 72.9368 307.894 74.1072 309.704 75.0489L313.395 67.9511C312.688 67.5835 312.176 67.2643 311.819 67.0024C311.451 66.7314 311.341 66.5881 311.35 66.6L304.95 71.4ZM309.704 75.0489C311.493 75.9788 313.958 77.1217 317.055 78.4683L320.245 71.1317C317.209 69.8116 314.94 68.7545 313.395 67.9511L309.704 75.0489ZM317.192 78.525C320.071 79.6514 322.409 80.8328 324.255 82.0442L328.644 75.3558C326.224 73.7672 323.362 72.3486 320.107 71.075L317.192 78.525ZM324.33 82.092C325.936 83.0959 327.018 84.2663 327.72 85.5824L334.779 81.8176C333.348 79.1337 331.23 76.9707 328.57 75.308L324.33 82.092ZM327.77 85.672C328.467 86.9027 328.95 88.7017 328.95 91.3H336.95C336.95 87.7649 336.299 84.4973 334.73 81.7279L327.77 85.672ZM367.327 52.8H371.327V48.8H367.327V52.8ZM367.327 107V111H371.327V107H367.327ZM354.127 107H350.127V111H354.127V107ZM354.127 52.8V48.8H350.127V52.8H354.127ZM365.827 33.4L363.502 36.6549L363.555 36.6924L363.608 36.7282L365.827 33.4ZM365.827 43.7L368.152 46.9549L368.202 46.9191L368.251 46.8817L365.827 43.7ZM355.627 43.7L353.203 46.8817L353.252 46.9191L353.302 46.9549L355.627 43.7ZM355.627 33.4L357.846 36.7282L357.9 36.6924L357.952 36.6549L355.627 33.4ZM363.327 52.8V107H371.327V52.8H363.327ZM367.327 103H354.127V111H367.327V103ZM358.127 107V52.8H350.127V107H358.127ZM354.127 56.8H367.327V48.8H354.127V56.8ZM360.827 35.9C362.034 35.9 362.863 36.1985 363.502 36.6549L368.152 30.1451C365.991 28.6015 363.487 27.9 360.827 27.9V35.9ZM363.608 36.7282C363.614 36.7319 363.614 36.7316 363.619 36.7377C363.625 36.7461 363.659 36.7902 363.703 36.898C363.799 37.1304 363.927 37.6208 363.927 38.5H371.927C371.927 35.3619 371.017 32.0528 368.046 30.0718L363.608 36.7282ZM363.927 38.5C363.927 40.1385 363.478 40.4611 363.403 40.5183L368.251 46.8817C370.976 44.8055 371.927 41.6615 371.927 38.5H363.927ZM363.502 40.4451C362.863 40.9015 362.034 41.2 360.827 41.2V49.2C363.487 49.2 365.991 48.4985 368.152 46.9549L363.502 40.4451ZM360.827 41.2C359.423 41.2 358.546 40.8695 357.952 40.4451L353.302 46.9549C355.508 48.5305 358.098 49.2 360.827 49.2V41.2ZM358.051 40.5183C357.976 40.4611 357.527 40.1385 357.527 38.5H349.527C349.527 41.6615 350.478 44.8055 353.203 46.8817L358.051 40.5183ZM357.527 38.5C357.527 37.6208 357.655 37.1304 357.751 36.898C357.795 36.7902 357.829 36.7461 357.836 36.7377C357.841 36.7316 357.84 36.7319 357.846 36.7282L353.408 30.0718C350.437 32.0528 349.527 35.3619 349.527 38.5H357.527ZM357.952 36.6549C358.546 36.2305 359.423 35.9 360.827 35.9V27.9C358.098 27.9 355.508 28.5695 353.302 30.1451L357.952 36.6549ZM438.162 52.8H442.162V48.8H438.162V52.8ZM438.162 107V111H442.162V107H438.162ZM427.962 107L424.075 107.944L424.817 111H427.962V107ZM426.262 100L430.149 99.056L429.406 96H426.262V100ZM425.562 100V96H423.24L422.089 98.0154L425.562 100ZM421.462 104.6L423.711 107.908L423.755 107.878L423.799 107.846L421.462 104.6ZM415.962 107.1L414.931 103.235L414.871 103.251L414.812 103.269L415.962 107.1ZM400.062 105.9L398.238 109.46L398.238 109.46L400.062 105.9ZM393.662 99.5L390.084 101.289L390.108 101.338L390.134 101.387L393.662 99.5ZM391.462 52.8V48.8H387.462V52.8H391.462ZM404.762 52.8H408.762V48.8H404.762V52.8ZM406.762 94.8L403.4 96.9685L403.441 97.032L403.485 97.0938L406.762 94.8ZM420.362 95.7L422.934 98.7628L422.94 98.7582L422.945 98.7535L420.362 95.7ZM423.962 89.4L427.848 90.3478L427.848 90.3478L423.962 89.4ZM424.962 52.8V48.8H420.962V52.8H424.962ZM434.162 52.8V107H442.162V52.8H434.162ZM438.162 103H427.962V111H438.162V103ZM431.849 106.056L430.149 99.056L422.375 100.944L424.075 107.944L431.849 106.056ZM426.262 96H425.562V104H426.262V96ZM422.089 98.0154C421.292 99.409 420.305 100.504 419.124 101.354L423.799 107.846C425.952 106.296 427.697 104.324 429.034 101.985L422.089 98.0154ZM419.212 101.292C417.928 102.166 416.508 102.814 414.931 103.235L416.992 110.965C419.415 110.319 421.662 109.301 423.711 107.908L419.212 101.292ZM414.812 103.269C413.193 103.754 411.514 104 409.762 104V112C412.276 112 414.73 111.646 417.111 110.931L414.812 103.269ZM409.762 104C406.527 104 403.945 103.395 401.885 102.34L398.238 109.46C401.645 111.205 405.529 112 409.762 112V104ZM401.885 102.34C399.92 101.334 398.362 99.8062 397.189 97.6134L390.134 101.387C392.028 104.927 394.736 107.666 398.238 109.46L401.885 102.34ZM397.239 97.7111C396.139 95.5108 395.462 92.4138 395.462 88.2H387.462C387.462 93.1862 388.251 97.6226 390.084 101.289L397.239 97.7111ZM395.462 88.2V52.8H387.462V88.2H395.462ZM391.462 56.8H404.762V48.8H391.462V56.8ZM400.762 52.8V85.7H408.762V52.8H400.762ZM400.762 85.7C400.762 90.0331 401.464 93.967 403.4 96.9685L410.123 92.6315C409.392 91.4996 408.762 89.3669 408.762 85.7H400.762ZM403.485 97.0938C405.808 100.413 409.394 101.8 413.362 101.8V93.8C411.329 93.8 410.515 93.1874 410.038 92.5061L403.485 97.0938ZM413.362 101.8C416.948 101.8 420.316 100.963 422.934 98.7628L417.789 92.6372C417.074 93.2375 415.775 93.8 413.362 93.8V101.8ZM422.945 98.7535C425.465 96.6213 427.029 93.7038 427.848 90.3478L420.075 88.4522C419.561 90.5629 418.724 91.8454 417.778 92.6465L422.945 98.7535ZM427.848 90.3478C428.614 87.2045 428.962 83.4972 428.962 79.3H420.962C420.962 83.1028 420.642 86.1288 420.075 88.4522L427.848 90.3478ZM428.962 79.3V52.8H420.962V79.3H428.962ZM424.962 56.8H438.162V48.8H424.962V56.8ZM535.399 56.5L532.479 59.2337L532.479 59.2337L535.399 56.5ZM539.799 107V111H543.799V107H539.799ZM526.699 107H522.699V111H526.699V107ZM524.699 65.1L521.338 67.2685L521.354 67.2938L521.371 67.3188L524.699 65.1ZM510.299 66.3L513.792 68.2495L513.792 68.2495L510.299 66.3ZM507.899 107V111H511.899V107H507.899ZM494.699 107H490.699V111H494.699V107ZM493.799 67.4L497.594 66.1351L497.594 66.1351L493.799 67.4ZM491.099 63.4L488.643 66.5574L488.699 66.6011L488.757 66.6427L491.099 63.4ZM480.199 64.2L482.896 67.1539L482.93 67.1226L482.964 67.0906L480.199 64.2ZM476.899 70.4L473.013 69.4522L473.002 69.4971L472.992 69.5424L476.899 70.4ZM475.999 107V111H479.999V107H475.999ZM462.699 107H458.699V111H462.699V107ZM462.699 52.8V48.8H458.699V52.8H462.699ZM472.899 52.8L476.763 51.766L475.969 48.8H472.899V52.8ZM474.799 59.9L470.935 60.934L471.729 63.9H474.799V59.9ZM475.399 59.9V63.9H477.794L478.925 61.7889L475.399 59.9ZM479.099 55.3L476.634 52.15L476.6 52.1767L476.566 52.2042L479.099 55.3ZM484.299 52.7L485.363 56.556L485.406 56.5441L485.448 56.5313L484.299 52.7ZM499.999 53.9L498.064 57.401L498.119 57.431L498.174 57.4593L499.999 53.9ZM505.999 60.2L502.405 61.9553L503.501 64.2H505.999V60.2ZM506.699 60.2V64.2H509.027L510.177 62.176L506.699 60.2ZM513.299 53.8L511.579 50.1886L511.562 50.1967L511.545 50.2049L513.299 53.8ZM522.199 55.8C527.379 55.8 530.548 57.1708 532.479 59.2337L538.319 53.7663C534.384 49.5625 528.752 47.8 522.199 47.8V55.8ZM532.479 59.2337C534.393 61.2783 535.799 65.1098 535.799 71.7H543.799C543.799 64.2902 542.272 57.9884 538.319 53.7663L532.479 59.2337ZM535.799 71.7V107H543.799V71.7H535.799ZM539.799 103H526.699V111H539.799V103ZM530.699 107V74.1H522.699V107H530.699ZM530.699 74.1C530.699 69.7819 530.002 65.8438 528.027 62.8812L521.371 67.3188C522.062 68.3562 522.699 70.4181 522.699 74.1H530.699ZM528.06 62.9315C525.878 59.5489 522.437 58 518.499 58V66C520.161 66 520.853 66.5177 521.338 67.2685L528.06 62.9315ZM518.499 58C513.491 58 509.251 59.9699 506.806 64.3505L513.792 68.2495C514.547 66.8968 515.774 66 518.499 66V58ZM506.806 64.3505C504.721 68.0861 503.899 73.0525 503.899 78.8H511.899C511.899 73.6142 512.677 70.2473 513.792 68.2495L506.806 64.3505ZM503.899 78.8V107H511.899V78.8H503.899ZM507.899 103H494.699V111H507.899V103ZM498.699 107V74.1H490.699V107H498.699ZM498.699 74.1C498.699 71.1636 498.372 68.4713 497.594 66.1351L490.004 68.6649C490.426 69.9287 490.699 71.7031 490.699 74.1H498.699ZM497.594 66.1351C496.804 63.7644 495.49 61.6371 493.441 60.1573L488.757 66.6427C489.108 66.8962 489.595 67.4356 490.004 68.6649L497.594 66.1351ZM493.555 60.2426C491.505 58.6479 489.047 58 486.499 58V66C487.684 66 488.294 66.2854 488.643 66.5574L493.555 60.2426ZM486.499 58C483.079 58 479.89 58.9599 477.434 61.3094L482.964 67.0906C483.574 66.5068 484.585 66 486.499 66V58ZM477.502 61.2461C475.207 63.3413 473.803 66.2142 473.013 69.4522L480.785 71.3478C481.329 69.1191 482.124 67.8587 482.896 67.1539L477.502 61.2461ZM472.992 69.5424C472.31 72.6489 471.999 76.3235 471.999 80.5H479.999C479.999 76.6765 480.288 73.6177 480.806 71.2576L472.992 69.5424ZM471.999 80.5V107H479.999V80.5H471.999ZM475.999 103H462.699V111H475.999V103ZM466.699 107V52.8H458.699V107H466.699ZM462.699 56.8H472.899V48.8H462.699V56.8ZM469.035 53.834L470.935 60.934L478.663 58.866L476.763 51.766L469.035 53.834ZM474.799 63.9H475.399V55.9H474.799V63.9ZM478.925 61.7889C479.706 60.3315 480.618 59.2257 481.632 58.3958L476.566 52.2042C474.647 53.7743 473.092 55.7352 471.873 58.0111L478.925 61.7889ZM481.564 58.45C482.669 57.5854 483.923 56.9531 485.363 56.556L483.235 48.844C480.808 49.5135 478.596 50.6146 476.634 52.15L481.564 58.45ZM485.448 56.5313C487.067 56.0456 488.746 55.8 490.499 55.8V47.8C487.985 47.8 485.531 48.1544 483.15 48.8687L485.448 56.5313ZM490.499 55.8C493.827 55.8 496.28 56.4149 498.064 57.401L501.934 50.399C498.651 48.5851 494.771 47.8 490.499 47.8V55.8ZM498.174 57.4593C499.933 58.3616 501.347 59.7899 502.405 61.9553L509.593 58.4447C507.851 54.8768 505.265 52.1051 501.824 50.3407L498.174 57.4593ZM505.999 64.2H506.699V56.2H505.999V64.2ZM510.177 62.176C511.491 59.864 513.123 58.3366 515.053 57.3951L511.545 50.2049C508.009 51.9301 505.241 54.6694 503.221 58.224L510.177 62.176ZM515.019 57.4114C517.276 56.3366 519.654 55.8 522.199 55.8V47.8C518.477 47.8 514.922 48.5967 511.579 50.1886L515.019 57.4114Z" fill="#86E0D1" mask="url(#path-1-outside-1_588557_674)"/>
<g clip-path="url(#clip0_588557_674)">
<rect x="-9.99902" y="21" width="99.9996" height="100" rx="49.9998" fill="#170202"/>
<path d="M39.8748 34.5L71.5929 89.4375H8.1568L39.8748 34.5Z" fill="#FDE9D5"/>
<path d="M39.8748 34.5L71.5929 89.4375H8.1568L39.8748 34.5Z" stroke="black"/>
<path d="M76.5 71.125L21.5627 102.843L21.5627 39.4068L76.5 71.125Z" fill="#86E0D1"/>
<path d="M71.4947 52.8695L39.8754 107.636L8.25601 52.8695L71.4947 52.8695Z" fill="#B6ECE3"/>
<path d="M58.1311 39.5055L58.1311 102.744L3.36475 71.125L58.1311 39.5055Z" fill="#86E0D1"/>
<path d="M40.0009 46L61.6514 83.5H18.3503L40.0009 46Z" fill="#FDE9D5"/>
<path d="M76 71.2283C76.0085 91.1144 59.8946 107.242 40.0086 107.251C20.1225 107.259 3.99484 91.1452 3.98633 71.2591C3.97782 51.373 20.0917 35.2452 39.9777 35.2367C59.8637 35.2282 75.9915 51.3421 76 71.2283Z" stroke="white" stroke-width="0.999998"/>
</g>
<defs>
<clipPath id="clip0_588557_674">
<rect y="31" width="77.7743" height="80" rx="38.8872" fill="white"/>
</clipPath>
</defs>
</svg>
