<svg width="426" height="426" viewBox="0 0 426 426" fill="none" xmlns="http://www.w3.org/2000/svg">
<rect width="426" height="426" rx="40" fill="#FEE3BE"/>
<mask id="path-2-inside-1_588482_227" fill="white">
<path fill-rule="evenodd" clip-rule="evenodd" d="M331.667 144.333C331.667 78.9796 278.687 26 213.333 26C147.98 26 95 78.9796 95 144.333V381H331.667V144.333Z"/>
</mask>
<path fill-rule="evenodd" clip-rule="evenodd" d="M331.667 144.333C331.667 78.9796 278.687 26 213.333 26C147.98 26 95 78.9796 95 144.333V381H331.667V144.333Z" fill="#F8F8F8"/>
<path d="M95 381H93.5V382.5H95V381ZM331.667 381V382.5H333.167V381H331.667ZM213.333 27.5C277.859 27.5 330.167 79.8081 330.167 144.333H333.167C333.167 78.1512 279.515 24.5 213.333 24.5V27.5ZM96.5 144.333C96.5 79.8081 148.808 27.5 213.333 27.5V24.5C147.151 24.5 93.5 78.1512 93.5 144.333H96.5ZM96.5 381V144.333H93.5V381H96.5ZM331.667 379.5H95V382.5H331.667V379.5ZM330.167 144.333V381H333.167V144.333H330.167Z" fill="black" mask="url(#path-2-inside-1_588482_227)"/>
<mask id="path-4-inside-2_588482_227" fill="white">
<path fill-rule="evenodd" clip-rule="evenodd" d="M331.667 144.333C331.667 78.9796 278.687 26 213.333 26C147.98 26 95 78.9796 95 144.333V381H331.667V144.333Z"/>
</mask>
<path d="M95 381H1V475H95V381ZM331.667 381V475H425.667V381H331.667ZM213.333 120C226.772 120 237.667 130.894 237.667 144.333H425.667C425.667 27.0649 330.602 -68 213.333 -68V120ZM189 144.333C189 130.894 199.894 120 213.333 120V-68C96.0649 -68 1 27.0649 1 144.333H189ZM189 381V144.333H1V381H189ZM331.667 287H95V475H331.667V287ZM237.667 144.333V381H425.667V144.333H237.667Z" fill="#FDE9D5" fill-opacity="0.4" mask="url(#path-4-inside-2_588482_227)"/>
<path d="M185.653 345.708H213.745" stroke="#FF664E" stroke-width="4" stroke-linecap="square"/>
<path d="M214.501 345.708H283.361" stroke="#FF664E" stroke-width="4" stroke-linecap="square"/>
<path d="M126 136L264 136" stroke="#E8C597" stroke-width="3"/>
<path d="M268 282H305" stroke="#E8C597" stroke-width="3"/>
<path d="M139 113L139 246" stroke="#E8C597" stroke-width="3"/>
<path d="M251 81L251 214" stroke="#E8C597" stroke-width="3"/>
<path d="M285 247L285 381" stroke="#E8C597" stroke-width="3"/>
<path d="M251.394 213.534L284.61 246.751" stroke="#E8C597" stroke-width="3"/>
<path d="M205 167L205 264" stroke="#E8C597" stroke-width="3"/>
<path d="M109.532 212.842L251.74 213.534" stroke="#E8C597" stroke-width="3"/>
<rect x="112.108" y="282.543" width="68.2008" height="81.3489" fill="#FF664E" stroke="black"/>
<path d="M140.673 317.335H150.361" stroke="black" stroke-width="2" stroke-linecap="square"/>
<path d="M153.821 317.335H160.952" stroke="black" stroke-width="2" stroke-linecap="square"/>
<path d="M163.509 317.335H176.657" stroke="black" stroke-width="2" stroke-linecap="square"/>
<path d="M140.673 322.871L149.669 322.871" stroke="black" stroke-width="2" stroke-linecap="square"/>
<path d="M148.285 328.407H156.513" stroke="black" stroke-width="2" stroke-linecap="square"/>
<path d="M140.673 328.407L144.825 328.407" stroke="black" stroke-width="2" stroke-linecap="square"/>
<path d="M153.821 322.871H157.809" stroke="black" stroke-width="2" stroke-linecap="square"/>
<path d="M162.817 322.871H176.657" stroke="black" stroke-width="2" stroke-linecap="square"/>
<path d="M159.357 328.407H176.657" stroke="black" stroke-width="2" stroke-linecap="square"/>
<rect x="121.104" y="317.835" width="12.8402" height="11.4561" stroke="black"/>
<path d="M121.124 317.527C121.379 314.215 124.147 311.607 127.525 311.607C130.902 311.607 133.67 314.215 133.925 317.527H133.914H133.892H133.87H133.848H133.827H133.806H133.784H133.763H133.742H133.721H133.7H133.679H133.658H133.638H133.617H133.597H133.576H133.556H133.536H133.516H133.496H133.476H133.456H133.436H133.417H133.397H133.378H133.359H133.339H133.32H133.301H133.282H133.263H133.244H133.226H133.207H133.189H133.17H133.152H133.133H133.115H133.097H133.079H133.061H133.043H133.025H133.008H132.99H132.973H132.955H132.938H132.921H132.903H132.886H132.869H132.852H132.835H132.819H132.802H132.785H132.769H132.752H132.736H132.719H132.703H132.687H132.671H132.655H132.639H132.623H132.607H132.591H132.575H132.56H132.544H132.529H132.513H132.498H132.483H132.468H132.452H132.437H132.422H132.407H132.393H132.378H132.363H132.348H132.334H132.319H132.305H132.29H132.276H132.262H132.248H132.233H132.219H132.205H132.191H132.177H132.163H132.15H132.136H132.122H132.109H132.095H132.082H132.068H132.055H132.041H132.028H132.015H132.002H131.989H131.976H131.963H131.95H131.937H131.924H131.911H131.898H131.886H131.873H131.861H131.848H131.835H131.823H131.811H131.798H131.786H131.774H131.762H131.749H131.737H131.725H131.713H131.701H131.689H131.677H131.666H131.654H131.642H131.63H131.619H131.607H131.595H131.584H131.572H131.561H131.55H131.538H131.527H131.516H131.504H131.493H131.482H131.471H131.46H131.448H131.437H131.426H131.415H131.404H131.394H131.383H131.372H131.361H131.35H131.339H131.329H131.318H131.307H131.297H131.286H131.276H131.265H131.254H131.244H131.234H131.223H131.213H131.202H131.192H131.182H131.171H131.161H131.151H131.141H131.13H131.12H131.11H131.1H131.09H131.08H131.069H131.059H131.049H131.039H131.029H131.019H131.009H130.999H130.989H130.98H130.97H130.96H130.95H130.94H130.93H130.92H130.911H130.901H130.891H130.881H130.871H130.862H130.852H130.842H130.833H130.823H130.813H130.803H130.794H130.784H130.774H130.765H130.755H130.746H130.736H130.726H130.717H130.707H130.697H130.688H130.678H130.669H130.659H130.649H130.64H130.63H130.621H130.611H130.601H130.592H130.582H130.573H130.563H130.553H130.544H130.534H130.525H130.515H130.505H130.496H130.486H130.477H130.467H130.457H130.448H130.438H130.428H130.419H130.409H130.399H130.39H130.38H130.37H130.361H130.351H130.341H130.331H130.322H130.312H130.302H130.292H130.282H130.273H130.263H130.253H130.243H130.233H130.223H130.213H130.203H130.193H130.184H130.174H130.164H130.153H130.143H130.133H130.123H130.113H130.103H130.093H130.083H130.073H130.062H130.052H130.042H130.032H130.021H130.011H130.001H129.99H129.98H129.969H129.959H129.948H129.938H129.927H129.917H129.906H129.896H129.885H129.874H129.863H129.853H129.842H129.831H129.82H129.809H129.798H129.787H129.776H129.765H129.754H129.743H129.732H129.721H129.71H129.699H129.687H129.676H129.665H129.653H129.642H129.63H129.619H129.607H129.596H129.584H129.572H129.561H129.549H129.537H129.525H129.514H129.502H129.49H129.478H129.466H129.453H129.441H129.429H129.417H129.405H129.392H129.38H129.367H129.355H129.342H129.33H129.317H129.304H129.292H129.279H129.266H129.253H129.24H129.227H129.214H129.201H129.188H129.175H129.161H129.148H129.135H129.121H129.108H129.094H129.081H129.067H129.053H129.039H129.026H129.012H128.998H128.984H128.97H128.955H128.941H128.927H128.913H128.898H128.884H128.869H128.855H128.84H128.825H128.81H128.795H128.781H128.766H128.75H128.735H128.72H128.705H128.69H128.674H128.659H128.643H128.627H128.612H128.596H128.58H128.564H128.548H128.532H128.516H128.5H128.484H128.467H128.451H128.434H128.418H128.401H128.384H128.368H128.351H128.334H128.317H128.3H128.282H128.265H128.248H128.23H128.213H128.195H128.177H128.16H128.142H128.124H128.106H128.088H128.069H128.051H128.033H128.014H127.996H127.977H127.959H127.94H127.921H127.902H127.883H127.864H127.844H127.825H127.806H127.786H127.766H127.747H127.727H127.707H127.687H127.667H127.647H127.627H127.606H127.586H127.565H127.545H127.524H127.503H127.482H127.461H127.44H127.419H127.397H127.376H127.354H127.333H127.311H127.289H127.267H127.245H127.223H127.201H127.179H127.156H127.134H127.112H127.09H127.068H127.047H127.025H127.004H126.982H126.961H126.94H126.919H126.899H126.878H126.858H126.837H126.817H126.797H126.777H126.757H126.737H126.718H126.698H126.679H126.66H126.64H126.621H126.603H126.584H126.565H126.547H126.528H126.51H126.492H126.474H126.456H126.438H126.42H126.402H126.385H126.368H126.35H126.333H126.316H126.299H126.282H126.266H126.249H126.233H126.216H126.2H126.184H126.168H126.152H126.136H126.12H126.104H126.089H126.073H126.058H126.043H126.027H126.012H125.997H125.983H125.968H125.953H125.939H125.924H125.91H125.896H125.881H125.867H125.853H125.839H125.826H125.812H125.798H125.785H125.771H125.758H125.745H125.731H125.718H125.705H125.692H125.68H125.667H125.654H125.642H125.629H125.617H125.604H125.592H125.58H125.568H125.556H125.544H125.532H125.52H125.509H125.497H125.485H125.474H125.463H125.451H125.44H125.429H125.418H125.407H125.396H125.385H125.374H125.363H125.353H125.342H125.332H125.321H125.311H125.3H125.29H125.28H125.27H125.26H125.25H125.24H125.23H125.22H125.21H125.201H125.191H125.182H125.172H125.163H125.153H125.144H125.135H125.125H125.116H125.107H125.098H125.089H125.08H125.071H125.063H125.054H125.045H125.036H125.028H125.019H125.011H125.002H124.994H124.985H124.977H124.969H124.96H124.952H124.944H124.936H124.928H124.92H124.912H124.904H124.896H124.888H124.88H124.873H124.865H124.857H124.849H124.842H124.834H124.827H124.819H124.812H124.804H124.797H124.789H124.782H124.775H124.767H124.76H124.753H124.746H124.739H124.731H124.724H124.717H124.71H124.703H124.696H124.689H124.682H124.675H124.668H124.662H124.655H124.648H124.641H124.634H124.627H124.621H124.614H124.607H124.6H124.594H124.587H124.58H124.574H124.567H124.561H124.554H124.547H124.541H124.534H124.528H124.521H124.515H124.508H124.502H124.495H124.489H124.482H124.476H124.469H124.463H124.456H124.45H124.443H124.437H124.43H124.424H124.417H124.411H124.405H124.398H124.392H124.385H124.379H124.372H124.366H124.359H124.353H124.346H124.34H124.334H124.327H124.321H124.314H124.308H124.301H124.295H124.288H124.281H124.275H124.268H124.262H124.255H124.248H124.242H124.235H124.229H124.222H124.215H124.209H124.202H124.195H124.188H124.182H124.175H124.168H124.161H124.154H124.147H124.14H124.134H124.127H124.12H124.113H124.106H124.099H124.091H124.084H124.077H124.07H124.063H124.056H124.048H124.041H124.034H124.026H124.019H124.012H124.004H123.997H123.989H123.982H123.974H123.966H123.959H123.951H123.943H123.936H123.928H123.92H123.912H123.904H123.896H123.888H123.88H123.872H123.864H123.856H123.847H123.839H123.831H123.822H123.814H123.806H123.797H123.789H123.78H123.771H123.763H123.754H123.745H123.736H123.727H123.718H123.709H123.7H123.691H123.682H123.672H123.663H123.654H123.644H123.635H123.625H123.616H123.606H123.596H123.587H123.577H123.567H123.557H123.547H123.537H123.526H123.516H123.506H123.496H123.485H123.475H123.464H123.453H123.443H123.432H123.421H123.41H123.399H123.388H123.377H123.366H123.354H123.343H123.332H123.32H123.309H123.297H123.285H123.273H123.261H123.249H123.237H123.225H123.213H123.201H123.188H123.176H123.163H123.151H123.138H123.125H123.112H123.099H123.086H123.073H123.06H123.046H123.033H123.019H123.006H122.992H122.978H122.964H122.95H122.936H122.922H122.908H122.894H122.879H122.865H122.85H122.835H122.82H122.806H122.79H122.775H122.76H122.745H122.729H122.714H122.698H122.682H122.667H122.651H122.635H122.618H122.602H122.586H122.569H122.553H122.536H122.519H122.502H122.485H122.468H122.451H122.434H122.416H122.399H122.381H122.363H122.345H122.327H122.309H122.291H122.272H122.254H122.235H122.216H122.198H122.179H122.16H122.14H122.121H122.102H122.082H122.062H122.042H122.022H122.002H121.982H121.962H121.941H121.921H121.9H121.879H121.858H121.837H121.816H121.795H121.773H121.751H121.73H121.708H121.686H121.664H121.641H121.619H121.596H121.574H121.551H121.528H121.505H121.482H121.458H121.435H121.411H121.387H121.363H121.339H121.315H121.29H121.266H121.241H121.216H121.192H121.166H121.141H121.124Z" stroke="black"/>
<circle cx="127.525" cy="347.092" r="6.67008" fill="#FDE9D5" stroke="black" stroke-width="0.5"/>
<circle cx="147.593" cy="347.092" r="6.67008" fill="#B7F7EE" stroke="black" stroke-width="0.5"/>
<circle cx="166.277" cy="347.092" r="6.67008" fill="#FFE4DF" stroke="black" stroke-width="0.5"/>
<g filter="url(#filter0_b_588482_227)">
<path d="M119.221 303.841L132.369 294.153L153.821 306.263L175.619 284.465" stroke="#B7F7EE" stroke-dasharray="2 2"/>
</g>
<rect x="119.028" y="284.619" width="56.4366" height="21.8363" stroke="black"/>
<path d="M183.5 342H181V350H183.5L186 347.913V343.739L183.5 342Z" fill="black" stroke="black"/>
<defs>
<filter id="filter0_b_588482_227" x="18.9243" y="184.111" width="257.048" height="222.774" filterUnits="userSpaceOnUse" color-interpolation-filters="sRGB">
<feFlood flood-opacity="0" result="BackgroundImageFix"/>
<feGaussianBlur in="BackgroundImageFix" stdDeviation="50"/>
<feComposite in2="SourceAlpha" operator="in" result="effect1_backgroundBlur_588482_227"/>
<feBlend mode="normal" in="SourceGraphic" in2="effect1_backgroundBlur_588482_227" result="shape"/>
</filter>
</defs>
</svg>
