<svg width="684" height="1026" viewBox="0 0 684 1026" fill="none" xmlns="http://www.w3.org/2000/svg">
<mask id="path-1-inside-1_221_2" fill="white">
<path fill-rule="evenodd" clip-rule="evenodd" d="M684 342C684 153.119 530.881 0 342 0C153.119 0 0 153.119 0 342V1026H684V342Z"/>
</mask>
<path fill-rule="evenodd" clip-rule="evenodd" d="M684 342C684 153.119 530.881 0 342 0C153.119 0 0 153.119 0 342V1026H684V342Z" fill="#F8F8F8"/>
<path d="M0 1026H-3V1029H0V1026ZM684 1026V1029H687V1026H684ZM342 3C529.225 3 681 154.775 681 342H687C687 151.462 532.538 -3 342 -3V3ZM3 342C3 154.775 154.775 3 342 3V-3C151.462 -3 -3 151.462 -3 342H3ZM3 1026V342H-3V1026H3ZM684 1023H0V1029H684V1023ZM681 342V1026H687V342H681Z" fill="black" mask="url(#path-1-inside-1_221_2)"/>
<mask id="path-3-inside-2_221_2" fill="white">
<path fill-rule="evenodd" clip-rule="evenodd" d="M684 342C684 153.119 530.881 0 342 0C153.119 0 0 153.119 0 342V1026H684V342Z"/>
</mask>
<path d="M0 1026H-276V1302H0V1026ZM684 1026V1302H960V1026H684ZM342 276C378.451 276 408 305.549 408 342H960C960 0.688047 683.312 -276 342 -276V276ZM276 342C276 305.549 305.549 276 342 276V-276C0.688031 -276 -276 0.688031 -276 342H276ZM276 1026V342H-276V1026H276ZM684 750H0V1302H684V750ZM408 342V1026H960V342H408Z" fill="#FDE9D5" fill-opacity="0.4" mask="url(#path-3-inside-2_221_2)"/>
<path d="M262 924H343.189" stroke="#FF664E" stroke-width="8" stroke-linecap="square"/>
<path d="M345.375 924H544.39" stroke="#FF664E" stroke-width="8" stroke-linecap="square"/>
<path d="M90 318L488 318" stroke="#E8C597" stroke-width="6"/>
<path d="M500 740H606" stroke="#E8C597" stroke-width="6"/>
<path d="M126 252L126 636" stroke="#E8C597" stroke-width="6"/>
<path d="M452 158L452 542" stroke="#E8C597" stroke-width="6"/>
<path d="M548 638L548 1026" stroke="#E8C597" stroke-width="6"/>
<path d="M452 542L548 638" stroke="#E8C597" stroke-width="6"/>
<path d="M318 408L318 688" stroke="#E8C597" stroke-width="6"/>
<path d="M42 540L453 542" stroke="#E8C597" stroke-width="6"/>
<rect x="49" y="741" width="198" height="236" fill="#FF664E" stroke="black" stroke-width="2"/>
<path d="M132 842H160" stroke="black" stroke-width="4" stroke-linecap="square"/>
<path d="M170 842H190.61" stroke="black" stroke-width="4" stroke-linecap="square"/>
<path d="M198 842H236" stroke="black" stroke-width="4" stroke-linecap="square"/>
<path d="M132 858L158 858" stroke="black" stroke-width="4" stroke-linecap="square"/>
<path d="M154 874H177.781" stroke="black" stroke-width="4" stroke-linecap="square"/>
<path d="M132 874L144 874" stroke="black" stroke-width="4" stroke-linecap="square"/>
<path d="M170 858H181.527" stroke="black" stroke-width="4" stroke-linecap="square"/>
<path d="M196 858H236" stroke="black" stroke-width="4" stroke-linecap="square"/>
<path d="M186 874H236" stroke="black" stroke-width="4" stroke-linecap="square"/>
<rect x="75" y="843" width="38" height="34" stroke="black" stroke-width="2"/>
<path d="M75.0259 843C75.5459 832.971 83.842 825 94 825C104.158 825 112.454 832.971 112.974 843H112.915H112.85H112.785H112.721H112.656H112.592H112.529H112.465H112.402H112.339H112.277H112.215H112.153H112.091H112.03H111.969H111.908H111.847H111.787H111.727H111.668H111.608H111.549H111.49H111.432H111.373H111.315H111.258H111.2H111.143H111.086H111.029H110.973H110.917H110.861H110.805H110.75H110.695H110.64H110.585H110.531H110.477H110.423H110.37H110.316H110.263H110.21H110.158H110.105H110.053H110.001H109.95H109.898H109.847H109.796H109.746H109.695H109.645H109.595H109.545H109.496H109.447H109.398H109.349H109.3H109.252H109.204H109.156H109.108H109.061H109.013H108.966H108.919H108.873H108.826H108.78H108.734H108.689H108.643H108.598H108.553H108.508H108.463H108.418H108.374H108.33H108.286H108.242H108.199H108.155H108.112H108.069H108.026H107.984H107.941H107.899H107.857H107.815H107.774H107.732H107.691H107.65H107.609H107.568H107.528H107.487H107.447H107.407H107.367H107.328H107.288H107.249H107.21H107.171H107.132H107.093H107.054H107.016H106.978H106.94H106.902H106.864H106.827H106.789H106.752H106.715H106.678H106.641H106.604H106.568H106.531H106.495H106.459H106.423H106.387H106.352H106.316H106.281H106.246H106.21H106.175H106.141H106.106H106.071H106.037H106.002H105.968H105.934H105.9H105.866H105.833H105.799H105.766H105.732H105.699H105.666H105.633H105.6H105.567H105.534H105.502H105.469H105.437H105.405H105.373H105.341H105.309H105.277H105.245H105.213H105.182H105.15H105.119H105.088H105.057H105.025H104.994H104.964H104.933H104.902H104.871H104.841H104.81H104.78H104.75H104.719H104.689H104.659H104.629H104.599H104.569H104.54H104.51H104.48H104.451H104.421H104.392H104.362H104.333H104.304H104.274H104.245H104.216H104.187H104.158H104.129H104.1H104.072H104.043H104.014H103.985H103.957H103.928H103.9H103.871H103.843H103.814H103.786H103.758H103.729H103.701H103.673H103.645H103.617H103.589H103.561H103.532H103.504H103.476H103.448H103.421H103.393H103.365H103.337H103.309H103.281H103.253H103.225H103.198H103.17H103.142H103.114H103.087H103.059H103.031H103.003H102.976H102.948H102.92H102.893H102.865H102.837H102.809H102.782H102.754H102.726H102.698H102.671H102.643H102.615H102.587H102.56H102.532H102.504H102.476H102.448H102.42H102.392H102.365H102.337H102.309H102.281H102.253H102.225H102.196H102.168H102.14H102.112H102.084H102.056H102.027H101.999H101.971H101.942H101.914H101.885H101.857H101.828H101.8H101.771H101.742H101.713H101.685H101.656H101.627H101.598H101.569H101.54H101.511H101.481H101.452H101.423H101.394H101.364H101.335H101.305H101.275H101.246H101.216H101.186H101.156H101.126H101.096H101.066H101.035H101.005H100.975H100.944H100.914H100.883H100.852H100.822H100.791H100.76H100.729H100.697H100.666H100.635H100.603H100.572H100.54H100.508H100.477H100.445H100.413H100.38H100.348H100.316H100.283H100.251H100.218H100.185H100.152H100.119H100.086H100.053H100.02H99.9861H99.9525H99.9188H99.8849H99.851H99.8169H99.7827H99.7483H99.7139H99.6793H99.6445H99.6097H99.5747H99.5396H99.5043H99.4689H99.4334H99.3977H99.3619H99.326H99.2899H99.2537H99.2173H99.1808H99.1441H99.1073H99.0703H99.0332H98.9959H98.9585H98.9209H98.8832H98.8453H98.8072H98.769H98.7307H98.6922H98.6535H98.6146H98.5756H98.5364H98.4971H98.4575H98.4179H98.378H98.338H98.2978H98.2574H98.2168H98.1761H98.1352H98.0941H98.0528H98.0114H97.9697H97.9279H97.8859H97.8437H97.8013H97.7587H97.716H97.673H97.6299H97.5865H97.543H97.4993H97.4553H97.4112H97.3669H97.3223H97.2776H97.2327H97.1875H97.1422H97.0966H97.0509H97.0049H96.9587H96.9123H96.8657H96.8189H96.7718H96.7246H96.6771H96.6294H96.5815H96.5333H96.485H96.4364H96.3876H96.3385H96.2893H96.2398H96.19H96.1401H96.0899H96.0395H95.9888H95.9379H95.8868H95.8354H95.7838H95.7319H95.6798H95.6275H95.5749H95.5221H95.469H95.4156H95.3621H95.3082H95.2541H95.1998H95.1452H95.0904H95.0353H94.9799H94.9243H94.8684H94.8122H94.7558H94.6992H94.6422H94.585H94.5275H94.4698H94.4118H94.3535H94.2949H94.2361H94.177H94.1176H94.058H93.998H93.9378H93.8773H93.8165H93.7554H93.6941H93.6324H93.5705H93.5083H93.4458H93.383H93.3199H93.2565H93.1928H93.1288H93.0646H93H92.9355H92.8713H92.8076H92.7442H92.6813H92.6187H92.5564H92.4946H92.4332H92.3721H92.3114H92.251H92.1911H92.1315H92.0723H92.0134H91.9549H91.8968H91.839H91.7816H91.7246H91.6679H91.6115H91.5555H91.4999H91.4446H91.3897H91.3351H91.2808H91.2269H91.1734H91.1202H91.0673H91.0147H90.9625H90.9106H90.8591H90.8079H90.757H90.7064H90.6562H90.6063H90.5567H90.5074H90.4584H90.4098H90.3615H90.3134H90.2657H90.2184H90.1713H90.1245H90.078H90.0319H89.986H89.9404H89.8952H89.8502H89.8055H89.7611H89.717H89.6732H89.6297H89.5865H89.5435H89.5009H89.4585H89.4164H89.3746H89.3331H89.2918H89.2508H89.2101H89.1696H89.1294H89.0895H89.0499H89.0105H88.9713H88.9325H88.8939H88.8555H88.8174H88.7796H88.742H88.7046H88.6675H88.6307H88.5941H88.5577H88.5216H88.4857H88.4501H88.4147H88.3795H88.3446H88.3099H88.2754H88.2412H88.2072H88.1734H88.1398H88.1065H88.0733H88.0404H88.0078H87.9753H87.943H87.911H87.8791H87.8475H87.8161H87.7849H87.7538H87.723H87.6924H87.662H87.6318H87.6018H87.5719H87.5423H87.5129H87.4836H87.4545H87.4257H87.397H87.3684H87.3401H87.3119H87.284H87.2561H87.2285H87.2011H87.1738H87.1466H87.1197H87.0929H87.0663H87.0398H87.0135H86.9874H86.9614H86.9355H86.9099H86.8843H86.859H86.8337H86.8087H86.7837H86.7589H86.7343H86.7098H86.6854H86.6612H86.6371H86.6131H86.5893H86.5656H86.542H86.5186H86.4953H86.4721H86.449H86.426H86.4032H86.3805H86.3579H86.3354H86.313H86.2908H86.2686H86.2466H86.2246H86.2028H86.1811H86.1594H86.1379H86.1165H86.0951H86.0739H86.0527H86.0316H86.0107H85.9898H85.969H85.9483H85.9276H85.9071H85.8866H85.8662H85.8459H85.8256H85.8054H85.7853H85.7653H85.7453H85.7254H85.7056H85.6858H85.6661H85.6464H85.6268H85.6073H85.5878H85.5684H85.549H85.5297H85.5104H85.4911H85.4719H85.4528H85.4337H85.4146H85.3955H85.3765H85.3576H85.3386H85.3197H85.3008H85.282H85.2632H85.2444H85.2256H85.2069H85.1881H85.1694H85.1507H85.132H85.1133H85.0947H85.076H85.0574H85.0387H85.0201H85.0015H84.9828H84.9642H84.9456H84.9269H84.9083H84.8896H84.871H84.8523H84.8336H84.8149H84.7962H84.7775H84.7587H84.74H84.7212H84.7024H84.6835H84.6646H84.6458H84.6268H84.6079H84.5889H84.5698H84.5508H84.5317H84.5125H84.4933H84.4741H84.4548H84.4355H84.4161H84.3967H84.3772H84.3577H84.3381H84.3185H84.2988H84.279H84.2592H84.2393H84.2194H84.1994H84.1793H84.1591H84.1389H84.1186H84.0982H84.0777H84.0572H84.0366H84.0159H83.9951H83.9743H83.9533H83.9323H83.9111H83.8899H83.8686H83.8472H83.8257H83.8041H83.7824H83.7606H83.7386H83.7166H83.6945H83.6723H83.6499H83.6275H83.6049H83.5822H83.5594H83.5365H83.5135H83.4903H83.467H83.4436H83.4201H83.3964H83.3726H83.3487H83.3246H83.3004H83.2761H83.2516H83.227H83.2023H83.1774H83.1523H83.1271H83.1018H83.0763H83.0507H83.0249H82.9989H82.9728H82.9466H82.9202H82.8936H82.8668H82.8399H82.8128H82.7856H82.7582H82.7306H82.7028H82.6749H82.6468H82.6185H82.59H82.5614H82.5325H82.5035H82.4743H82.4449H82.4153H82.3856H82.3556H82.3254H82.2951H82.2645H82.2338H82.2028H82.1716H82.1403H82.1087H82.0769H82.0449H82.0127H81.9803H81.9477H81.9148H81.8818H81.8485H81.815H81.7812H81.7473H81.7131H81.6787H81.6441H81.6092H81.5741H81.5387H81.5032H81.4674H81.4313H81.395H81.3585H81.3217H81.2847H81.2474H81.2099H81.1721H81.1341H81.0958H81.0572H81.0184H80.9794H80.9401H80.9005H80.8606H80.8205H80.7802H80.7395H80.6986H80.6574H80.6159H80.5742H80.5322H80.4898H80.4473H80.4044H80.3612H80.3178H80.2741H80.2301H80.1858H80.1412H80.0963H80.0511H80.0056H79.9598H79.9137H79.8673H79.8207H79.7737H79.7263H79.6787H79.6308H79.5826H79.534H79.4851H79.4359H79.3864H79.3366H79.2865H79.236H79.1852H79.134H79.0826H79.0308H78.9787H78.9262H78.8734H78.8203H78.7668H78.713H78.6589H78.6044H78.5495H78.4943H78.4388H78.3829H78.3266H78.27H78.2131H78.1558H78.0981H78.0401H77.9817H77.9229H77.8638H77.8043H77.7445H77.6842H77.6236H77.5626H77.5013H77.4396H77.3774H77.3149H77.2521H77.1888H77.1252H77.0611H76.9967H76.9319H76.8667H76.8011H76.7351H76.6687H76.6019H76.5347H76.4672H76.3992H76.3308H76.2619H76.1927H76.1231H76.0531H75.9826H75.9117H75.8404H75.7687H75.6966H75.6241H75.5511H75.4777H75.4038H75.3296H75.2549H75.1798H75.1042H75.0282H75.0259Z" stroke="black" stroke-width="2"/>
<circle cx="94" cy="928" r="19.5" fill="#FDE9D5" stroke="black"/>
<circle cx="152" cy="928" r="19.5" fill="#B7F7EE" stroke="black"/>
<circle cx="206" cy="928" r="19.5" fill="#FFE4DF" stroke="black"/>
<g filter="url(#filter0_b_221_2)">
<path d="M70 803L108 775L170 810L233 747" stroke="#B7F7EE" stroke-width="2" stroke-dasharray="4 4"/>
</g>
<rect x="69" y="747" width="164" height="64" stroke="black" stroke-width="2"/>
<path d="M255 913H248V936H255L262 930V918L255 913Z" fill="black" stroke="black" stroke-width="2"/>
<defs>
<filter id="filter0_b_221_2" x="-130.594" y="546.293" width="564.301" height="464.951" filterUnits="userSpaceOnUse" color-interpolation-filters="sRGB">
<feFlood flood-opacity="0" result="BackgroundImageFix"/>
<feGaussianBlur in="BackgroundImageFix" stdDeviation="100"/>
<feComposite in2="SourceAlpha" operator="in" result="effect1_backgroundBlur_221_2"/>
<feBlend mode="normal" in="SourceGraphic" in2="effect1_backgroundBlur_221_2" result="shape"/>
</filter>
</defs>
</svg>
