<svg width="532" height="1115" viewBox="0 0 532 1115" fill="none" xmlns="http://www.w3.org/2000/svg">
<path fill-rule="evenodd" clip-rule="evenodd" d="M476.995 213.6L476.995 526C476.995 527.104 476.099 528 474.995 528H58C56.8954 528 56 527.104 56 526V213.6C56 213.6 56 213.599 56 213.599C56.0006 143.732 98.262 4 267.304 4C436.346 4 477.532 143.732 476.995 213.599L476.995 213.6Z" fill="#86E0D1" fill-opacity="0.2"/>
<path d="M476.995 213.6H480.995V213.561L480.994 213.522L476.995 213.6ZM56 213.599L52 213.599V213.599H56ZM476.995 213.599L472.995 213.568L472.995 213.623L472.996 213.677L476.995 213.599ZM476.995 526H480.995H476.995ZM472.995 213.6L472.995 526H480.995L480.995 213.6H472.995ZM474.995 524H58V532H474.995V524ZM60 526V213.6H52V526H60ZM60 213.6V213.6V213.6V213.6V213.6V213.6V213.6V213.6V213.6C60 213.6 60 213.6 60 213.6C60 213.6 60 213.6 60 213.6C60 213.6 60 213.6 60 213.6C60 213.6 60 213.6 60 213.6C60 213.6 60 213.6 60 213.6C60 213.6 60 213.6 60 213.6C60 213.6 60 213.6 60 213.6C60 213.6 60 213.6 60 213.6C60 213.6 60 213.6 60 213.6C60 213.6 60 213.6 60 213.6C60 213.6 60 213.6 60 213.6C60 213.6 60 213.6 60 213.6C60 213.6 60 213.6 60 213.6C60 213.6 60 213.6 60 213.6C60 213.6 60 213.6 60 213.6C60 213.6 60 213.6 60 213.6C60 213.6 60 213.6 60 213.6C60 213.6 60 213.6 60 213.6C60 213.6 60 213.6 60 213.6C60 213.6 60 213.6 60 213.6C60 213.6 60 213.6 60 213.6C60 213.6 60 213.6 60 213.6C60 213.6 60 213.6 60 213.6C60 213.6 60 213.6 60 213.6C60 213.6 60 213.6 60 213.6C60 213.6 60 213.6 60 213.6C60 213.6 60 213.6 60 213.6C60 213.6 60 213.6 60 213.6C60 213.6 60 213.6 60 213.6C60 213.6 60 213.6 60 213.6C60 213.6 60 213.6 60 213.6C60 213.6 60 213.6 60 213.6C60 213.6 60 213.6 60 213.6C60 213.6 60 213.6 60 213.6V213.6V213.6V213.6V213.6V213.6V213.6V213.6V213.6V213.6V213.6V213.6V213.6V213.6V213.6V213.6V213.6V213.6V213.6C60 213.6 60 213.6 60 213.6C60 213.6 60 213.6 60 213.6C60 213.6 60 213.6 60 213.6C60 213.6 60 213.6 60 213.6C60 213.6 60 213.6 60 213.6C60 213.6 60 213.6 60 213.599C60 213.599 60 213.599 60 213.599C60 213.599 60 213.599 60 213.599C60 213.599 60 213.599 60 213.599C60 213.599 60 213.599 60 213.599C60 213.599 60 213.599 60 213.599C60 213.599 60 213.599 60 213.599C60 213.599 60 213.599 60 213.599C60 213.599 60 213.599 60 213.599C60 213.599 60 213.599 60 213.599C60 213.599 60 213.599 60 213.599C60 213.599 60 213.599 60 213.599C60 213.599 60 213.599 60 213.599C60 213.599 60 213.599 60 213.599C60 213.599 60 213.599 60 213.599C60 213.599 60 213.599 60 213.599C60 213.599 60 213.599 60 213.599C60 213.599 60 213.599 60 213.599C60 213.599 60 213.599 60 213.599C60 213.599 60 213.599 60 213.599C60 213.599 60 213.599 60 213.599C60 213.599 60 213.599 60 213.599C60 213.599 60 213.599 60 213.599C60 213.599 60 213.599 60 213.599C60 213.599 60 213.599 60 213.599C60 213.599 60 213.599 60 213.599C60 213.599 60 213.599 60 213.599C60 213.599 60 213.599 60 213.599C60 213.599 60 213.599 60 213.599V213.599V213.599V213.599V213.599V213.599V213.599V213.599V213.599H52V213.599V213.599V213.599V213.599V213.599V213.599V213.599V213.599C52 213.599 52 213.599 52 213.599C52 213.599 52 213.599 52 213.599C52 213.599 52 213.599 52 213.599C52 213.599 52 213.599 52 213.599C52 213.599 52 213.599 52 213.599C52 213.599 52 213.599 52 213.599C52 213.599 52 213.599 52 213.599C52 213.599 52 213.599 52 213.599C52 213.599 52 213.599 52 213.599C52 213.599 52 213.599 52 213.599C52 213.599 52 213.599 52 213.599C52 213.599 52 213.599 52 213.599C52 213.599 52 213.599 52 213.599C52 213.599 52 213.599 52 213.599C52 213.599 52 213.599 52 213.599C52 213.599 52 213.599 52 213.599C52 213.599 52 213.599 52 213.599C52 213.599 52 213.599 52 213.599C52 213.599 52 213.599 52 213.599C52 213.599 52 213.599 52 213.599C52 213.599 52 213.599 52 213.599C52 213.599 52 213.599 52 213.599C52 213.599 52 213.599 52 213.599C52 213.599 52 213.599 52 213.599C52 213.599 52 213.599 52 213.599C52 213.599 52 213.599 52 213.599C52 213.599 52 213.599 52 213.599C52 213.599 52 213.599 52 213.599C52 213.6 52 213.6 52 213.6C52 213.6 52 213.6 52 213.6C52 213.6 52 213.6 52 213.6C52 213.6 52 213.6 52 213.6C52 213.6 52 213.6 52 213.6C52 213.6 52 213.6 52 213.6V213.6V213.6V213.6V213.6V213.6V213.6V213.6V213.6V213.6V213.6V213.6V213.6V213.6V213.6V213.6V213.6V213.6V213.6C52 213.6 52 213.6 52 213.6C52 213.6 52 213.6 52 213.6C52 213.6 52 213.6 52 213.6C52 213.6 52 213.6 52 213.6C52 213.6 52 213.6 52 213.6C52 213.6 52 213.6 52 213.6C52 213.6 52 213.6 52 213.6C52 213.6 52 213.6 52 213.6C52 213.6 52 213.6 52 213.6C52 213.6 52 213.6 52 213.6C52 213.6 52 213.6 52 213.6C52 213.6 52 213.6 52 213.6C52 213.6 52 213.6 52 213.6C52 213.6 52 213.6 52 213.6C52 213.6 52 213.6 52 213.6C52 213.6 52 213.6 52 213.6C52 213.6 52 213.6 52 213.6C52 213.6 52 213.6 52 213.6C52 213.6 52 213.6 52 213.6C52 213.6 52 213.6 52 213.6C52 213.6 52 213.6 52 213.6C52 213.6 52 213.6 52 213.6C52 213.6 52 213.6 52 213.6C52 213.6 52 213.6 52 213.6C52 213.6 52 213.6 52 213.6C52 213.6 52 213.6 52 213.6C52 213.6 52 213.6 52 213.6C52 213.6 52 213.6 52 213.6C52 213.6 52 213.6 52 213.6C52 213.6 52 213.6 52 213.6C52 213.6 52 213.6 52 213.6C52 213.6 52 213.6 52 213.6C52 213.6 52 213.6 52 213.6C52 213.6 52 213.6 52 213.6V213.6V213.6V213.6V213.6V213.6V213.6V213.6V213.6H60ZM60 213.599C60.0003 179.312 70.4034 127.788 101.499 84.9489C132.447 42.312 184.073 8 267.304 8V0C181.493 0 127.467 35.5538 95.0244 80.2495C62.7283 124.743 52.0003 178.019 52 213.599L60 213.599ZM267.304 8C350.533 8 401.882 42.3097 432.493 84.9325C463.252 127.763 473.258 179.28 472.995 213.568L480.995 213.63C481.268 178.05 470.951 124.769 438.99 80.2659C406.881 35.5561 353.117 0 267.304 0V8ZM472.996 213.677L472.996 213.679L480.994 213.522L480.994 213.521L472.996 213.677ZM58 524C59.1046 524 60 524.895 60 526H52C52 529.313 54.6863 532 58 532V524ZM472.995 526C472.995 524.895 473.89 524 474.995 524V532C478.309 532 480.995 529.313 480.995 526H472.995Z" fill="black"/>
<rect x="50" y="637" width="436" height="336" fill="#F8D9B2" stroke="black" stroke-width="10"/>
<path d="M127.141 1110C82.213 1110 75.7997 978 127.141 978H412.702C453.612 978 468.051 1090.56 412.702 1110H127.141Z" fill="#F8D9B2" stroke="black" stroke-width="10"/>
<path d="M60.3235 630C-4.28593 630 -22.0628 578.323 60.3235 578.323V531.068C60.3235 529.964 61.2189 529.068 62.3235 529.068H216.225H267.92H314.768H473.507C474.612 529.068 475.507 529.964 475.507 531.068V578.323C544.164 578.323 544.164 630 475.507 630H60.3235Z" fill="#F8D9B2"/>
<path d="M60.3235 578.323C-22.0628 578.323 -4.28593 630 60.3235 630H475.507C544.164 630 544.164 578.323 475.507 578.323M60.3235 578.323H475.507M60.3235 578.323V531.068C60.3235 529.964 61.2189 529.068 62.3235 529.068H216.225M475.507 578.323V531.068C475.507 529.964 474.612 529.068 473.507 529.068H314.768M216.225 529.068V500M216.225 529.068H267.92M267.92 500V529.068M267.92 529.068H314.768M314.768 500V529.068" stroke="black" stroke-width="10"/>
<path d="M325 974C324.999 916.705 330.907 802 487 802" stroke="black" stroke-width="10"/>
<path d="M175 1039C175 1048.22 167.119 1056 157 1056C146.881 1056 139 1048.22 139 1039C139 1029.78 146.881 1022 157 1022C167.119 1022 175 1029.78 175 1039Z" stroke="black" stroke-width="8"/>
<path d="M159 709C159 726.015 144.78 740 127 740C109.22 740 95 726.015 95 709C95 691.985 109.22 678 127 678C144.78 678 159 691.985 159 709Z" stroke="black" stroke-width="8"/>
<path d="M159 805C159 822.015 144.78 836 127 836C109.22 836 95 822.015 95 805C95 787.985 109.22 774 127 774C144.78 774 159 787.985 159 805Z" stroke="black" stroke-width="8"/>
<path d="M249 1039C249 1048.22 241.119 1056 231 1056C220.881 1056 213 1048.22 213 1039C213 1029.78 220.881 1022 231 1022C241.119 1022 249 1029.78 249 1039Z" stroke="black" stroke-width="8"/>
<path d="M323 1039C323 1048.22 315.119 1056 305 1056C294.881 1056 287 1048.22 287 1039C287 1029.78 294.881 1022 305 1022C315.119 1022 323 1029.78 323 1039Z" stroke="black" stroke-width="8"/>
<path d="M399 1039C399 1048.05 390.844 1056 380 1056C369.156 1056 361 1048.05 361 1039C361 1029.95 369.156 1022 380 1022C390.844 1022 399 1029.95 399 1039Z" stroke="black" stroke-width="8"/>
<path d="M115.075 148.075H426.925V459.925H115.075V148.075Z" fill="#86E0D1"/>
<path d="M301.542 132V247.738M338.514 132V247.738H369.859M369.859 247.738H443M369.859 247.738V132M369.859 247.738V304M369.859 304V386.785H314.402V422.15M369.859 304H443M369.859 304H271.803V197.103H170.532V132M314.402 422.15V476M314.402 422.15H99M314.402 422.15H400.402V386.785H443M216.346 386.785H201.879V258.187H99M216.346 386.785V476M216.346 386.785H267.785V476M99 234.879H201.879M115.075 148.075H426.925V459.925H115.075V148.075Z" stroke="black" stroke-width="2"/>
<path d="M448.997 192C449.3 152 426.124 72 331 72" stroke="black" stroke-width="4"/>
</svg>
