<svg width="638" height="861" viewBox="0 0 638 861" fill="none" xmlns="http://www.w3.org/2000/svg">
<path fill-rule="evenodd" clip-rule="evenodd" d="M117.791 630.9C117.686 629.636 117.592 628.498 117.501 627.5C119.179 604.542 115.823 555.5 110.001 522.499C109.536 518.966 109.127 514.95 108.721 510.959C107.336 497.363 105.98 484.043 102.502 491C100.997 490.119 97.6104 491.396 93.0019 493.133C87.1761 495.329 79.398 498.26 71.0015 498.499C58.6624 498.851 45.9973 493.221 38.8949 490.064C36.1606 488.849 34.2507 488 33.5015 488C29.4364 488.901 8.00146 561.5 9.50227 566C4.3578 571.42 0.789295 616.873 5.00188 660.5C6.50188 689 9.50115 720.5 17.0015 734C17.0015 755.422 57.5015 807.5 113.001 830C149.34 845.757 192.057 849.894 220.166 850.866C225.258 851.82 230.553 852.305 236 852.305C278.969 860.159 332.688 857.755 375.5 855.501C382.58 854.794 389.918 854.152 397.458 853.493C437.842 849.961 483.991 845.926 527 828.501C533.117 826.023 539.158 822.565 545.091 819.168C547.581 817.742 550.051 816.328 552.5 815.001C588.5 795.501 617 758.001 626 716.001C627.116 710.795 628.328 703.352 629.497 696.173C630.375 690.78 631.229 685.536 632 681.501C634.909 666.271 634.909 650.978 634.91 635.781C634.91 631.01 634.91 626.249 635 621.501C635 599.001 622.858 514.304 605 489.501C605.752 486.492 599.714 489.143 591.993 492.533C584.32 495.902 574.986 500.001 569 500.001C543.403 495.735 538.281 492.227 535.841 490.556C534.849 489.877 534.3 489.501 533 489.501C524.145 509.191 522.048 550.107 521 593.001C520.156 627.577 516.176 661.938 507.5 689.001C505.034 709.963 488.409 720.565 476.712 728.024C474.179 729.64 471.877 731.108 470 732.501C440.788 741.392 431.094 741.095 407.729 740.379C403.499 740.25 398.822 740.107 393.5 740.001C358.24 739.306 295.117 738.357 243.533 743.044C243.523 743.03 243.512 743.015 243.501 743C240.407 738.672 235.184 739.918 229.089 741.371C225.145 742.311 220.836 743.339 216.501 743C195.522 741.36 170.198 735.173 156.501 725C123.545 700.522 119.414 650.54 117.791 630.9Z" fill="#FDD299"/>
<path d="M384.5 584.001C384.5 593.814 384.5 600.501 384.5 608.001C384.5 609.501 384.615 613.157 383 614.001C378.5 614.001 369.081 614.001 366.499 614.001C362.895 614.001 351.5 614.001 347 614.001C346.609 613.685 350.275 611.414 350 611.001C351.5 608.001 350.583 603.191 348.5 599.001C346.147 594.268 342.5 588.501 339.5 585.501C339.5 580.349 339.499 557.001 339.499 528.501C340.862 513.612 339.499 497.001 339.5 480.501C341 462.501 337.999 447.501 339.5 432.501C339.5 416.001 339.5 395.001 339.5 384.501C340.291 380.31 339.5 369.501 339.5 365.001C347 365.001 363.5 363.5 365 362.001C365.975 362.001 386 354.5 398 341C396.5 351.5 393.5 376.999 392 381.5C392 393.499 390.5 416.001 390.5 435.501C389 450.501 387.5 467.001 387.5 483.501C388.534 500.131 386 513.501 386 528.501C386 557.001 384.5 578.918 384.5 584.001Z" fill="#FDD299"/>
<path d="M252.501 584.001C252.501 593.814 252.501 600.501 252.501 608.001C252.501 609.501 252.386 613.157 254.001 614.001C258.501 614.001 267.92 614.001 270.502 614.001C274.106 614.001 288.501 614.001 293.001 614.001C293.392 613.685 290.001 612.5 288.501 611C287.001 608 287.918 603.19 290.001 599C292.354 594.267 294.502 588.501 297.502 585.501C299.001 579.5 299.001 557.001 299.001 528.501C299.001 513.88 299.002 496.999 299.001 480.5C299.001 462.499 300.502 447.5 299.001 432.5C299.001 416 299.001 395 299.001 384.5C299.001 379.999 300.502 369.499 299.001 365C291.501 365 273.501 363.5 272.001 362.001C271.027 362.001 252.501 353 239.001 341C240.501 351.5 243.501 376.999 245.001 381.5C245.001 393.499 246.501 416.001 246.501 435.501C248.001 450.501 249.501 467.001 249.501 483.501C248.467 500.131 251.001 513.501 251.001 528.501C251.001 557.001 252.501 578.918 252.501 584.001Z" fill="#FDD299"/>
<path d="M254 614H383.286L387.5 678.5L392.925 740L245 743H243.5L242 741.5L248 713L254 614Z" fill="#FDD299"/>
<path d="M594.5 468.5C597.502 473 606.275 484.019 602 488C597.056 492.603 576.996 498.5 569 498.5C561.004 498.5 537.944 491.103 533 486.5C533 482 536 474.5 537.5 468.5C542 456.5 551.086 444.5 565.998 444.5C580.909 444.5 590 459.5 594.5 468.5Z" fill="#8EE6DA"/>
<path d="M43.6543 467C40.6519 471.5 32.0015 483.5 35.0015 488C39.9454 492.603 61.1578 497 69.1543 497C77.1508 497 98.0015 494 105.154 485C105.154 480.5 102.154 473 100.654 467C96.1543 455 87.0684 443 72.1567 443C57.245 443 48.1543 458 43.6543 467Z" fill="#8EE6DA"/>
<path d="M345.499 599C345.499 600.226 348.499 600.5 348.499 603.5C349.999 606.5 348.461 610.003 346.999 611C339.499 611 327.208 611 318.499 611C308.317 611 297.498 612.5 291.498 611C286.998 609.5 289.997 600.5 291.498 599C291.498 595.416 297.499 591.5 298.999 587C303.499 584.001 312.032 587 318.499 587C325.445 587 333.03 584.88 337.999 587C340.999 591.5 343.999 596 345.499 599Z" fill="#8EE6DA"/>
<rect x="299" y="365" width="39" height="222" fill="#FFDE75"/>
<path d="M250.324 553.987C255.503 615.501 251.003 633.501 249.503 665.001C251.003 696.501 245.003 732.501 242.003 740.001C233.003 741.501 190.71 745.223 164.824 729.487C140.824 718.987 128.824 691.987 125.824 670.987C117.732 653.362 118.196 627.958 118.751 600.487C119.058 585.297 117.071 569.475 116.003 553.987C111.45 534.866 111.72 460.989 84.5027 445.988C69.5034 441.488 80.0034 444.488 63.5034 442.988C53.0031 442.034 30.503 435.488 30.503 424.988C30.5022 420.488 -0.996063 409.988 36.5032 319.988C58.404 267.426 75.5029 222.488 87.5029 195.488C92.0027 181.988 104.003 154.988 107.003 148.988C109.256 143.355 126.503 94.9879 140.003 70.9879C142.463 70.6363 153.503 69.4998 167.003 70.9875C174.503 66.4994 179.003 58.9994 188.003 55.9994C200.258 47.24 214.959 39.7155 230.003 36.4994C251.003 26.0015 304.275 18.9156 320.003 21.5013C327.503 21.5013 348.718 21.2682 372.503 26.0015C396.288 30.7347 417.829 40.7457 419.003 41.0015C419.625 41.3615 453.503 54.5015 470.003 71.0015C470.003 71.0015 476.003 71.0015 498.503 71.0015C503.003 71.0015 564.676 234.055 566.003 237.501C566.266 238.185 629.003 368.001 618.503 396.501C618.503 416.001 594.503 447.501 569.003 443.001C537.643 448.133 539.003 455.001 524.003 525.501C520.173 543.501 524.003 675.501 501.503 702.501C489.503 729.501 446.397 742.139 435.503 740.001C431.003 741.501 422.003 744.501 396.503 740.001C390.503 729.501 386.003 662.001 386.003 612.501C386.538 556.53 390.812 506.736 389.003 506.001C387.497 505.39 389.003 417.501 396.503 357.501C402.503 323.001 416.34 305.393 419.003 299.001C417.941 297.644 425.003 288.501 426.503 282.501C432.503 299.001 445.087 294.832 446.003 293.001C461.003 275.001 462.039 227.715 461.003 207.501C460.681 201.213 461.69 197.742 459.503 197.001C449.003 197.001 444.686 195.82 441.503 195.501C426.503 194.001 435.908 173.001 428.003 150.501C408.503 95.0015 354.503 117.501 338.003 111.501C316.024 112.417 294.044 113.265 276.503 113.001C265.313 112.833 255.929 110.502 249.503 113.001C222.503 123.501 226.228 128.297 215.003 138.5C209.198 151.79 208.34 166.736 206.003 183.5C205.376 188 203.524 191.675 200.824 193.987C198.124 196.299 193.552 195.487 188.824 195.487C178.65 195.487 177.061 197.212 176.003 204.501C175.345 209.034 175.324 215.724 175.324 225.501C177.503 249.501 179.003 287.001 196.324 294.488C200.824 292.988 209.824 289.988 209.824 282.488C212.003 282.488 228.041 317.552 235.324 336.488C241.859 357.173 244.078 378.534 245.003 399.501C246.503 465.501 250.324 520.987 250.324 553.987Z" fill="#FFDE75"/>
<path d="M431.419 239.045C431.419 255.547 428.419 264.547 428.419 276.547C417.747 300.94 402.919 341.047 384.919 350.047C366.975 364.975 345.01 362.045 320.419 362.045C298.315 362.045 277.72 367.229 260.42 354.888C234.966 341.608 225.919 311.388 210.919 276.888C208.376 264.641 207.919 249.888 207.919 239.388C207.92 224.388 204.92 201.888 206.42 191.388C206.42 173.388 211.454 141.536 224.42 129.888C230.672 124.272 238.381 117.122 246.919 114.888C272.419 111.888 297.924 113.388 320.419 113.388C354.919 114.888 399.919 105.888 414.919 131.045C438.919 155.047 431.419 206.568 431.419 239.045Z" fill="#FDD299"/>
<path d="M189.5 80L179 74L168.5 69.5H140L122 113L108.5 143H215L221 132.5L225.5 128L222.5 116L215 101L206 90.5L189.5 80Z" fill="#8EE6DA"/>
<path d="M401 195.501C401 198.815 384.613 201.501 375.5 201.501C366.5 203.001 342.5 206.001 342.5 201.501C342.5 198.188 357.5 186.501 368 185.002C371.186 184.547 377.072 183.366 383 185.001C390.5 189.501 401 193.508 401 195.501Z" fill="black"/>
<path d="M237.5 197.001C237.5 200.315 255.387 202.341 264.499 202.341C273.612 202.341 294.5 206.841 294.5 202.341C294.5 199.027 282.499 187.34 271.999 185.841C268.813 185.386 261.428 183.366 255.5 185.002C248 188.001 237.5 195.008 237.5 197.001Z" fill="black"/>
<path d="M459.502 245.002C458.001 261.501 455.107 279.802 449.001 288.501C445.089 294.077 439.59 293.002 437.002 293.002C434.391 293.002 430.343 292.666 429.502 287.001C428.209 278.289 431.002 261.067 431.002 245.002C431.002 228.218 432.502 204.099 432.502 195.501C435.502 194.001 443.57 198.502 446.002 198.502C450.072 198.502 459.502 195.502 459.502 201.502C461.14 209.015 459.502 234.773 459.502 245.002Z" fill="#FFD8A8"/>
<path d="M177.504 245.306C179.004 261.806 181.899 280.106 188.004 288.806C191.917 294.381 197.415 293.306 200.004 293.306C202.615 293.306 206.663 292.97 207.504 287.306C208.797 278.593 206.004 261.371 206.004 245.306C206.004 228.522 204.504 202.597 204.504 194C203.004 195.5 193.436 197.001 191.004 197.001C186.934 197.001 177.504 195.806 177.504 201.806C175.866 209.319 177.504 235.077 177.504 245.306Z" fill="#FFD8A8"/>
<path d="M462.5 218H558.5L572 251L588.5 290H450.5V288.5L459.5 254L462.5 221V218Z" fill="#8EE6DA"/>
<path d="M175.735 218H78.5L65 251L48.5 291.5H113H182H191L182 272L177.5 254L176 225.5L175.735 218Z" fill="#8EE6DA"/>
<path d="M426.5 281L429.5 290H423.5L426.5 281Z" fill="#8EE6DA"/>
<path d="M211.142 281L207.5 291.5H216.5L211.142 281Z" fill="#8EE6DA"/>
<path d="M20 365H242L245 402.5L246.5 438.5H47L30.5 426.5L21.5 411.5L18.5 389L20 365Z" fill="#8EE6DA"/>
<path d="M110 512H248L251 587H119L110 512Z" fill="#8EE6DA"/>
<path d="M123.5 662H249.5L248 701L242 740L210.5 743L192.5 740L168.5 732.5L149 720.5L138.5 708.5L131 693.5L123.5 662Z" fill="#8EE6DA"/>
<path d="M515 662H387.5L390.5 701V720.5L395 740L428 743L446 740L470 732.5L489.5 720.5L500 708.5L507.5 693.5L515 662Z" fill="#8EE6DA"/>
<path d="M527 512H389L386 587H519.5L527 512Z" fill="#8EE6DA"/>
<path d="M617 365H396.5L392 399.5V438.5H591.5L608 426.5L617 411.5L620 389L617 365Z" fill="#8EE6DA"/>
<path d="M167 69.5C183.5 74 218.3 91.7 225.5 126.5" stroke="black" stroke-width="1.5"/>
<path d="M444.5 75.5L456.5 71L467 69.5L500 71L513.5 108.5L528.5 143H423.5L414.5 128L410 123.5L413 111.5L420.5 96.5L429.5 86L444.5 75.5Z" fill="#8EE6DA"/>
<path d="M237.658 194.503L236.702 193.348L237.658 194.503ZM294.639 200.004L293.46 200.932L294.639 200.004ZM238.259 198.527L237.807 199.957L238.259 198.527ZM292.276 204.333L292.218 205.832L292.276 204.333ZM177.452 199.592L178.942 199.767L177.452 199.592ZM188.28 288.518L186.928 289.167L186.945 289.202L186.964 289.236L188.28 288.518ZM180.403 197.018L180.403 195.518H180.403L180.403 197.018ZM204.78 191.018L206.279 190.945L206 185.188L203.437 190.351L204.78 191.018ZM209.27 283.795L207.771 283.868V283.868L209.27 283.795ZM209.256 284.246L210.747 284.412V284.412L209.256 284.246ZM92.2804 453.517L91.2597 454.617L92.2804 453.517ZM56.2804 449.017L57.2099 450.195L57.2789 450.14L57.3411 450.078L56.2804 449.017ZM105.461 486.517L106.397 487.69L107.128 487.106L106.925 486.192L105.461 486.517ZM32.6519 486.517L31.2792 485.913L30.7553 487.102L31.8579 487.79L32.6519 486.517ZM399.902 194.503L400.859 193.348L399.902 194.503ZM342.922 200.004L344.101 200.932V200.932L342.922 200.004ZM399.302 198.527L398.85 197.097L399.302 198.527ZM345.285 204.333L345.343 205.832L345.285 204.333ZM431.28 183.518H429.78V183.571L429.784 183.624L431.28 183.518ZM460.109 199.592L461.599 199.417L461.599 199.417L460.109 199.592ZM449.28 288.518L450.597 289.236L450.616 289.202L450.633 289.167L449.28 288.518ZM428.305 284.246L429.795 284.079L429.795 284.079L428.305 284.246ZM457.158 197.018V195.518V197.018ZM428.291 283.795L426.793 283.723V283.723L428.291 283.795ZM390.78 434.018L392.28 434.068L392.28 434.043V434.018H390.78ZM384.78 614.018L383.281 613.968L383.28 614.02L383.281 614.072L384.78 614.018ZM395.28 740.018L394.61 741.359L395.28 740.018ZM507.78 689.018L506.357 688.543L506.351 688.563L506.345 688.583L507.78 689.018ZM519.78 600.518L518.281 600.465L518.28 600.515L518.281 600.564L519.78 600.518ZM545.28 453.518L544.26 452.418H544.26L545.28 453.518ZM581.28 449.018L580.22 450.078L580.282 450.14L580.351 450.195L581.28 449.018ZM629.28 567.518L627.81 567.816L629.28 567.518ZM617.28 746.018L618.663 746.598L618.673 746.576L618.682 746.553L617.28 746.018ZM495.78 839.018L496.075 840.488L495.78 839.018ZM532.1 486.518L530.636 486.192L532.1 486.518ZM604.909 486.518L606.282 485.913L604.909 486.518ZM206.28 183.518L207.777 183.624L207.78 183.571V183.518H206.28ZM246.78 434.017H245.28V434.042L245.281 434.067L246.78 434.017ZM252.78 614.017L254.279 614.072L254.281 614.02L254.28 613.968L252.78 614.017ZM242.28 740.018L242.951 741.359L242.28 740.018ZM129.78 689.018L131.216 688.583L131.21 688.563L131.203 688.543L129.78 689.018ZM117.78 600.517L119.28 600.564L119.281 600.514L119.279 600.465L117.78 600.517ZM8.28043 567.517L9.75041 567.816H9.75041L8.28043 567.517ZM20.2804 746.018L18.8791 746.553L18.8879 746.576L18.8975 746.598L20.2804 746.018ZM141.78 839.018L141.486 840.488L141.78 839.018ZM238.615 195.659C251.105 185.323 262.343 183.651 271.602 185.941C280.952 188.253 288.532 194.667 293.46 200.932L295.817 199.077C290.633 192.487 282.53 185.552 272.322 183.028C262.023 180.482 249.827 182.487 236.702 193.348L238.615 195.659ZM238.711 197.097C238.333 196.977 238.215 196.757 238.188 196.559C238.157 196.327 238.239 195.97 238.615 195.659L236.702 193.348C235.58 194.276 235.035 195.638 235.215 196.962C235.4 198.32 236.331 199.491 237.807 199.957L238.711 197.097ZM292.334 202.834C283.901 202.507 273.089 201.898 263.065 200.953C252.994 200.003 243.866 198.725 238.711 197.097L237.807 199.957C243.307 201.695 252.735 202.992 262.783 203.94C272.878 204.892 283.748 205.503 292.218 205.832L292.334 202.834ZM293.46 200.932C293.8 201.364 293.788 201.813 293.587 202.175C293.377 202.554 292.941 202.858 292.334 202.834L292.218 205.832C295.701 205.967 298.181 202.081 295.817 199.077L293.46 200.932ZM175.962 199.417C174.819 209.157 174.084 224.323 175.364 240.666C176.642 256.993 179.939 274.605 186.928 289.167L189.633 287.868C182.869 273.777 179.618 256.578 178.354 240.431C177.092 224.3 177.819 209.33 178.942 199.767L175.962 199.417ZM180.403 195.518C178.182 195.518 176.229 197.138 175.962 199.417L178.942 199.767C179.023 199.071 179.63 198.518 180.403 198.518L180.403 195.518ZM203.437 190.351C202.772 191.691 202.089 192.592 201.25 193.249C200.409 193.906 199.305 194.4 197.667 194.752C194.293 195.476 189.126 195.518 180.403 195.518L180.403 198.518C188.967 198.518 194.533 198.493 198.297 197.685C200.229 197.27 201.795 196.63 203.098 195.612C204.401 194.593 205.333 193.278 206.124 191.685L203.437 190.351ZM210.768 283.723L206.279 190.945L203.282 191.09L207.771 283.868L210.768 283.723ZM210.747 284.412C210.773 284.181 210.779 283.945 210.768 283.723L207.771 283.868C207.775 283.941 207.773 284.016 207.766 284.079L210.747 284.412ZM186.964 289.236C187.911 290.972 189.786 292.487 191.906 293.566C194.059 294.661 196.655 295.405 199.243 295.454C201.836 295.503 204.512 294.851 206.669 293.042C208.84 291.222 210.304 288.382 210.747 284.412L207.766 284.079C207.387 287.47 206.191 289.528 204.741 290.744C203.277 291.971 201.371 292.493 199.299 292.454C197.222 292.415 195.069 291.809 193.266 290.892C191.43 289.958 190.142 288.799 189.597 287.799L186.964 289.236ZM93.3011 452.418C84.6612 444.396 76.5405 441.829 69.8076 442.043C63.1233 442.256 57.9687 445.208 55.2197 447.957L57.3411 450.078C59.5921 447.827 64.0375 445.229 69.9032 445.042C75.7203 444.856 83.0996 447.039 91.2597 454.617L93.3011 452.418ZM106.925 486.192C105.158 478.25 103.172 471.153 100.943 465.398C98.7301 459.686 96.2143 455.123 93.3011 452.418L91.2597 454.617C93.6587 456.844 95.9751 460.879 98.1455 466.482C100.299 472.043 102.247 478.979 103.996 486.843L106.925 486.192ZM31.8579 487.79C65.21 508.599 95.369 496.495 106.397 487.69L104.525 485.345C94.2608 493.54 65.4882 505.236 33.4459 485.245L31.8579 487.79ZM55.3509 447.84C49.9666 452.091 40.908 464.052 31.2792 485.913L34.0247 487.122C43.5967 465.39 52.4134 453.981 57.2099 450.195L55.3509 447.84ZM400.859 193.348C387.734 182.487 375.538 180.482 365.239 183.029C355.031 185.553 346.928 192.487 341.743 199.077L344.101 200.932C349.029 194.668 356.609 188.253 365.959 185.941C375.218 183.651 386.456 185.323 398.946 195.659L400.859 193.348ZM399.754 199.958C401.23 199.491 402.161 198.32 402.346 196.962C402.525 195.638 401.981 194.276 400.859 193.348L398.946 195.659C399.322 195.97 399.404 196.328 399.373 196.559C399.346 196.757 399.228 196.978 398.85 197.097L399.754 199.958ZM345.343 205.832C353.813 205.503 364.683 204.892 374.778 203.94C384.826 202.992 394.254 201.695 399.754 199.958L398.85 197.097C393.695 198.725 384.567 200.003 374.496 200.953C364.472 201.898 353.66 202.507 345.227 202.834L345.343 205.832ZM341.743 199.077C339.38 202.081 341.86 205.967 345.343 205.832L345.227 202.834C344.62 202.858 344.184 202.554 343.974 202.176C343.773 201.813 343.761 201.364 344.101 200.932L341.743 199.077ZM318.78 114.518H380.28V111.518H318.78V114.518ZM380.28 114.518C388.418 114.518 400.777 117.909 411.097 128.181C421.386 138.421 429.78 155.634 429.78 183.518H432.78C432.78 155.002 424.175 136.965 413.214 126.054C402.284 115.177 389.143 111.518 380.28 111.518V114.518ZM458.619 199.767C459.742 209.33 460.469 224.3 459.206 240.431C457.942 256.578 454.692 273.777 447.928 287.868L450.633 289.167C457.622 274.605 460.919 256.993 462.197 240.666C463.477 224.323 462.742 209.157 461.599 199.417L458.619 199.767ZM447.964 287.799C447.418 288.799 446.131 289.958 444.295 290.892C442.492 291.809 440.339 292.415 438.261 292.454C436.19 292.493 434.284 291.971 432.82 290.744C431.37 289.528 430.174 287.47 429.795 284.079L426.814 284.412C427.257 288.382 428.721 291.222 430.892 293.042C433.049 294.851 435.725 295.503 438.318 295.454C440.906 295.405 443.502 294.661 445.655 293.566C447.775 292.487 449.65 290.972 450.597 289.236L447.964 287.799ZM429.784 183.624C429.849 184.53 429.968 185.935 430.208 187.393C430.444 188.821 430.815 190.432 431.437 191.685L434.124 190.351C433.707 189.51 433.392 188.259 433.168 186.905C432.95 185.581 432.839 184.282 432.777 183.411L429.784 183.624ZM431.437 191.685C432.228 193.278 433.16 194.593 434.463 195.612C435.766 196.63 437.332 197.27 439.264 197.685C443.028 198.493 448.594 198.518 457.158 198.518L457.158 195.518C448.435 195.518 443.268 195.476 439.894 194.752C438.256 194.4 437.152 193.906 436.311 193.249C435.472 192.592 434.789 191.691 434.124 190.351L431.437 191.685ZM429.789 283.868L434.279 191.09L431.282 190.945L426.793 283.723L429.789 283.868ZM426.919 275.889L399.919 334.389L402.642 335.646L429.642 277.146L426.919 275.889ZM399.873 334.499C396.284 344.24 389.28 377.543 389.28 434.018H392.28C392.28 377.692 399.277 344.795 402.688 335.536L399.873 334.499ZM389.281 433.968L383.281 613.968L386.28 614.068L392.28 434.068L389.281 433.968ZM383.281 614.072C384.032 634.582 385.458 665.5 387.297 691.598C388.216 704.643 389.24 716.507 390.337 725.27C390.885 729.645 391.456 733.285 392.049 735.925C392.344 737.239 392.656 738.356 392.993 739.208C393.161 739.633 393.352 740.037 393.576 740.381C393.785 740.701 394.113 741.111 394.61 741.359L395.951 738.676C396.148 738.774 396.177 738.878 396.088 738.741C396.015 738.63 395.91 738.429 395.783 738.107C395.53 737.465 395.258 736.521 394.976 735.267C394.415 732.77 393.858 729.243 393.314 724.897C392.227 716.216 391.207 704.417 390.289 691.387C388.453 665.335 387.029 634.453 386.279 613.963L383.281 614.072ZM394.61 741.359C395.156 741.632 395.998 741.881 396.979 742.109C397.999 742.346 399.292 742.588 400.815 742.816C403.864 743.273 407.883 743.682 412.583 743.883C421.98 744.286 434.152 743.861 446.766 741.3C471.978 736.182 499.241 722.447 509.216 689.452L506.345 688.583C496.82 720.088 470.833 733.353 446.17 738.36C433.846 740.862 421.925 741.281 412.712 740.886C408.107 740.689 404.193 740.289 401.26 739.85C399.792 739.63 398.581 739.401 397.658 739.187C396.696 738.963 396.155 738.778 395.951 738.676L394.61 741.359ZM509.203 689.492C513.747 675.862 522.486 639.084 521.28 600.471L518.281 600.564C519.475 638.752 510.814 675.173 506.357 688.543L509.203 689.492ZM546.301 454.617C554.461 447.04 561.841 444.856 567.658 445.042C573.523 445.229 577.969 447.827 580.22 450.078L582.341 447.957C579.592 445.208 574.438 442.256 567.753 442.043C561.02 441.829 552.9 444.396 544.26 452.418L546.301 454.617ZM627.81 567.816C643.341 644.275 626.303 718.182 615.879 745.483L618.682 746.553C629.258 718.854 646.42 644.36 630.75 567.219L627.81 567.816ZM615.897 745.437C605.54 770.098 566.883 823.267 495.486 837.547L496.075 840.488C568.678 825.968 608.021 771.937 618.663 746.598L615.897 745.437ZM495.486 837.547C405.596 855.525 344.196 857.018 329.28 857.018V860.018C344.365 860.018 405.965 858.51 496.075 840.488L495.486 837.547ZM329.28 857.018H318.78V860.018H329.28V857.018ZM400.073 334.128C396.676 338.738 389.981 345.737 381.036 351.574C372.095 357.408 361.002 362.018 348.78 362.018V365.018C361.759 365.018 373.416 360.127 382.675 354.086C391.93 348.048 398.885 340.797 402.488 335.907L400.073 334.128ZM348.78 362.018H318.78V365.018H348.78V362.018ZM521.279 600.57C522.305 571.53 525.992 520.885 533.564 486.843L530.636 486.192C523.002 520.512 519.308 571.382 518.281 600.465L521.279 600.57ZM533.564 486.843C535.314 478.979 537.261 472.043 539.415 466.482C541.586 460.879 543.902 456.844 546.301 454.617L544.26 452.418C541.347 455.124 538.831 459.686 536.618 465.398C534.389 471.153 532.403 478.25 530.636 486.192L533.564 486.843ZM580.351 450.195C585.147 453.982 593.964 465.39 603.536 487.122L606.282 485.913C596.653 464.052 587.594 452.091 582.21 447.84L580.351 450.195ZM603.536 487.122C611.803 505.891 620.587 532.256 627.81 567.816L630.75 567.219C623.491 531.482 614.648 504.907 606.282 485.913L603.536 487.122ZM531.164 487.69C542.192 496.495 572.351 508.599 605.703 487.79L604.115 485.245C572.073 505.236 543.3 493.541 533.036 485.345L531.164 487.69ZM429.795 284.079C429.788 284.016 429.786 283.941 429.789 283.868L426.793 283.723C426.782 283.945 426.788 284.181 426.814 284.413L429.795 284.079ZM461.599 199.417C461.331 197.138 459.379 195.518 457.158 195.518L457.158 198.518C457.931 198.518 458.538 199.071 458.619 199.767L461.599 199.417ZM318.78 111.518H257.28V114.518H318.78V111.518ZM257.28 111.518C248.418 111.518 235.277 115.177 224.347 126.054C213.386 136.965 204.78 155.002 204.78 183.518H207.78C207.78 155.634 216.175 138.421 226.464 128.181C236.784 117.909 249.143 114.518 257.28 114.518V111.518ZM204.784 183.411C204.722 184.282 204.611 185.581 204.392 186.905C204.169 188.259 203.854 189.51 203.437 190.351L206.124 191.685C206.746 190.432 207.117 188.821 207.352 187.393C207.593 185.935 207.712 184.53 207.777 183.624L204.784 183.411ZM207.919 277.146L234.919 335.646L237.642 334.389L210.642 275.889L207.919 277.146ZM234.873 335.536C238.284 344.795 245.28 377.692 245.28 434.017H248.28C248.28 377.543 241.277 344.24 237.688 334.499L234.873 335.536ZM245.281 434.067L251.281 614.067L254.28 613.968L248.28 433.968L245.281 434.067ZM251.281 613.963C250.532 634.453 249.108 665.335 247.272 691.387C246.353 704.417 245.334 716.216 244.247 724.897C243.703 729.243 243.146 732.77 242.585 735.267C242.303 736.521 242.031 737.465 241.778 738.107C241.651 738.429 241.546 738.63 241.473 738.741C241.384 738.878 241.413 738.774 241.61 738.676L242.951 741.359C243.448 741.111 243.776 740.701 243.985 740.381C244.209 740.037 244.4 739.633 244.568 739.208C244.905 738.356 245.216 737.239 245.512 735.925C246.105 733.285 246.676 729.645 247.224 725.27C248.321 716.507 249.345 704.643 250.264 691.598C252.103 665.5 253.529 634.582 254.279 614.072L251.281 613.963ZM241.61 738.676C241.406 738.778 240.865 738.963 239.903 739.187C238.98 739.401 237.769 739.63 236.301 739.85C233.367 740.289 229.454 740.689 224.849 740.886C215.636 741.281 203.715 740.862 191.391 738.36C166.728 733.353 140.741 720.088 131.216 688.583L128.345 689.452C138.32 722.447 165.583 736.182 190.795 741.3C203.408 743.861 215.581 744.286 224.977 743.883C229.677 743.682 233.697 743.273 236.746 742.816C238.269 742.588 239.562 742.346 240.582 742.109C241.563 741.881 242.405 741.632 242.951 741.359L241.61 738.676ZM131.203 688.543C126.747 675.173 118.086 638.751 119.28 600.564L116.281 600.471C115.074 639.083 123.814 675.862 128.357 689.492L131.203 688.543ZM6.81044 567.219C-8.8589 644.36 8.30311 718.854 18.8791 746.553L21.6818 745.483C11.2577 718.182 -5.78026 644.275 9.75041 567.816L6.81044 567.219ZM18.8975 746.598C29.5396 771.937 68.8826 825.968 141.486 840.488L142.075 837.547C70.6782 823.267 32.0212 770.098 21.6634 745.437L18.8975 746.598ZM141.486 840.488C231.596 858.51 293.196 860.018 308.28 860.018V857.018C293.365 857.018 231.965 855.525 142.075 837.547L141.486 840.488ZM308.28 860.018H318.78V857.018H308.28V860.018ZM235.073 335.907C238.676 340.797 245.631 348.048 254.886 354.086C264.145 360.127 275.802 365.017 288.78 365.017V362.017C276.559 362.017 265.466 357.408 256.525 351.574C247.58 345.737 240.885 338.738 237.488 334.128L235.073 335.907ZM288.78 365.017H318.78V362.017H288.78V365.017ZM119.279 600.465C118.253 571.382 114.559 520.512 106.925 486.192L103.996 486.843C111.569 520.885 115.256 571.53 116.281 600.57L119.279 600.465ZM31.2792 485.913C22.913 504.907 14.0695 531.482 6.81044 567.219L9.75041 567.816C16.9735 532.256 25.7577 505.891 34.0247 487.122L31.2792 485.913Z" fill="black"/>
<path fill-rule="evenodd" clip-rule="evenodd" d="M318.756 21.5188C303.731 21.2724 278.204 23.4044 250.462 30.6054C222.715 37.8074 192.862 50.0518 169.087 69.9576C168.276 70.6367 167.248 71.019 166.178 71.019H140.793C140.185 71.019 139.636 71.3867 139.405 71.9498L30.6688 337.088L30.6644 337.099L30.6597 337.11C23.9675 352.725 17.6909 376.742 20.4561 398.089C21.8354 408.737 25.4534 418.643 32.3115 426.533C39.1565 434.409 49.3312 440.394 64.0467 443.043L63.5153 445.995C48.2308 443.244 37.4055 436.967 30.0473 428.501C22.7023 420.051 18.9141 409.538 17.4809 398.474C14.6217 376.401 21.0918 351.823 27.898 335.938L27.9023 335.928L136.63 70.8115C137.322 69.1222 138.967 68.019 140.793 68.019H166.178C166.532 68.019 166.881 67.8923 167.161 67.6574C191.395 47.3676 221.709 34.9691 249.708 27.7016C277.697 20.4367 303.481 18.2707 318.781 18.5188C334.081 18.2707 359.865 20.4367 387.854 27.7016C415.853 34.9691 446.167 47.3676 470.401 67.6574C470.681 67.8923 471.03 68.019 471.384 68.019H496.769C498.595 68.019 500.24 69.1222 500.932 70.8115L609.66 335.928L609.664 335.938C616.47 351.823 622.94 376.401 620.081 398.474C618.648 409.538 614.86 420.051 607.515 428.501C600.156 436.967 589.331 443.244 574.047 445.995L573.515 443.043C588.231 440.394 598.406 434.409 605.25 426.533C612.109 418.643 615.727 408.737 617.106 398.089C619.871 376.742 613.594 352.725 606.902 337.11L606.898 337.099L606.893 337.088L498.157 71.9498C497.926 71.3867 497.377 71.019 496.769 71.019H471.384C470.314 71.019 469.286 70.6367 468.475 69.9576C444.7 50.0518 414.847 37.8074 387.1 30.6054C359.358 23.4044 333.831 21.2724 318.806 21.5188L318.781 20.019L318.756 21.5188Z" fill="black"/>
<path fill-rule="evenodd" clip-rule="evenodd" d="M302.275 362.018H318.775H335.275C337.76 362.018 339.775 364.032 339.775 366.518V584.488C339.775 584.82 339.885 585.149 340.096 585.426C343.622 590.074 347.99 596.768 349.993 602.381C350.975 605.131 351.516 607.961 350.753 610.206C350.35 611.393 349.59 612.391 348.43 613.067C347.302 613.724 345.899 614.018 344.275 614.018H321.775H318.775H315.775H293.275C291.65 614.018 290.247 613.724 289.119 613.067C287.959 612.391 287.199 611.393 286.796 610.206C286.033 607.961 286.574 605.131 287.556 602.381C289.559 596.768 293.927 590.074 297.453 585.426C297.664 585.149 297.775 584.82 297.775 584.488V366.518C297.775 364.032 299.789 362.018 302.275 362.018ZM318.775 611.018H321.775H344.275C345.562 611.018 346.394 610.781 346.92 610.475C347.414 610.187 347.727 609.788 347.913 609.241C348.328 608.018 348.111 606.031 347.168 603.389C345.322 598.216 341.179 591.817 337.706 587.239C337.11 586.454 336.775 585.491 336.775 584.488V366.518C336.775 365.689 336.103 365.018 335.275 365.018H318.775H302.275C301.446 365.018 300.775 365.689 300.775 366.518V584.488C300.775 585.491 300.439 586.454 299.843 587.239C296.37 591.817 292.227 598.216 290.381 603.389C289.438 606.031 289.221 608.018 289.636 609.241C289.822 609.788 290.135 610.187 290.629 610.475C291.155 610.781 291.987 611.018 293.275 611.018H315.775H318.775Z" fill="black"/>
<path d="M423.5 143H476H528.5M78.4996 218H176M461 218H560M191 291.5H133.25H47M207.5 291.5H216.5M108.5 143H161H213.5" stroke="black" stroke-width="1.5"/>
<path d="M449 290H502.021H589.542M20 365H242M429.5 290H422" stroke="black" stroke-width="1.5"/>
<path d="M393.499 365H615.5M45.5 438.5H152H246.5" stroke="black" stroke-width="1.5"/>
<path d="M390.5 438.5H591.5" stroke="black" stroke-width="1.5"/>
<path d="M386.75 512H456.5H526.25M110 512H249.5" stroke="black" stroke-width="1.5"/>
<path d="M122 662H251" stroke="black" stroke-width="1.5"/>
<path d="M116 587H251" stroke="black" stroke-width="1.5"/>
<path d="M386 587H521" stroke="black" stroke-width="1.5"/>
<path d="M386 662H515" stroke="black" stroke-width="1.5"/>
<path d="M470 69.5C453 69.5 417.2 80.6 410 125" stroke="black" stroke-width="1.5"/>
<path d="M288.5 69.5H164M348.5 69.5H474.5" stroke="black" stroke-width="1.5" stroke-linecap="round"/>
<path d="M319.454 35.0014L289.999 57.5015L319.999 3.50146L319.454 35.0014Z" fill="#75F4F0"/>
<path d="M320.001 34.9988L320.001 75.4991L288.502 58.9991L320.001 34.9988Z" fill="#0FDFD8"/>
<path d="M319.999 35.0001L348.5 59L320 75.5L319.999 35.0001Z" fill="#10C1BB"/>
<path d="M320 113L290 70.9996L320 85.9995L320 113Z" fill="#75F4F0"/>
<path d="M320.287 111.74L347.596 71L320.596 86L320.287 111.74Z" fill="#10C1BB"/>
<path d="M319.995 34.9928L346.999 57.4985L319.999 3.49861L319.995 34.9928Z" fill="#0FDFD8"/>
<path d="M289.107 69.0601C288.865 68.7246 288.396 68.6496 288.06 68.8925C287.725 69.1355 287.65 69.6044 287.893 69.9399L289.107 69.0601ZM320 113L319.393 113.44L320.031 114.321L320.627 113.411L320 113ZM287.893 69.9399L319.393 113.44L320.607 112.56L289.107 69.0601L287.893 69.9399ZM320.627 113.411L349.127 69.911L347.873 69.089L319.373 112.589L320.627 113.411Z" fill="black"/>
<path d="M320 111.5V86M320 86L348.5 69.5M320 86L288.5 69.5M320 75.5L348.5 59M320 75.5L288.5 59M320 75.5V35M348.5 59L320 2L288.5 59M348.5 59L320 35M288.5 59L320 35" stroke="black" stroke-width="1.5"/>
<path d="M320 35V2" stroke="black" stroke-width="1.5"/>
<path d="M389 188.083C393 190.583 400.7 196.183 399.5 198.583M389 187.816C393.5 187.816 403.482 185.588 417.5 182.083C423.5 180.583 405.5 199.815 398 198.316C402.8 196.902 394 190.727 389 187.816Z" stroke="black" stroke-width="3"/>
<path d="M247.704 188.083C243.704 190.583 236.004 196.183 237.204 198.583M247.704 187.816C243.204 187.816 233.222 185.588 219.204 182.083C213.204 180.583 231.204 199.815 238.704 198.316C233.904 196.902 242.704 190.727 247.704 187.816Z" stroke="black" stroke-width="3"/>
<path d="M300.5 365C304.861 367.326 313.179 372.729 321.5 378.496M321.5 378.496C326.581 382.017 331.663 385.673 335.848 388.848C336.788 389.561 336.559 391.026 335.453 391.436C331.447 392.92 326.458 394.829 321.5 396.831M321.5 378.496C316.487 380.168 306.658 383.656 301.46 386.158C300.38 386.678 300.486 388.116 301.594 388.576L321.5 396.831M321.5 378.496L338 372.5M300.5 407C302.692 404.808 312.04 400.651 321.5 396.831M321.5 396.831L338 407" stroke="black" stroke-width="3" stroke-linecap="round"/>
<path d="M300.5 407C304.861 409.326 313.179 414.729 321.5 420.496M321.5 420.496C326.581 424.017 331.663 427.673 335.848 430.848C336.788 431.561 336.559 433.026 335.453 433.436C331.447 434.92 326.458 436.829 321.5 438.831M321.5 420.496C316.487 422.168 306.658 425.656 301.46 428.158C300.38 428.678 300.486 430.116 301.594 430.576L321.5 438.831M321.5 420.496L338 414.5M300.5 449C302.692 446.808 312.04 442.651 321.5 438.831M321.5 438.831L338 449" stroke="black" stroke-width="3" stroke-linecap="round"/>
<path d="M300.5 449C304.861 451.326 313.179 456.729 321.5 462.496M321.5 462.496C326.581 466.017 331.663 469.673 335.848 472.848C336.788 473.561 336.559 475.026 335.453 475.436C331.447 476.92 326.458 478.829 321.5 480.831M321.5 462.496C316.487 464.168 306.658 467.656 301.46 470.158C300.38 470.678 300.486 472.116 301.594 472.576L321.5 480.831M321.5 462.496L338 456.5M300.5 491C302.692 488.808 312.04 484.651 321.5 480.831M321.5 480.831L338 491" stroke="black" stroke-width="3" stroke-linecap="round"/>
<path d="M300.5 491C304.861 493.326 313.179 498.729 321.5 504.496M321.5 504.496C326.581 508.017 331.663 511.673 335.848 514.848C336.788 515.561 336.559 517.026 335.453 517.436C331.447 518.92 326.458 520.829 321.5 522.831M321.5 504.496C316.487 506.168 306.658 509.656 301.46 512.158C300.38 512.678 300.486 514.116 301.594 514.576L321.5 522.831M321.5 504.496L338 498.5M300.5 533C302.692 530.808 312.04 526.651 321.5 522.831M321.5 522.831L338 533" stroke="black" stroke-width="3" stroke-linecap="round"/>
<path d="M300.5 533C304.861 535.326 313.179 540.729 321.5 546.496M321.5 546.496C326.581 550.017 331.663 553.673 335.848 556.848C336.788 557.561 336.559 559.026 335.453 559.436C331.447 560.92 326.458 562.829 321.5 564.831M321.5 546.496C316.487 548.168 306.658 551.656 301.46 554.158C300.38 554.678 300.486 556.116 301.594 556.576L321.5 564.831M321.5 546.496L338 540.5M300.5 575C302.692 572.808 312.04 568.651 321.5 564.831M321.5 564.831L338 575" stroke="black" stroke-width="3" stroke-linecap="round"/>
<path d="M299 585.5H338" stroke="black" stroke-width="3" stroke-linecap="round"/>
<path d="M395 740C406 765.5 433.1 822.5 453.5 846.5M242 740C228.5 768.5 197.6 829.7 182 846.5" stroke="black" stroke-width="3" stroke-linecap="round"/>
<path d="M249.5 689C249.5 689 315.5 699.5 387.5 689" stroke="black" stroke-width="3" stroke-linecap="round"/>
<path d="M248 707C248 707 317 717.5 389 707" stroke="black" stroke-width="3" stroke-linecap="round"/>
<path d="M248 722C248 722 317 732.5 389 722" stroke="black" stroke-width="3" stroke-linecap="round"/>
<path d="M327.96 341H309.04C308.414 341 307.855 341.388 307.635 341.973L299.76 362.973C299.392 363.954 300.117 365 301.165 365H335.835C336.883 365 337.608 363.954 337.24 362.973L329.365 341.973C329.145 341.388 328.586 341 327.96 341Z" fill="#8EE6DA" stroke="black" stroke-width="3" stroke-linecap="round"/>
<path d="M317.462 194L299.457 267.141C299.225 268.087 299.94 269 300.914 269H329" stroke="black" stroke-width="3" stroke-linecap="round"/>
</svg>
