<svg width="426" height="426" viewBox="0 0 426 426" fill="none" xmlns="http://www.w3.org/2000/svg">
<rect width="426" height="426" rx="40" fill="#FEE3BE"/>
<path fill-rule="evenodd" clip-rule="evenodd" d="M129.559 292.744C129.515 292.214 129.476 291.736 129.438 291.318C130.141 281.69 128.734 261.123 126.292 247.283C126.097 245.802 125.926 244.118 125.755 242.444C125.175 236.742 124.606 231.156 123.147 234.073C122.516 233.704 121.096 234.239 119.163 234.968C116.72 235.889 113.458 237.118 109.937 237.218C104.762 237.366 99.4506 235.005 96.4721 233.681C95.3254 233.171 94.5244 232.815 94.2102 232.815C92.5054 233.193 83.5162 263.639 84.1456 265.526C81.9881 267.799 80.4916 286.861 82.2583 305.157C82.8873 317.109 84.1451 330.32 87.2906 335.981C87.2906 344.965 104.275 366.805 127.55 376.241C142.792 382.85 160.71 384.585 172.498 384.992C174.631 385.391 176.85 385.594 179.132 385.594C197.152 388.888 219.681 387.88 237.635 386.935C240.604 386.638 243.681 386.369 246.843 386.092C263.779 384.611 283.133 382.919 301.17 375.612C303.735 374.572 306.269 373.122 308.757 371.697C309.801 371.1 310.837 370.506 311.864 369.95C326.961 361.772 338.914 346.046 342.688 328.432C343.156 326.249 343.664 323.127 344.154 320.117C344.523 317.855 344.881 315.656 345.204 313.964C346.424 307.577 346.424 301.163 346.424 294.79C346.424 292.789 346.424 290.792 346.462 288.801C346.462 279.365 341.37 243.846 333.881 233.444C334.197 232.182 331.664 233.294 328.426 234.716C325.208 236.128 321.294 237.847 318.784 237.847C308.049 236.058 305.901 234.587 304.878 233.886C304.462 233.602 304.232 233.444 303.686 233.444C299.973 241.701 299.093 258.861 298.654 276.849C298.3 291.349 296.631 305.759 292.992 317.109C291.958 325.9 284.986 330.346 280.08 333.474C279.018 334.152 278.053 334.767 277.266 335.352C265.015 339.08 260.95 338.956 251.151 338.656C249.377 338.601 247.416 338.541 245.184 338.497C230.397 338.205 203.924 337.807 182.291 339.773C182.287 339.767 182.283 339.761 182.279 339.756C180.981 337.941 178.791 338.463 176.234 339.072C174.581 339.467 172.773 339.898 170.956 339.756C162.157 339.068 151.537 336.473 145.793 332.207C131.972 321.942 130.24 300.98 129.559 292.744Z" fill="#FDD299"/>
<path d="M241.41 273.075C241.41 277.191 241.41 279.995 241.41 283.14C241.41 283.769 241.458 285.303 240.781 285.657C238.894 285.657 234.944 285.657 233.861 285.657C232.35 285.657 227.571 285.657 225.683 285.657C225.52 285.524 227.057 284.572 226.941 284.399C227.571 283.14 227.186 281.123 226.312 279.366C225.326 277.381 223.796 274.963 222.538 273.705C222.538 271.544 222.538 261.752 222.538 249.8C223.11 243.556 222.538 236.59 222.538 229.67C223.167 222.122 221.909 215.831 222.538 209.54C222.538 202.621 222.538 193.814 222.538 189.41C222.87 187.653 222.538 183.12 222.538 181.233C225.684 181.233 232.603 180.603 233.232 179.975C233.641 179.975 242.039 176.829 247.072 171.167C246.443 175.571 245.184 186.265 244.555 188.152C244.555 193.184 243.926 202.621 243.926 210.799C243.297 217.089 242.668 224.009 242.668 230.928C243.102 237.903 242.039 243.51 242.039 249.8C242.039 261.752 241.41 270.944 241.41 273.075Z" fill="#FDD299"/>
<path d="M186.053 273.075C186.053 277.191 186.053 279.995 186.053 283.14C186.053 283.769 186.005 285.303 186.682 285.657C188.569 285.657 192.519 285.657 193.602 285.657C195.114 285.657 201.151 285.657 203.038 285.657C203.202 285.524 201.78 285.027 201.151 284.398C200.522 283.14 200.906 281.123 201.78 279.366C202.766 277.381 203.667 274.963 204.925 273.705C205.554 271.188 205.554 261.752 205.554 249.8C205.554 243.669 205.554 236.589 205.554 229.67C205.554 222.121 206.183 215.831 205.554 209.54C205.554 202.62 205.554 193.814 205.554 189.41C205.554 187.523 206.183 183.119 205.554 181.232C202.409 181.232 194.86 180.603 194.231 179.975C193.822 179.975 186.053 176.2 180.392 171.167C181.021 175.571 182.279 186.265 182.908 188.152C182.908 193.184 183.537 202.621 183.537 210.799C184.166 217.089 184.795 224.009 184.795 230.928C184.361 237.903 185.424 243.51 185.424 249.8C185.424 261.752 186.053 270.944 186.053 273.075Z" fill="#FDD299"/>
<path d="M186.681 285.656H240.901L242.668 312.706L244.943 338.497L182.907 339.755H182.278L181.649 339.126L184.165 327.174L186.681 285.656Z" fill="#FDD299"/>
<path d="M329.48 224.637C330.74 226.524 334.419 231.146 332.626 232.815C330.552 234.745 322.14 237.218 318.786 237.218C315.433 237.218 305.762 234.116 303.689 232.186C303.689 230.299 304.947 227.153 305.576 224.637C307.463 219.605 311.274 214.572 317.527 214.572C323.781 214.572 327.593 220.863 329.48 224.637Z" fill="#8EE6DA"/>
<path d="M98.4703 224.008C97.2112 225.895 93.5834 230.928 94.8415 232.815C96.9148 234.746 105.811 236.59 109.164 236.59C112.518 236.59 121.262 235.331 124.262 231.557C124.262 229.67 123.004 226.525 122.375 224.008C120.487 218.976 116.677 213.943 110.423 213.943C104.17 213.943 100.357 220.234 98.4703 224.008Z" fill="#8EE6DA"/>
<path d="M225.343 279.154C225.343 279.72 226.594 279.846 226.594 281.231C227.219 282.615 226.578 284.232 225.968 284.692C222.843 284.692 217.721 284.692 214.092 284.692C209.849 284.692 205.34 285.385 202.84 284.692C200.965 284 202.215 279.846 202.84 279.154C202.84 277.5 205.341 275.692 205.966 273.615C207.841 272.231 211.397 273.615 214.092 273.615C216.987 273.615 220.147 272.637 222.218 273.615C223.468 275.692 224.718 277.769 225.343 279.154Z" fill="#8EE6DA"/>
<rect x="205.85" y="181" width="16" height="93" fill="#FFDE75"/>
<path d="M185.12 260.135C187.289 285.886 185.404 293.422 184.776 306.608C185.404 319.795 182.891 334.865 181.634 338.005C177.864 338.633 160.147 340.191 149.303 333.603C139.249 329.208 134.222 317.905 132.966 309.114C129.576 301.736 129.77 291.101 130.003 279.601C130.131 273.242 129.299 266.619 128.851 260.135C126.944 252.131 127.057 221.204 115.656 214.924C109.372 213.04 113.771 214.296 106.859 213.668C102.46 213.269 93.0349 210.529 93.0349 206.133C93.0345 204.249 79.8396 199.854 95.5484 162.178C104.723 140.174 111.886 121.362 116.913 110.059C118.798 104.407 123.825 93.1045 125.081 90.5928C126.025 88.2348 133.25 67.987 138.905 57.94C139.936 57.7929 144.561 57.3171 150.216 57.9399C153.358 56.0611 155.243 52.9214 159.013 51.6655C164.147 47.9986 170.305 44.8487 176.607 43.5023C185.404 39.1076 207.721 36.1413 214.309 37.2237C217.451 37.2237 226.338 37.1262 236.302 39.1076C246.266 41.0891 255.289 45.2799 255.781 45.387C256.042 45.5377 270.233 51.0384 277.145 57.9457C277.145 57.9457 279.659 57.9457 289.084 57.9457C290.969 57.9457 316.805 126.204 317.361 127.647C317.471 127.933 343.752 182.277 339.353 194.208C339.353 202.371 329.299 215.558 318.617 213.674C305.48 215.822 306.05 218.697 299.766 248.21C298.162 255.745 299.766 311.004 290.341 322.307C285.314 333.61 267.257 338.9 262.693 338.005C260.808 338.633 257.038 339.889 246.356 338.005C243.842 333.61 241.957 305.352 241.957 284.631C242.181 261.2 243.972 240.355 243.214 240.047C242.583 239.791 243.214 202.999 246.356 177.881C248.869 163.439 254.665 156.067 255.781 153.392C255.336 152.824 258.294 148.996 258.923 146.485C261.436 153.392 266.708 151.647 267.092 150.88C273.375 143.345 273.809 123.55 273.375 115.088C273.24 112.455 273.663 111.002 272.747 110.692C268.348 110.692 266.54 110.198 265.206 110.064C258.923 109.436 262.863 100.645 259.551 91.2263C251.382 67.9927 228.761 77.4117 221.849 74.9C212.642 75.2833 203.435 75.6384 196.086 75.5279C191.399 75.4574 187.468 74.4817 184.776 75.5279C173.465 79.9235 175.026 81.9308 170.324 86.2023C167.892 91.7659 167.532 98.0225 166.553 105.04C166.291 106.924 165.515 108.463 164.384 109.43C163.253 110.398 161.338 110.058 159.357 110.058C155.095 110.058 154.429 110.781 153.986 113.832C153.71 115.73 153.702 118.53 153.702 122.623C154.614 132.67 155.243 148.368 162.499 151.502C164.384 150.874 168.154 149.619 168.154 146.479C169.067 146.479 175.785 161.158 178.836 169.085C181.574 177.744 182.503 186.686 182.891 195.464C183.519 223.093 185.12 246.321 185.12 260.135Z" fill="#FFDE75"/>
<path d="M261.379 128.409C261.379 135.27 260.108 139.012 260.108 144.001C255.585 154.144 249.302 170.82 241.673 174.562C234.069 180.769 224.76 179.551 214.339 179.551C204.972 179.551 196.244 181.706 188.912 176.575C178.125 171.053 174.291 158.488 167.934 144.143C166.856 139.051 166.663 132.917 166.663 128.551C166.663 122.314 165.392 112.959 166.028 108.593C166.028 101.109 168.161 87.8652 173.656 83.022C176.305 80.6867 179.572 77.7138 183.191 76.7849C193.997 75.5378 204.806 76.1615 214.339 76.1615C228.96 76.7852 248.03 73.043 254.387 83.503C264.558 93.4828 261.379 114.905 261.379 128.409Z" fill="#FDD299"/>
<path d="M159.08 61.4286L154.773 58.898L150.465 57H138.773L131.388 75.3469L125.85 88H169.542L172.003 83.5714L173.85 81.6735L172.619 76.6122L169.542 70.2857L165.85 65.8571L159.08 61.4286Z" fill="#8EE6DA"/>
<path d="M248.329 110.149C248.329 111.539 241.457 112.665 237.635 112.665C233.861 113.294 223.796 114.552 223.796 112.665C223.796 111.275 230.086 106.374 234.49 105.746C235.826 105.555 238.294 105.06 240.781 105.746C243.926 107.633 248.329 109.313 248.329 110.149Z" fill="black"/>
<path d="M179.762 110.778C179.762 112.168 187.263 113.017 191.085 113.017C194.906 113.017 203.666 114.905 203.666 113.018C203.666 111.628 198.633 106.726 194.23 106.098C192.894 105.907 189.797 105.06 187.31 105.746C184.165 107.004 179.762 109.942 179.762 110.778Z" fill="black"/>
<path d="M272.863 130.908C272.233 137.827 271.019 145.502 268.459 149.15C266.818 151.488 264.512 151.038 263.427 151.038C262.332 151.038 260.634 150.897 260.282 148.521C259.739 144.867 260.911 137.645 260.911 130.908C260.911 123.869 261.54 113.754 261.54 110.149C262.798 109.519 266.181 111.407 267.201 111.407C268.908 111.407 272.863 110.149 272.863 112.665C273.55 115.816 272.863 126.618 272.863 130.908Z" fill="#FFD8A8"/>
<path d="M154.6 131.036C155.229 137.955 156.443 145.63 159.004 149.278C160.645 151.617 162.951 151.166 164.036 151.166C165.131 151.166 166.829 151.025 167.181 148.649C167.724 144.995 166.552 137.773 166.552 131.036C166.552 123.997 165.923 113.125 165.923 109.52C165.294 110.149 161.282 110.778 160.262 110.778C158.555 110.778 154.6 110.277 154.6 112.793C153.913 115.944 154.6 126.746 154.6 131.036Z" fill="#FFD8A8"/>
<path d="M273.98 119H315.024L320.795 133.208L327.85 150H268.85V149.354L272.697 134.5L273.98 120.292V119Z" fill="#8EE6DA"/>
<path d="M153.422 119H112.481L106.797 133.367L99.8496 151H127.008H156.06H159.85L156.06 142.51L154.165 134.673L153.534 122.265L153.422 119Z" fill="#8EE6DA"/>
<path d="M259.35 146L260.85 150H257.85L259.35 146Z" fill="#8EE6DA"/>
<path d="M168.468 146L166.85 151H170.85L168.468 146Z" fill="#8EE6DA"/>
<path d="M88.4812 181H181.955L183.218 197.327L183.85 213H99.8496L92.9022 207.776L89.1128 201.245L87.8496 191.449L88.4812 181Z" fill="#8EE6DA"/>
<path d="M126.85 243H184.594L185.85 274H130.616L126.85 243Z" fill="#8EE6DA"/>
<path d="M131.85 306H184.85L184.219 321.889L181.695 337.778L168.445 339L160.873 337.778L150.778 334.722L142.576 329.833L138.159 324.944L135.004 318.833L131.85 306Z" fill="#8EE6DA"/>
<path d="M295.85 306H241.85L243.12 321.889V329.833L245.026 337.778L259.003 339L266.626 337.778L276.791 334.722L285.05 329.833L289.497 324.944L292.673 318.833L295.85 306Z" fill="#8EE6DA"/>
<path d="M300.85 243H243.105L241.85 274H297.711L300.85 243Z" fill="#8EE6DA"/>
<path d="M339.573 181H245.764L243.85 196.02V213H328.725L335.744 207.776L339.573 201.245L340.85 191.449L339.573 181Z" fill="#8EE6DA"/>
<path d="M149.85 57C156.619 58.8947 170.896 66.3474 173.85 81" stroke="black" stroke-width="0.5"/>
<path d="M267.115 59.5306L272.077 57.6327L276.419 57L290.065 57.6327L295.647 73.449L301.85 88H258.432L254.71 81.6735L252.85 79.7755L254.09 74.7143L257.191 68.3878L260.913 63.9592L267.115 59.5306Z" fill="#8EE6DA"/>
<path d="M179.581 109.938L179.904 110.32L179.904 110.32L179.581 109.938ZM204.014 112.414L204.414 112.114L204.414 112.114L204.014 112.414ZM179.774 111.317L179.939 110.845L179.939 110.845L179.774 111.317ZM203.212 113.871L203.23 113.372L203.23 113.372L203.212 113.871ZM154.606 111.645L155.102 111.705L155.102 111.705L154.606 111.645ZM159.121 149.158L158.67 149.374L158.676 149.386L158.682 149.398L159.121 149.158ZM155.591 110.786L155.591 110.286L155.591 110.286L155.591 110.786ZM166.041 108.269L166.54 108.245L166.447 106.326L165.593 108.047L166.041 108.269ZM167.924 147.197L167.425 147.221L167.425 147.221L167.924 147.197ZM167.92 147.347L168.417 147.401L168.417 147.401L167.92 147.347ZM118.861 218.355L119.201 217.988L119.201 217.988L118.861 218.355ZM103.764 216.467L104.074 216.86L104.097 216.842L104.117 216.821L103.764 216.467ZM124.389 232.194L124.701 232.585L124.944 232.39L124.877 232.085L124.389 232.194ZM93.8546 232.194L93.397 231.992L93.2224 232.389L93.5899 232.618L93.8546 232.194ZM247.87 109.731L248.188 109.346L248.188 109.346L247.87 109.731ZM223.974 112.038L223.581 111.729L223.581 111.729L223.974 112.038ZM247.618 111.419L247.768 111.895L247.768 111.895L247.618 111.419ZM224.965 113.853L224.984 114.353L224.984 114.353L224.965 113.853ZM261.029 105.124H260.529V105.142L260.53 105.16L261.029 105.124ZM273.092 111.645L272.596 111.705L272.596 111.705L273.092 111.645ZM268.577 149.158L269.016 149.398L269.023 149.386L269.028 149.374L268.577 149.158ZM259.779 147.347L259.282 147.401L259.282 147.401L259.779 147.347ZM272.108 110.786L272.108 110.286L272.108 110.286L272.108 110.786ZM259.774 147.197L260.274 147.221L260.274 147.221L259.774 147.197ZM244.044 210.177L244.544 210.194L244.544 210.185V210.177H244.044ZM241.528 285.664L241.028 285.647L241.028 285.665L241.028 285.682L241.528 285.664ZM245.931 338.505L245.708 338.952L245.708 338.952L245.931 338.505ZM293.111 317.117L292.636 316.959L292.632 316.972L293.111 317.117ZM298.143 280.003L297.644 279.985L297.643 280.002L297.644 280.018L298.143 280.003ZM308.837 218.355L308.497 217.988L308.497 217.988L308.837 218.355ZM323.935 216.468L323.581 216.821L323.602 216.842L323.625 216.86L323.935 216.468ZM344.065 266.163L343.575 266.263L343.575 266.263L344.065 266.163ZM339.032 341.021L339.493 341.215L339.496 341.207L339.499 341.2L339.032 341.021ZM288.078 380.023L288.176 380.513L288.176 380.513L288.078 380.023ZM224.487 113.871L224.505 114.371L224.505 114.371L224.487 113.871ZM166.67 105.124L167.168 105.16L167.17 105.142V105.124H166.67ZM183.654 210.177H183.154V210.185L183.155 210.194L183.654 210.177ZM186.171 285.664L186.67 285.682L186.671 285.665L186.67 285.647L186.171 285.664ZM181.767 338.505L181.991 338.952L181.991 338.952L181.767 338.505ZM134.588 317.117L135.066 316.972L135.062 316.959L134.588 317.117ZM129.555 280.003L130.055 280.018L130.055 280.002L130.055 279.985L129.555 280.003ZM83.6338 266.163L84.1238 266.263L84.1238 266.263L83.6338 266.163ZM88.6663 341.021L88.1992 341.2L88.2021 341.207L88.2053 341.215L88.6663 341.021ZM139.62 380.023L139.522 380.513L139.522 380.513L139.62 380.023ZM179.904 110.32C185.349 105.712 190.256 105.006 194.28 106.062C198.337 107.127 201.583 110.005 203.614 112.714L204.414 112.114C202.299 109.294 198.88 106.235 194.533 105.095C190.153 103.945 184.917 104.767 179.258 109.557L179.904 110.32ZM179.939 110.845C179.815 110.802 179.769 110.723 179.759 110.642C179.747 110.551 179.78 110.425 179.904 110.32L179.258 109.557C178.887 109.871 178.711 110.327 178.767 110.768C178.824 111.218 179.121 111.619 179.61 111.789L179.939 110.845ZM203.23 113.372C199.626 113.239 194.862 112.979 190.46 112.563C186.038 112.146 182.043 111.577 179.939 110.845L179.61 111.789C181.846 112.567 185.96 113.143 190.366 113.559C194.792 113.977 199.577 114.238 203.194 114.371L203.23 113.372ZM203.614 112.714C203.812 112.979 203.643 113.387 203.23 113.372L203.194 114.371C204.364 114.414 205.166 113.117 204.414 112.114L203.614 112.714ZM154.11 111.585C153.621 115.615 153.293 121.995 153.818 128.892C154.343 135.785 155.722 143.232 158.67 149.374L159.572 148.942C156.699 142.957 155.336 135.649 154.815 128.816C154.296 121.989 154.621 115.676 155.102 111.705L154.11 111.585ZM155.591 110.286C154.848 110.285 154.201 110.829 154.11 111.585L155.102 111.705C155.131 111.47 155.335 111.286 155.591 111.286L155.591 110.286ZM165.593 108.047C165.306 108.626 165.005 109.024 164.628 109.316C164.25 109.608 163.757 109.821 163.041 109.971C161.577 110.276 159.338 110.286 155.591 110.286L155.591 111.286C159.284 111.286 161.653 111.281 163.245 110.95C164.057 110.78 164.705 110.52 165.239 110.107C165.774 109.694 166.159 109.156 166.489 108.492L165.593 108.047ZM168.424 147.173L166.54 108.245L165.541 108.293L167.425 147.221L168.424 147.173ZM168.417 147.401C168.425 147.325 168.427 147.247 168.424 147.173L167.425 147.221C167.426 147.245 167.425 147.271 167.423 147.293L168.417 147.401ZM158.682 149.398C159.062 150.095 159.825 150.715 160.703 151.162C161.592 151.613 162.663 151.919 163.728 151.938C164.794 151.957 165.884 151.687 166.758 150.95C167.637 150.209 168.237 149.047 168.417 147.401L167.423 147.293C167.264 148.746 166.752 149.647 166.113 150.185C165.47 150.728 164.637 150.954 163.745 150.938C162.851 150.922 161.928 150.662 161.156 150.27C160.372 149.872 159.806 149.37 159.56 148.919L158.682 149.398ZM119.201 217.988C115.599 214.643 112.225 213.583 109.441 213.672C106.673 213.76 104.542 214.983 103.41 216.114L104.117 216.821C105.083 215.856 106.978 214.751 109.473 214.671C111.952 214.592 115.078 215.524 118.521 218.721L119.201 217.988ZM124.877 232.085C124.137 228.758 123.305 225.789 122.374 223.384C121.448 220.993 120.401 219.102 119.201 217.988L118.521 218.721C119.549 219.676 120.529 221.391 121.441 223.745C122.348 226.085 123.166 229.001 123.901 232.303L124.877 232.085ZM93.5899 232.618C107.521 241.31 120.109 236.251 124.701 232.585L124.077 231.803C119.739 235.266 107.613 240.189 94.1193 231.77L93.5899 232.618ZM103.454 216.075C101.221 217.838 97.4326 222.83 93.397 231.992L94.3122 232.396C98.3289 223.276 102.037 218.468 104.074 216.86L103.454 216.075ZM248.188 109.346C242.712 104.814 237.638 103.987 233.364 105.044C229.12 106.094 225.744 108.979 223.581 111.729L224.367 112.347C226.444 109.706 229.646 106.994 233.604 106.015C237.531 105.044 242.286 105.759 247.551 110.116L248.188 109.346ZM247.768 111.895C248.34 111.715 248.696 111.264 248.766 110.745C248.835 110.237 248.627 109.709 248.188 109.346L247.551 110.116C247.741 110.273 247.795 110.466 247.775 110.61C247.757 110.743 247.673 110.877 247.467 110.942L247.768 111.895ZM224.984 114.353C228.534 114.215 233.09 113.959 237.321 113.56C241.536 113.162 245.477 112.619 247.768 111.895L247.467 110.942C245.291 111.629 241.45 112.166 237.227 112.564C233.02 112.961 228.484 113.216 224.945 113.354L224.984 114.353ZM223.581 111.729C222.667 112.891 223.619 114.406 224.984 114.353L224.945 113.354C224.319 113.378 224.049 112.752 224.367 112.347L223.581 111.729ZM213.849 76.0581H239.641V75.0581H213.849V76.0581ZM239.641 76.0581C243.084 76.0581 248.301 77.4917 252.656 81.8257C256.999 86.1488 260.529 93.403 260.529 105.124H261.529C261.529 93.1922 257.929 85.6635 253.361 81.1169C248.804 76.5811 243.326 75.0581 239.641 75.0581V76.0581ZM272.596 111.705C273.078 115.676 273.403 121.989 272.883 128.816C272.363 135.649 270.999 142.957 268.127 148.942L269.028 149.374C271.976 143.232 273.355 135.785 273.88 128.892C274.405 121.995 274.078 115.615 273.589 111.585L272.596 111.705ZM268.139 148.919C267.892 149.37 267.326 149.872 266.543 150.27C265.771 150.662 264.847 150.922 263.953 150.938C263.061 150.954 262.229 150.728 261.585 150.185C260.947 149.647 260.434 148.746 260.276 147.293L259.282 147.401C259.461 149.047 260.062 150.209 260.941 150.95C261.815 151.687 262.905 151.957 263.971 151.938C265.035 151.919 266.107 151.613 266.996 151.162C267.874 150.715 268.636 150.095 269.016 149.398L268.139 148.919ZM260.53 105.16C260.557 105.538 260.607 106.122 260.707 106.728C260.805 107.324 260.958 107.984 261.21 108.492L262.106 108.047C261.922 107.677 261.787 107.137 261.693 106.566C261.601 106.004 261.554 105.455 261.527 105.088L260.53 105.16ZM261.21 108.492C261.54 109.156 261.924 109.694 262.459 110.107C262.993 110.52 263.641 110.78 264.453 110.95C266.045 111.281 268.415 111.286 272.108 111.286L272.108 110.286C268.36 110.286 266.122 110.276 264.657 109.971C263.941 109.821 263.449 109.608 263.071 109.316C262.693 109.024 262.393 108.626 262.106 108.047L261.21 108.492ZM260.274 147.221L262.157 108.293L261.158 108.245L259.275 147.173L260.274 147.221ZM259.317 143.916L247.994 168.449L248.902 168.869L260.225 144.335L259.317 143.916ZM247.978 168.486C246.481 172.55 243.544 186.499 243.544 210.177H244.544C244.544 186.549 247.478 172.736 248.917 168.832L247.978 168.486ZM243.544 210.16L241.028 285.647L242.028 285.681L244.544 210.194L243.544 210.16ZM241.028 285.682C241.343 294.283 241.941 307.247 242.712 318.19C243.097 323.66 243.527 328.633 243.986 332.304C244.216 334.138 244.455 335.66 244.702 336.761C244.825 337.309 244.954 337.77 245.092 338.118C245.161 338.292 245.237 338.453 245.325 338.587C245.407 338.713 245.529 338.863 245.708 338.952L246.155 338.058C246.208 338.084 246.204 338.106 246.162 338.041C246.125 337.984 246.077 337.891 246.022 337.751C245.912 337.473 245.797 337.07 245.678 336.541C245.441 335.488 245.207 334.004 244.979 332.18C244.522 328.536 244.095 323.585 243.709 318.12C242.939 307.192 242.342 294.24 242.028 285.646L241.028 285.682ZM245.708 338.952C245.922 339.06 246.262 339.161 246.673 339.257C247.096 339.355 247.635 339.456 248.271 339.551C249.545 339.742 251.226 339.913 253.193 339.997C257.126 340.166 262.22 339.988 267.497 338.917C278.047 336.775 289.425 331.035 293.589 317.262L292.632 316.972C288.618 330.249 277.665 335.832 267.299 337.937C262.118 338.988 257.108 339.164 253.236 338.998C251.301 338.916 249.655 338.747 248.42 338.562C247.802 338.47 247.29 338.373 246.899 338.282C246.495 338.188 246.255 338.108 246.155 338.058L245.708 338.952ZM293.585 317.275C295.487 311.57 299.149 296.162 298.643 279.987L297.644 280.018C298.145 296.051 294.509 311.341 292.636 316.959L293.585 317.275ZM309.178 218.721C312.62 215.524 315.747 214.592 318.226 214.671C320.721 214.751 322.616 215.856 323.581 216.821L324.288 216.114C323.157 214.983 321.026 213.76 318.258 213.672C315.473 213.583 312.1 214.643 308.497 217.988L309.178 218.721ZM343.575 266.263C350.094 298.357 342.943 329.377 338.565 340.843L339.499 341.2C343.928 329.601 351.12 298.385 344.555 266.064L343.575 266.263ZM338.571 340.828C334.215 351.199 317.974 373.534 287.98 379.533L288.176 380.513C318.572 374.434 335.042 351.812 339.493 341.215L338.571 340.828ZM287.98 379.533C250.273 387.074 224.515 387.701 218.253 387.701V388.701C224.571 388.701 250.396 388.069 288.176 380.513L287.98 379.533ZM218.253 387.701H213.849V388.701H218.253V387.701ZM248.045 168.362C246.612 170.308 243.793 173.254 240.028 175.71C236.265 178.166 231.588 180.111 226.43 180.111V181.111C231.841 181.111 236.705 179.072 240.574 176.548C244.442 174.024 247.348 170.994 248.85 168.956L248.045 168.362ZM226.43 180.111H213.849V181.111H226.43V180.111ZM224.505 114.371C224.657 114.365 224.811 114.36 224.968 114.354L224.929 113.354C224.773 113.36 224.62 113.366 224.468 113.372L224.505 114.371ZM298.643 280.02C299.073 267.84 300.62 246.591 303.798 232.303L302.822 232.085C299.623 246.467 298.074 267.79 297.644 279.985L298.643 280.02ZM303.798 232.303C304.532 229.001 305.351 226.085 306.257 223.745C307.169 221.391 308.149 219.676 309.178 218.721L308.497 217.988C307.297 219.102 306.251 220.993 305.325 223.384C304.393 225.789 303.562 228.758 302.822 232.085L303.798 232.303ZM323.625 216.86C325.662 218.468 329.37 223.276 333.386 232.396L334.301 231.992C330.266 222.83 326.477 217.838 324.245 216.075L323.625 216.86ZM333.386 232.396C336.858 240.277 340.544 251.342 343.575 266.263L344.555 266.064C341.512 251.084 337.806 239.949 334.301 231.992L333.386 232.396ZM302.998 232.585C307.59 236.251 320.178 241.31 334.109 232.618L333.579 231.77C320.085 240.189 307.959 235.266 303.622 231.803L302.998 232.585ZM247.795 110.32C247.918 110.425 247.951 110.551 247.94 110.642C247.93 110.723 247.883 110.802 247.76 110.845L248.088 111.789C248.577 111.619 248.875 111.218 248.932 110.768C248.988 110.327 248.812 109.871 248.441 109.557L247.795 110.32ZM260.276 147.293C260.273 147.271 260.272 147.245 260.274 147.221L259.275 147.173C259.271 147.247 259.273 147.325 259.282 147.401L260.276 147.293ZM223.285 112.114C222.533 113.117 223.334 114.414 224.505 114.371L224.468 113.372C224.056 113.387 223.886 112.979 224.085 112.714L223.285 112.114ZM273.589 111.585C273.497 110.829 272.85 110.285 272.108 110.286L272.108 111.286C272.363 111.286 272.568 111.47 272.596 111.705L273.589 111.585ZM213.849 75.0581H188.058V76.0581H213.849V75.0581ZM188.058 75.0581C184.372 75.0581 178.895 76.5811 174.338 81.1169C169.769 85.6635 166.17 93.1922 166.17 105.124H167.17C167.17 93.403 170.699 86.1488 175.043 81.8257C179.397 77.4917 184.614 76.0581 188.058 76.0581V75.0581ZM166.171 105.088C166.145 105.455 166.098 106.004 166.005 106.566C165.911 107.137 165.777 107.677 165.593 108.047L166.489 108.492C166.74 107.984 166.894 107.324 166.992 106.728C167.092 106.122 167.141 105.538 167.168 105.16L166.171 105.088ZM167.474 144.335L178.797 168.868L179.705 168.449L168.382 143.916L167.474 144.335ZM178.782 168.832C180.22 172.736 183.154 186.549 183.154 210.177H184.154C184.154 186.499 181.217 172.55 179.72 168.486L178.782 168.832ZM183.155 210.194L185.671 285.681L186.67 285.647L184.154 210.16L183.155 210.194ZM185.671 285.646C185.357 294.24 184.759 307.192 183.989 318.12C183.604 323.585 183.176 328.536 182.72 332.18C182.491 334.004 182.257 335.488 182.021 336.541C181.902 337.07 181.786 337.473 181.676 337.751C181.621 337.891 181.574 337.984 181.536 338.041C181.494 338.106 181.491 338.084 181.544 338.058L181.991 338.952C182.169 338.863 182.292 338.713 182.374 338.587C182.461 338.453 182.538 338.292 182.607 338.118C182.744 337.77 182.873 337.309 182.996 336.761C183.244 335.66 183.483 334.138 183.712 332.304C184.172 328.633 184.601 323.66 184.987 318.19C185.758 307.247 186.356 294.283 186.67 285.682L185.671 285.646ZM181.544 338.058C181.443 338.108 181.204 338.188 180.799 338.282C180.408 338.373 179.897 338.47 179.279 338.562C178.044 338.747 176.398 338.916 174.462 338.998C170.591 339.164 165.581 338.988 160.4 337.937C150.033 335.832 139.08 330.249 135.066 316.972L134.109 317.262C138.273 331.035 149.651 336.775 160.201 338.917C165.479 339.988 170.572 340.166 174.505 339.997C176.472 339.913 178.153 339.742 179.427 339.551C180.063 339.456 180.602 339.355 181.026 339.257C181.436 339.161 181.777 339.06 181.991 338.952L181.544 338.058ZM135.062 316.959C133.189 311.341 129.554 296.051 130.055 280.018L129.055 279.987C128.55 296.162 132.212 311.57 134.113 317.275L135.062 316.959ZM83.1438 266.064C76.5785 298.385 83.7705 329.601 88.1992 341.2L89.1334 340.843C84.7553 329.377 77.6047 298.357 84.1238 266.263L83.1438 266.064ZM88.2053 341.215C92.6561 351.812 109.126 374.434 139.522 380.513L139.718 379.533C109.725 373.534 93.4833 351.199 89.1273 340.828L88.2053 341.215ZM139.522 380.513C177.302 388.069 203.127 388.701 209.446 388.701V387.701C203.183 387.701 177.425 387.074 139.718 379.533L139.522 380.513ZM209.446 388.701H213.849V387.701H209.446V388.701ZM178.848 168.956C180.351 170.994 183.256 174.024 187.124 176.548C190.993 179.072 195.858 181.111 201.268 181.111V180.111C196.11 180.111 191.434 178.166 187.671 175.71C183.906 173.254 181.087 170.308 179.653 168.362L178.848 168.956ZM201.268 181.111H213.849V180.111H201.268V181.111ZM130.055 279.985C129.624 267.79 128.076 246.466 124.877 232.085L123.901 232.303C127.079 246.591 128.626 267.84 129.056 280.02L130.055 279.985ZM93.397 231.992C89.8927 239.948 86.1865 251.084 83.1438 266.064L84.1238 266.263C87.1545 251.342 90.841 240.276 94.3122 232.396L93.397 231.992Z" fill="black"/>
<path fill-rule="evenodd" clip-rule="evenodd" d="M213.841 37.0567C207.521 36.9531 196.785 37.8509 185.123 40.8824C173.46 43.9144 160.906 49.0712 150.917 57.4613C150.646 57.6884 150.303 57.8158 149.947 57.8158H139.033C138.83 57.8158 138.647 57.9383 138.57 58.126L92.9032 169.478L92.9002 169.485C90.0887 176.046 87.448 186.142 88.6117 195.126C89.1925 199.609 90.7171 203.79 93.6141 207.123C96.5068 210.451 100.802 212.973 106.998 214.089L106.82 215.073C100.435 213.923 95.9232 211.304 92.8594 207.779C89.8 204.259 88.2187 199.876 87.62 195.254C86.4249 186.028 89.1301 175.745 91.9796 169.095L91.9811 169.091L137.645 57.7466C137.876 57.1835 138.424 56.8158 139.033 56.8158H149.947C150.065 56.8158 150.181 56.7735 150.274 56.6955C160.416 48.1768 173.124 42.9684 184.872 39.9146C196.616 36.8617 207.437 35.9525 213.849 36.0567C220.261 35.9525 231.082 36.8617 242.827 39.9146C254.574 42.9684 267.282 48.1768 277.425 56.6955C277.518 56.7735 277.634 56.8158 277.752 56.8158H288.666C289.274 56.8158 289.823 57.1835 290.053 57.7466L335.717 169.091L335.719 169.095C338.568 175.745 341.273 186.028 340.078 195.254C339.48 199.876 337.898 204.259 334.839 207.779C331.775 211.304 327.263 213.923 320.878 215.073L320.701 214.089C326.897 212.973 331.192 210.451 334.084 207.123C336.981 203.79 338.506 199.609 339.087 195.126C340.25 186.142 337.61 176.046 334.798 169.485L334.795 169.478L289.128 58.126C289.051 57.9383 288.869 57.8158 288.666 57.8158H277.752C277.395 57.8158 277.052 57.6884 276.782 57.4613C266.792 49.0712 254.238 43.9144 242.575 40.8824C230.913 37.8509 220.178 36.9531 213.857 37.0567L213.849 36.5568L213.841 37.0567Z" fill="black"/>
<path fill-rule="evenodd" clip-rule="evenodd" d="M206.669 180.111H213.847H221.025C221.853 180.111 222.525 180.783 222.525 181.611V273.369C222.525 273.481 222.561 273.588 222.631 273.679C224.108 275.617 225.952 278.429 226.802 280.784C227.22 281.942 227.442 283.102 227.142 284.007C226.985 284.482 226.686 284.879 226.227 285.149C225.779 285.413 225.212 285.535 224.541 285.535H215.105H213.847H212.589H203.153C202.482 285.535 201.915 285.413 201.467 285.149C201.008 284.879 200.71 284.482 200.552 284.007C200.253 283.102 200.474 281.942 200.892 280.784C201.743 278.429 203.586 275.617 205.064 273.679C205.133 273.588 205.169 273.481 205.169 273.369V181.611C205.169 180.783 205.841 180.111 206.669 180.111ZM213.847 284.535H215.105H224.541C225.099 284.535 225.474 284.432 225.72 284.287C225.956 284.149 226.106 283.954 226.192 283.693C226.38 283.128 226.267 282.247 225.862 281.123C225.064 278.914 223.295 276.2 221.835 274.286C221.635 274.023 221.525 273.702 221.525 273.369V181.611C221.525 181.335 221.301 181.111 221.025 181.111H213.847H206.669C206.393 181.111 206.169 181.335 206.169 181.611V273.369C206.169 273.702 206.059 274.023 205.859 274.286C204.399 276.2 202.631 278.914 201.833 281.123C201.427 282.247 201.315 283.128 201.502 283.693C201.588 283.954 201.738 284.149 201.974 284.287C202.221 284.432 202.595 284.535 203.153 284.535H212.589H213.847Z" fill="black"/>
<path d="M257.642 88H279.645H301.648M113.051 119.818H153.914M273.358 119.818H314.85M160.2 151H135.997H99.8496M167.116 151H170.888M125.624 88H147.627H169.63" stroke="black" stroke-width="0.5"/>
<path d="M268.627 150H290.969H327.85M87.8496 181H181.398M260.409 150H257.249" stroke="black" stroke-width="0.5"/>
<path d="M245.376 181H338.85M98.8496 213H143.692H183.481" stroke="black" stroke-width="0.5"/>
<path d="M243.85 213H328.85" stroke="black" stroke-width="0.5"/>
<path d="M242.536 243H271.693H300.85M126.85 243H185.163" stroke="black" stroke-width="0.5"/>
<path d="M131.85 306H185.85" stroke="black" stroke-width="0.5"/>
<path d="M128.85 274H185.85" stroke="black" stroke-width="0.5"/>
<path d="M241.85 274H298.85" stroke="black" stroke-width="0.5"/>
<path d="M241.85 306H295.85" stroke="black" stroke-width="0.5"/>
<path d="M277.85 57C270.766 57 255.85 61.8 252.85 81" stroke="black" stroke-width="0.5"/>
<path d="M200.975 57H148.85M226.096 57H278.85" stroke="black" stroke-width="0.5" stroke-linecap="round"/>
<path d="M214.133 42.8391L201.78 52.275L214.361 29.6289L214.133 42.8391Z" fill="#75F4F0"/>
<path d="M214.362 42.8385L214.362 59.8233L201.152 52.9036L214.362 42.8385Z" fill="#0FDFD8"/>
<path d="M214.359 42.8394L226.312 52.9043L214.359 59.824L214.359 42.8394Z" fill="#10C1BB"/>
<path d="M214.361 75.5503L201.78 57.9365L214.361 64.227L214.361 75.5503Z" fill="#75F4F0"/>
<path d="M214.483 75.022L225.935 57.9366L214.612 64.2272L214.483 75.022Z" fill="#10C1BB"/>
<path d="M214.36 42.837L225.685 52.2754L214.362 29.6292L214.36 42.837Z" fill="#0FDFD8"/>
<path d="M201.055 56.8579C200.977 56.7443 200.821 56.7158 200.708 56.7943C200.594 56.8728 200.565 57.0285 200.644 57.1421L201.055 56.8579ZM213.975 76L213.769 76.1421L213.985 76.455L214.187 76.1325L213.975 76ZM200.644 57.1421L213.769 76.1421L214.18 75.8579L201.055 56.8579L200.644 57.1421ZM214.187 76.1325L226.062 57.1325L225.638 56.8675L213.763 75.8675L214.187 76.1325Z" fill="black"/>
<path d="M213.975 75V64.2877M213.975 64.2877L225.85 57.3562M213.975 64.2877L200.85 57.3562M213.975 59.8767L225.85 52.9452M213.975 59.8767L200.85 52.9452M213.975 59.8767V42.863M225.85 52.9452L213.975 29L200.85 52.9452M225.85 52.9452L213.975 42.863M200.85 52.9452L213.975 42.863" stroke="black" stroke-width="0.5"/>
<path d="M214.85 43V29" stroke="black" stroke-width="0.5"/>
<path d="M242.85 106.568C244.6 107.623 247.97 109.987 247.445 111M242.85 106.455C244.819 106.455 249.188 105.515 255.323 104.035C257.949 103.402 250.071 111.52 246.789 110.887C248.889 110.29 245.038 107.684 242.85 106.455Z" stroke="black"/>
<path d="M184.85 106.568C182.964 107.623 179.335 109.987 179.901 111M184.85 106.455C182.729 106.455 178.024 105.515 171.417 104.035C168.589 103.402 177.073 111.52 180.608 110.887C178.345 110.29 182.493 107.684 184.85 106.455Z" stroke="black"/>
<path d="M206.465 181C208.254 181.941 211.666 184.128 215.08 186.463M215.08 186.463C217.227 187.93 219.375 189.456 221.12 190.767C221.436 191.005 221.36 191.498 220.988 191.633C219.315 192.243 217.191 193.043 215.08 193.884M215.08 186.463C212.964 187.159 208.756 188.634 206.678 189.651C206.317 189.828 206.355 190.314 206.728 190.466L215.08 193.884M215.08 186.463L221.85 184.036M206.465 198C207.364 197.113 211.199 195.43 215.08 193.884M215.08 193.884L221.85 198" stroke="black" stroke-linecap="round"/>
<path d="M206.465 198C208.254 199.052 211.666 201.496 215.08 204.105M215.08 204.105C217.269 205.778 219.459 207.518 221.222 209.002C221.509 209.244 221.433 209.703 221.086 209.844C219.398 210.531 217.232 211.442 215.08 212.4M215.08 204.105C212.927 204.897 208.607 206.59 206.571 207.728C206.238 207.914 206.276 208.374 206.623 208.532L215.08 212.4M215.08 204.105L221.85 201.393M206.465 217C207.364 216.008 211.199 214.128 215.08 212.4M215.08 212.4L221.85 217" stroke="black" stroke-linecap="round"/>
<path d="M206.465 217C208.254 217.941 211.666 220.128 215.08 222.463M215.08 222.463C217.227 223.93 219.375 225.456 221.12 226.767C221.436 227.005 221.36 227.498 220.988 227.633C219.315 228.243 217.191 229.043 215.08 229.884M215.08 222.463C212.964 223.159 208.756 224.634 206.678 225.651C206.317 225.828 206.355 226.314 206.728 226.466L215.08 229.884M215.08 222.463L221.85 220.036M206.465 234C207.364 233.113 211.199 231.43 215.08 229.884M215.08 229.884L221.85 234" stroke="black" stroke-linecap="round"/>
<path d="M206.465 234C208.254 234.997 211.666 237.312 215.08 239.784M215.08 239.784C217.249 241.354 219.419 242.987 221.174 244.385C221.475 244.625 221.399 245.1 221.04 245.239C219.359 245.887 217.213 246.743 215.08 247.642M215.08 239.784C212.945 240.528 208.678 242.112 206.621 243.19C206.274 243.371 206.313 243.844 206.673 243.999L215.08 247.642M215.08 239.784L221.85 237.214M206.465 252C207.364 251.061 211.199 249.279 215.08 247.642M215.08 247.642L221.85 252" stroke="black" stroke-linecap="round"/>
<path d="M206.465 252C208.254 252.941 211.666 255.128 215.08 257.463M215.08 257.463C217.227 258.93 219.375 260.456 221.12 261.767C221.436 262.005 221.36 262.498 220.988 262.633C219.315 263.243 217.191 264.043 215.08 264.884M215.08 257.463C212.964 258.159 208.756 259.634 206.678 260.651C206.317 260.828 206.355 261.314 206.728 261.466L215.08 264.884M215.08 257.463L221.85 255.036M206.465 269C207.364 268.113 211.199 266.43 215.08 264.884M215.08 264.884L221.85 269" stroke="black" stroke-linecap="round"/>
<path d="M205.85 273H221.85" stroke="black" stroke-linecap="round"/>
<path d="M246.071 338C250.73 348.775 262.209 372.859 270.85 383M181.264 338C175.546 350.042 162.457 375.901 155.85 383" stroke="black" stroke-linecap="round"/>
<path d="M184.85 317C184.85 317 212.11 321.5 241.85 317" stroke="black" stroke-linecap="round"/>
<path d="M184.85 325C184.85 325 213.233 327.25 242.85 325" stroke="black" stroke-linecap="round"/>
<path d="M184.85 331C184.85 331 213.233 335.5 242.85 331" stroke="black" stroke-linecap="round"/>
<path d="M217.809 171H209.89C209.681 171 209.494 171.13 209.421 171.327L206.098 180.327C205.978 180.653 206.219 181 206.567 181H221.132C221.48 181 221.722 180.653 221.601 180.327L218.278 171.327C218.205 171.13 218.018 171 217.809 171Z" fill="#8EE6DA" stroke="black" stroke-linecap="round"/>
<path d="M213.234 109L205.991 140.388C205.919 140.701 206.157 141 206.478 141H217.85" stroke="black" stroke-linecap="round"/>
</svg>
