<svg width="70" height="62" viewBox="0 0 70 62" fill="none" xmlns="http://www.w3.org/2000/svg">
<path d="M31.1165 39.9785L11.9054 61.5H2.51132L26.7319 34.1916L27.0077 33.8806L26.7524 33.5526L1.02286 0.5H21.8901L37.0182 20.1179L37.3839 20.5921L37.7853 20.1476L55.5271 0.5H64.9158L42.1034 25.9764L41.826 26.2861L42.0799 26.6153L68.983 61.5H48.6447L31.8838 40.004L31.5154 39.5316L31.1165 39.9785ZM51.1553 56.1305L51.3055 56.3229H51.5495H57.4975H58.5149L57.8933 55.5174L19.4062 5.64288L19.2561 5.44834H19.0103H12.6191H11.5946L12.225 6.25599L51.1553 56.1305Z" fill="#FF664E" stroke="black"/>
</svg>
